%TF.GenerationSoftware,KiCad,Pcbnew,10.0.0*%
%TF.CreationDate,2026-04-08T19:58:48-07:00*%
%TF.ProjectId,tinyScrubCam_pcb,74696e79-5363-4727-9562-43616d5f7063,rev?*%
%TF.SameCoordinates,Original*%
%TF.FileFunction,Soldermask,Bot*%
%TF.FilePolarity,Negative*%
%FSLAX46Y46*%
G04 Gerber Fmt 4.6, Leading zero omitted, Abs format (unit mm)*
G04 Created by KiCad (PCBNEW 10.0.0) date 2026-04-08 19:58:48*
%MOMM*%
%LPD*%
G01*
G04 APERTURE LIST*
G04 Aperture macros list*
%AMRoundRect*
0 Rectangle with rounded corners*
0 $1 Rounding radius*
0 $2 $3 $4 $5 $6 $7 $8 $9 X,Y pos of 4 corners*
0 Add a 4 corners polygon primitive as box body*
4,1,4,$2,$3,$4,$5,$6,$7,$8,$9,$2,$3,0*
0 Add four circle primitives for the rounded corners*
1,1,$1+$1,$2,$3*
1,1,$1+$1,$4,$5*
1,1,$1+$1,$6,$7*
1,1,$1+$1,$8,$9*
0 Add four rect primitives between the rounded corners*
20,1,$1+$1,$2,$3,$4,$5,0*
20,1,$1+$1,$4,$5,$6,$7,0*
20,1,$1+$1,$6,$7,$8,$9,0*
20,1,$1+$1,$8,$9,$2,$3,0*%
G04 Aperture macros list end*
%ADD10C,1.700000*%
%ADD11R,1.700000X1.700000*%
%ADD12C,1.600000*%
%ADD13C,3.200000*%
%ADD14RoundRect,0.250000X-0.350000X-0.625000X0.350000X-0.625000X0.350000X0.625000X-0.350000X0.625000X0*%
%ADD15O,1.200000X1.750000*%
%ADD16RoundRect,0.250000X-0.550000X0.550000X-0.550000X-0.550000X0.550000X-0.550000X0.550000X0.550000X0*%
%ADD17R,1.905000X2.000000*%
%ADD18O,1.905000X2.000000*%
G04 APERTURE END LIST*
D10*
%TO.C,J_LORA_MAIN1*%
X169000000Y-122320000D03*
X169000000Y-119780000D03*
X169000000Y-117240000D03*
X169000000Y-114700000D03*
X169000000Y-112160000D03*
X169000000Y-109620000D03*
X169000000Y-107080000D03*
X169000000Y-104540000D03*
D11*
X169000000Y-102000000D03*
%TD*%
D12*
%TO.C,RPD1*%
X110920000Y-75500000D03*
X121080000Y-75500000D03*
%TD*%
D11*
%TO.C,J_ESP32_L1*%
X130810000Y-66040000D03*
D10*
X130810000Y-68580000D03*
X130810000Y-71120000D03*
X130810000Y-73660000D03*
X130810000Y-76200000D03*
X130810000Y-78740000D03*
X130810000Y-81280000D03*
X130810000Y-83820000D03*
X130810000Y-86360000D03*
X130810000Y-88900000D03*
X130810000Y-91440000D03*
X130810000Y-93980000D03*
X130810000Y-96520000D03*
X130810000Y-99060000D03*
X130810000Y-101600000D03*
X130810000Y-104140000D03*
X130810000Y-106680000D03*
X130810000Y-109220000D03*
X130810000Y-111760000D03*
X130810000Y-114300000D03*
%TD*%
D12*
%TO.C,R_BASE1*%
X110920000Y-71000000D03*
X121080000Y-71000000D03*
%TD*%
D13*
%TO.C,REF\u002A\u002A*%
X193000000Y-130500000D03*
%TD*%
D12*
%TO.C,RPU1*%
X177165000Y-84181000D03*
X177165000Y-94341000D03*
%TD*%
D13*
%TO.C,REF\u002A\u002A*%
X106500000Y-130500000D03*
%TD*%
D12*
%TO.C,R2*%
X167005000Y-84181000D03*
X167005000Y-94341000D03*
%TD*%
D11*
%TO.C,J_IR_FLASH1*%
X113240000Y-100400000D03*
D10*
X113240000Y-102940000D03*
%TD*%
D14*
%TO.C,J_PWR_IN1*%
X140500000Y-127500000D03*
D15*
X142500000Y-127500000D03*
%TD*%
D13*
%TO.C,REF\u002A\u002A*%
X106500000Y-62500000D03*
%TD*%
D11*
%TO.C,J_PIR1*%
X185941000Y-83862000D03*
D10*
X185941000Y-81322000D03*
X185941000Y-78782000D03*
%TD*%
D16*
%TO.C,U2*%
X175549000Y-73376000D03*
D12*
X173009000Y-73376000D03*
X170469000Y-73376000D03*
X167929000Y-73376000D03*
X167929000Y-80996000D03*
X170469000Y-80996000D03*
X173009000Y-80996000D03*
X175549000Y-80996000D03*
%TD*%
D13*
%TO.C,REF\u002A\u002A*%
X193500000Y-62500000D03*
%TD*%
D17*
%TO.C,Q1*%
X113499000Y-82000000D03*
D18*
X116039000Y-82000000D03*
X118579000Y-82000000D03*
%TD*%
D11*
%TO.C,J_LORA_GPIO1*%
X194400000Y-102000000D03*
D10*
X194400000Y-104540000D03*
X194400000Y-107080000D03*
X194400000Y-109620000D03*
X194400000Y-112160000D03*
%TD*%
D11*
%TO.C,J_ESP32_R1*%
X156210000Y-66040000D03*
D10*
X156210000Y-68580000D03*
X156210000Y-71120000D03*
X156210000Y-73660000D03*
X156210000Y-76200000D03*
X156210000Y-78740000D03*
X156210000Y-81280000D03*
X156210000Y-83820000D03*
X156210000Y-86360000D03*
X156210000Y-88900000D03*
X156210000Y-91440000D03*
X156210000Y-93980000D03*
X156210000Y-96520000D03*
X156210000Y-99060000D03*
X156210000Y-101600000D03*
X156210000Y-104140000D03*
X156210000Y-106680000D03*
X156210000Y-109220000D03*
X156210000Y-111760000D03*
X156210000Y-114300000D03*
%TD*%
D12*
%TO.C,R3*%
X176500000Y-70500000D03*
X176500000Y-60340000D03*
%TD*%
%TO.C,RHYS1*%
X172085000Y-84181000D03*
X172085000Y-94341000D03*
%TD*%
%TO.C,R4*%
X167005000Y-70500000D03*
X167005000Y-60340000D03*
%TD*%
D11*
%TO.C,J_IR_PWR1*%
X113239000Y-90401000D03*
D10*
X113239000Y-92941000D03*
%TD*%
D12*
%TO.C,R1*%
X171739000Y-60325000D03*
X171739000Y-70485000D03*
%TD*%
M02*
