%TF.GenerationSoftware,KiCad,Pcbnew,10.0.0*%
%TF.CreationDate,2026-05-05T11:14:11-07:00*%
%TF.ProjectId,tinyScrubCam_pcb copy,74696e79-5363-4727-9562-43616d5f7063,rev?*%
%TF.SameCoordinates,Original*%
%TF.FileFunction,Copper,L1,Top*%
%TF.FilePolarity,Positive*%
%FSLAX46Y46*%
G04 Gerber Fmt 4.6, Leading zero omitted, Abs format (unit mm)*
G04 Created by KiCad (PCBNEW 10.0.0) date 2026-05-05 11:14:11*
%MOMM*%
%LPD*%
G01*
G04 APERTURE LIST*
G04 Aperture macros list*
%AMRoundRect*
0 Rectangle with rounded corners*
0 $1 Rounding radius*
0 $2 $3 $4 $5 $6 $7 $8 $9 X,Y pos of 4 corners*
0 Add a 4 corners polygon primitive as box body*
4,1,4,$2,$3,$4,$5,$6,$7,$8,$9,$2,$3,0*
0 Add four circle primitives for the rounded corners*
1,1,$1+$1,$2,$3*
1,1,$1+$1,$4,$5*
1,1,$1+$1,$6,$7*
1,1,$1+$1,$8,$9*
0 Add four rect primitives between the rounded corners*
20,1,$1+$1,$2,$3,$4,$5,0*
20,1,$1+$1,$4,$5,$6,$7,0*
20,1,$1+$1,$6,$7,$8,$9,0*
20,1,$1+$1,$8,$9,$2,$3,0*%
G04 Aperture macros list end*
%TA.AperFunction,ComponentPad*%
%ADD10C,1.600000*%
%TD*%
%TA.AperFunction,ComponentPad*%
%ADD11R,1.700000X1.700000*%
%TD*%
%TA.AperFunction,ComponentPad*%
%ADD12C,1.700000*%
%TD*%
%TA.AperFunction,ComponentPad*%
%ADD13RoundRect,0.250000X-0.625000X0.350000X-0.625000X-0.350000X0.625000X-0.350000X0.625000X0.350000X0*%
%TD*%
%TA.AperFunction,ComponentPad*%
%ADD14O,1.750000X1.200000*%
%TD*%
%TA.AperFunction,ComponentPad*%
%ADD15RoundRect,0.250000X-0.350000X-0.625000X0.350000X-0.625000X0.350000X0.625000X-0.350000X0.625000X0*%
%TD*%
%TA.AperFunction,ComponentPad*%
%ADD16O,1.200000X1.750000*%
%TD*%
%TA.AperFunction,ComponentPad*%
%ADD17RoundRect,0.250000X-0.550000X0.550000X-0.550000X-0.550000X0.550000X-0.550000X0.550000X0.550000X0*%
%TD*%
%TA.AperFunction,ComponentPad*%
%ADD18R,1.905000X2.000000*%
%TD*%
%TA.AperFunction,ComponentPad*%
%ADD19O,1.905000X2.000000*%
%TD*%
%TA.AperFunction,ViaPad*%
%ADD20C,0.500000*%
%TD*%
%TA.AperFunction,Conductor*%
%ADD21C,1.000000*%
%TD*%
%TA.AperFunction,Conductor*%
%ADD22C,0.500000*%
%TD*%
G04 APERTURE END LIST*
D10*
%TO.P,RPD1,1*%
%TO.N,/IR_EN*%
X110920000Y-75500000D03*
%TO.P,RPD1,2*%
%TO.N,GND*%
X121080000Y-75500000D03*
%TD*%
D11*
%TO.P,J_ESP32_L1,1,3V3_1*%
%TO.N,/3V3*%
X130810000Y-66040000D03*
D12*
%TO.P,J_ESP32_L1,2,RST_2*%
%TO.N,unconnected-(J_ESP32_L1-RST-Pad2)*%
X130810000Y-68580000D03*
%TO.P,J_ESP32_L1,3,GPIO4_3*%
%TO.N,unconnected-(J_ESP32_L1-GPIO4-Pad3)*%
X130810000Y-71120000D03*
%TO.P,J_ESP32_L1,4,GPIO5_4*%
%TO.N,unconnected-(J_ESP32_L1-GPIO5-Pad4)*%
X130810000Y-73660000D03*
%TO.P,J_ESP32_L1,5,GPIO6_5*%
%TO.N,unconnected-(J_ESP32_L1-GPIO6-Pad5)*%
X130810000Y-76200000D03*
%TO.P,J_ESP32_L1,6,GPIO7_6*%
%TO.N,unconnected-(J_ESP32_L1-GPIO7-Pad6)*%
X130810000Y-78740000D03*
%TO.P,J_ESP32_L1,7,GPIO5_7*%
%TO.N,unconnected-(J_ESP32_L1-GPIO5-Pad7)*%
X130810000Y-81280000D03*
%TO.P,J_ESP32_L1,8,GPIO16_8*%
%TO.N,unconnected-(J_ESP32_L1-GPIO16-Pad8)*%
X130810000Y-83820000D03*
%TO.P,J_ESP32_L1,9,GPIO17_9*%
%TO.N,unconnected-(J_ESP32_L1-GPIO17-Pad9)*%
X130810000Y-86360000D03*
%TO.P,J_ESP32_L1,10,GPIO18_10*%
%TO.N,unconnected-(J_ESP32_L1-GPIO18-Pad10)*%
X130810000Y-88900000D03*
%TO.P,J_ESP32_L1,11,GPIO8_11*%
%TO.N,unconnected-(J_ESP32_L1-GPIO8-Pad11)*%
X130810000Y-91440000D03*
%TO.P,J_ESP32_L1,12,GPIO3_12*%
%TO.N,/LORA_CS*%
X130810000Y-93980000D03*
%TO.P,J_ESP32_L1,13,GPIO46_13*%
%TO.N,unconnected-(J_ESP32_L1-GPIO46-Pad13)*%
X130810000Y-96520000D03*
%TO.P,J_ESP32_L1,14,GPIO9_14*%
%TO.N,unconnected-(J_ESP32_L1-GPIO9-Pad14)*%
X130810000Y-99060000D03*
%TO.P,J_ESP32_L1,15,GPIO10_15*%
%TO.N,unconnected-(J_ESP32_L1-GPIO10-Pad15)*%
X130810000Y-101600000D03*
%TO.P,J_ESP32_L1,16,GPIO11_16*%
%TO.N,unconnected-(J_ESP32_L1-GPIO11-Pad16)*%
X130810000Y-104140000D03*
%TO.P,J_ESP32_L1,17,GPIO12_17*%
%TO.N,unconnected-(J_ESP32_L1-GPIO12-Pad17)*%
X130810000Y-106680000D03*
%TO.P,J_ESP32_L1,18,GPIO13_18*%
%TO.N,unconnected-(J_ESP32_L1-GPIO13-Pad18)*%
X130810000Y-109220000D03*
%TO.P,J_ESP32_L1,19,GPIO14_19*%
%TO.N,/LORA_RST*%
X130810000Y-111760000D03*
%TO.P,J_ESP32_L1,20,5V_20*%
%TO.N,/SYS_PWR*%
X130810000Y-114300000D03*
%TD*%
D10*
%TO.P,R_BASE1,1*%
%TO.N,/IR_EN*%
X110920000Y-71000000D03*
%TO.P,R_BASE1,2*%
X121080000Y-71000000D03*
%TD*%
%TO.P,RPU1,1*%
%TO.N,/PIR_OUT*%
X177165000Y-84181000D03*
%TO.P,RPU1,2*%
%TO.N,/3V3*%
X177165000Y-94341000D03*
%TD*%
%TO.P,R2,1*%
%TO.N,Net-(U2A-+)*%
X167005000Y-84181000D03*
%TO.P,R2,2*%
%TO.N,GND*%
X167005000Y-94341000D03*
%TD*%
D13*
%TO.P,J_IR_FLASH1,1,Pin_1_1*%
%TO.N,/IR_PWR*%
X114350000Y-101490000D03*
D14*
%TO.P,J_IR_FLASH1,2,Pin_2_2*%
%TO.N,/IR_SW*%
X114350000Y-103490000D03*
%TD*%
D15*
%TO.P,J_PWR_IN1,1,Pin_1_1*%
%TO.N,/SYS_PWR*%
X140500000Y-127500000D03*
D16*
%TO.P,J_PWR_IN1,2,Pin_2_2*%
%TO.N,GND*%
X142500000Y-127500000D03*
%TD*%
D11*
%TO.P,PIR,1,Pin_1_1*%
%TO.N,/3V3*%
X185941000Y-83862000D03*
D12*
%TO.P,PIR,2,Pin_2_2*%
%TO.N,GND*%
X185941000Y-81322000D03*
%TO.P,PIR,3,Pin_3_3*%
%TO.N,/PIR_RAW*%
X185941000Y-78782000D03*
%TD*%
D17*
%TO.P,U2,1*%
%TO.N,/PIR_OUT*%
X175549000Y-73376000D03*
D10*
%TO.P,U2,2,-_2*%
%TO.N,Net-(U2A--)*%
X173009000Y-73376000D03*
%TO.P,U2,3,+_3*%
%TO.N,Net-(U2A-+)*%
X170469000Y-73376000D03*
%TO.P,U2,4,V-_4*%
%TO.N,GND*%
X167929000Y-73376000D03*
%TO.P,U2,5,+_5*%
X167929000Y-80996000D03*
%TO.P,U2,6,-_6*%
X170469000Y-80996000D03*
%TO.P,U2,7*%
%TO.N,unconnected-(U2-Pad7)*%
X173009000Y-80996000D03*
%TO.P,U2,8,V+_8*%
%TO.N,/3V3*%
X175549000Y-80996000D03*
%TD*%
D18*
%TO.P,Q1,1,B_1*%
%TO.N,/IR_EN*%
X113499000Y-82000000D03*
D19*
%TO.P,Q1,2,C_2*%
%TO.N,/IR_SW*%
X116039000Y-82000000D03*
%TO.P,Q1,3,E_3*%
%TO.N,GND*%
X118579000Y-82000000D03*
%TD*%
D11*
%TO.P,J_LORA_GPIO1,1,GPIO1_1*%
%TO.N,/LORA_G1*%
X194400000Y-102000000D03*
D12*
%TO.P,J_LORA_GPIO1,2,GPIO2_2*%
%TO.N,unconnected-(J_LORA_GPIO1-GPIO2-Pad2)*%
X194400000Y-104540000D03*
%TO.P,J_LORA_GPIO1,3,GPIO3_3*%
%TO.N,unconnected-(J_LORA_GPIO1-GPIO3-Pad3)*%
X194400000Y-107080000D03*
%TO.P,J_LORA_GPIO1,4,GPIO4_4*%
%TO.N,unconnected-(J_LORA_GPIO1-GPIO4-Pad4)*%
X194400000Y-109620000D03*
%TO.P,J_LORA_GPIO1,5,GPIO5_5*%
%TO.N,unconnected-(J_LORA_GPIO1-GPIO5-Pad5)*%
X194400000Y-112160000D03*
%TD*%
D11*
%TO.P,J_ESP32_R1,1,GPIO43_1*%
%TO.N,unconnected-(J_ESP32_R1-GPIO43-Pad1)*%
X156210000Y-66040000D03*
D12*
%TO.P,J_ESP32_R1,2,GPIO44_2*%
%TO.N,unconnected-(J_ESP32_R1-GPIO44-Pad2)*%
X156210000Y-68580000D03*
%TO.P,J_ESP32_R1,3,GPIO1_3*%
%TO.N,/PIR_OUT*%
X156210000Y-71120000D03*
%TO.P,J_ESP32_R1,4,GPIO2_4*%
%TO.N,/IR_EN*%
X156210000Y-73660000D03*
%TO.P,J_ESP32_R1,5,GPIO42_5*%
%TO.N,unconnected-(J_ESP32_R1-GPIO42-Pad5)*%
X156210000Y-76200000D03*
%TO.P,J_ESP32_R1,6,GPIO41_6*%
%TO.N,unconnected-(J_ESP32_R1-GPIO41-Pad6)*%
X156210000Y-78740000D03*
%TO.P,J_ESP32_R1,7,GPIO40_7*%
%TO.N,unconnected-(J_ESP32_R1-GPIO40-Pad7)*%
X156210000Y-81280000D03*
%TO.P,J_ESP32_R1,8,GPIO39_8*%
%TO.N,unconnected-(J_ESP32_R1-GPIO39-Pad8)*%
X156210000Y-83820000D03*
%TO.P,J_ESP32_R1,9,GPIO38_9*%
%TO.N,unconnected-(J_ESP32_R1-GPIO38-Pad9)*%
X156210000Y-86360000D03*
%TO.P,J_ESP32_R1,10,GPIO37_10*%
%TO.N,unconnected-(J_ESP32_R1-GPIO37-Pad10)*%
X156210000Y-88900000D03*
%TO.P,J_ESP32_R1,11,GPIO36_11*%
%TO.N,unconnected-(J_ESP32_R1-GPIO36-Pad11)*%
X156210000Y-91440000D03*
%TO.P,J_ESP32_R1,12,GPIO35_12*%
%TO.N,unconnected-(J_ESP32_R1-GPIO35-Pad12)*%
X156210000Y-93980000D03*
%TO.P,J_ESP32_R1,13,GPIO0_13*%
%TO.N,unconnected-(J_ESP32_R1-GPIO0-Pad13)*%
X156210000Y-96520000D03*
%TO.P,J_ESP32_R1,14,GPIO45_14*%
%TO.N,/LORA_SCK*%
X156210000Y-99060000D03*
%TO.P,J_ESP32_R1,15,GPIO48_15*%
%TO.N,unconnected-(J_ESP32_R1-GPIO48-Pad15)*%
X156210000Y-101600000D03*
%TO.P,J_ESP32_R1,16,GPIO47_16*%
%TO.N,/LORA_MISO*%
X156210000Y-104140000D03*
%TO.P,J_ESP32_R1,17,GPIO21_17*%
%TO.N,/LORA_G1*%
X156210000Y-106680000D03*
%TO.P,J_ESP32_R1,18,GPIO20_18*%
%TO.N,/LORA_G0*%
X156210000Y-109220000D03*
%TO.P,J_ESP32_R1,19,GPIO19_19*%
%TO.N,/LORA_MOSI*%
X156210000Y-111760000D03*
%TO.P,J_ESP32_R1,20,GND_20*%
%TO.N,GND*%
X156210000Y-114300000D03*
%TD*%
D10*
%TO.P,R3,1*%
%TO.N,/3V3*%
X176500000Y-70500000D03*
%TO.P,R3,2*%
%TO.N,Net-(U2A--)*%
X176500000Y-60340000D03*
%TD*%
%TO.P,RHYS1,1*%
%TO.N,Net-(U2A-+)*%
X172085000Y-84181000D03*
%TO.P,RHYS1,2*%
%TO.N,/PIR_OUT*%
X172085000Y-94341000D03*
%TD*%
%TO.P,R4,1*%
%TO.N,Net-(U2A--)*%
X167005000Y-70500000D03*
%TO.P,R4,2*%
%TO.N,GND*%
X167005000Y-60340000D03*
%TD*%
D11*
%TO.P,J_LORA_MAIN1,1,3V3_1*%
%TO.N,/3V3*%
X169000000Y-102000000D03*
D12*
%TO.P,J_LORA_MAIN1,2,GND_2*%
%TO.N,GND*%
X169000000Y-104540000D03*
%TO.P,J_LORA_MAIN1,3,EN_3*%
%TO.N,/3V3*%
X169000000Y-107080000D03*
%TO.P,J_LORA_MAIN1,4,GPIO0_4*%
%TO.N,/LORA_G0*%
X169000000Y-109620000D03*
%TO.P,J_LORA_MAIN1,5,SCK_5*%
%TO.N,/LORA_SCK*%
X169000000Y-112160000D03*
%TO.P,J_LORA_MAIN1,6,MISO_6*%
%TO.N,/LORA_MISO*%
X169000000Y-114700000D03*
%TO.P,J_LORA_MAIN1,7,MOSI_7*%
%TO.N,/LORA_MOSI*%
X169000000Y-117240000D03*
%TO.P,J_LORA_MAIN1,8,CS_8*%
%TO.N,/LORA_CS*%
X169000000Y-119780000D03*
%TO.P,J_LORA_MAIN1,9,RST_9*%
%TO.N,/LORA_RST*%
X169000000Y-122320000D03*
%TD*%
D11*
%TO.P,J_IR_PWR1,1,Pin_1_1*%
%TO.N,/IR_PWR*%
X113239000Y-90401000D03*
D12*
%TO.P,J_IR_PWR1,2,Pin_2_2*%
%TO.N,GND*%
X113239000Y-92941000D03*
%TD*%
D10*
%TO.P,R1,1*%
%TO.N,/PIR_RAW*%
X171739000Y-60325000D03*
%TO.P,R1,2*%
%TO.N,Net-(U2A-+)*%
X171739000Y-70485000D03*
%TD*%
D20*
%TO.N,/LORA_SCK*%
X163250000Y-110750000D03*
X163250000Y-107000000D03*
%TO.N,/LORA_MISO*%
X161500000Y-108250000D03*
X162250000Y-112000000D03*
%TD*%
%TO.N,/IR_EN*%
D21*
X121080000Y-71000000D02*
X110920000Y-71000000D01*
X110920000Y-75500000D02*
X110920000Y-79421000D01*
X110920000Y-71000000D02*
X110920000Y-75500000D01*
X110920000Y-79421000D02*
X113499000Y-82000000D01*
%TO.N,/3V3*%
X169506000Y-102000000D02*
X177165000Y-94341000D01*
X186000000Y-88500000D02*
X185941000Y-88441000D01*
X167450000Y-105530000D02*
X169000000Y-107080000D01*
X180159000Y-94341000D02*
X186000000Y-88500000D01*
X132600000Y-64250000D02*
X130810000Y-66040000D01*
X176500000Y-70500000D02*
X170250000Y-64250000D01*
X185941000Y-83862000D02*
X183075000Y-80996000D01*
X183075000Y-80996000D02*
X175549000Y-80996000D01*
X177165000Y-94341000D02*
X180159000Y-94341000D01*
X170250000Y-64250000D02*
X132600000Y-64250000D01*
X169000000Y-102000000D02*
X167450000Y-103550000D01*
X179750000Y-73750000D02*
X176500000Y-70500000D01*
X167450000Y-103550000D02*
X167450000Y-105530000D01*
X169000000Y-102000000D02*
X169506000Y-102000000D01*
X185941000Y-88441000D02*
X185941000Y-83862000D01*
X175549000Y-80996000D02*
X179750000Y-76795000D01*
X179750000Y-76795000D02*
X179750000Y-73750000D01*
%TO.N,/LORA_CS*%
D22*
X163575000Y-125205000D02*
X162035000Y-125205000D01*
X169000000Y-119780000D02*
X163575000Y-125205000D01*
X162035000Y-125205000D02*
X130810000Y-93980000D01*
%TO.N,/LORA_RST*%
X165415000Y-125905000D02*
X144955000Y-125905000D01*
X169000000Y-122320000D02*
X165415000Y-125905000D01*
X144955000Y-125905000D02*
X130810000Y-111760000D01*
%TO.N,/SYS_PWR*%
D21*
X130810000Y-114300000D02*
X140500000Y-123990000D01*
X140500000Y-123990000D02*
X140500000Y-127500000D01*
%TO.N,/PIR_OUT*%
D22*
X175549000Y-72527233D02*
X172256767Y-69235000D01*
X174299000Y-82446370D02*
X176033630Y-84181000D01*
X158095000Y-69235000D02*
X156210000Y-71120000D01*
X177165000Y-84181000D02*
X177165000Y-84415000D01*
X172085000Y-89495000D02*
X172085000Y-94341000D01*
X175549000Y-73376000D02*
X175549000Y-72527233D01*
X175549000Y-73376000D02*
X174299000Y-74626000D01*
X172256767Y-69235000D02*
X158095000Y-69235000D01*
X174299000Y-74626000D02*
X174299000Y-82446370D01*
X176033630Y-84181000D02*
X177165000Y-84181000D01*
X177165000Y-84415000D02*
X172085000Y-89495000D01*
%TO.N,Net-(U2A-+)*%
X170469000Y-73376000D02*
X171759000Y-74666000D01*
X172085000Y-84181000D02*
X167005000Y-84181000D01*
X171759000Y-74666000D02*
X171759000Y-83855000D01*
X171759000Y-83855000D02*
X172085000Y-84181000D01*
%TO.N,/IR_PWR*%
D21*
X111689000Y-98829000D02*
X114350000Y-101490000D01*
X111689000Y-91951000D02*
X111689000Y-98829000D01*
X113239000Y-90401000D02*
X111689000Y-91951000D01*
%TO.N,/IR_SW*%
X115675000Y-103490000D02*
X114350000Y-103490000D01*
X116039000Y-82000000D02*
X119000000Y-84961000D01*
X119000000Y-84961000D02*
X119000000Y-100165000D01*
X119000000Y-100165000D02*
X115675000Y-103490000D01*
%TO.N,/PIR_RAW*%
D22*
X185941000Y-74527000D02*
X185941000Y-78782000D01*
X171739000Y-60325000D02*
X185941000Y-74527000D01*
%TO.N,Net-(U2A--)*%
X167005000Y-70500000D02*
X168240000Y-71735000D01*
X168240000Y-71735000D02*
X171368000Y-71735000D01*
X171368000Y-71735000D02*
X173009000Y-73376000D01*
%TO.N,/LORA_SCK*%
X167590000Y-110750000D02*
X163250000Y-110750000D01*
X163250000Y-106100000D02*
X156210000Y-99060000D01*
X169000000Y-112160000D02*
X167590000Y-110750000D01*
X163250000Y-107000000D02*
X163250000Y-106100000D01*
%TO.N,/LORA_MISO*%
X160320000Y-108250000D02*
X156210000Y-104140000D01*
X169000000Y-114700000D02*
X166300000Y-112000000D01*
X166300000Y-112000000D02*
X162250000Y-112000000D01*
X161500000Y-108250000D02*
X160320000Y-108250000D01*
%TO.N,/LORA_G0*%
X168600000Y-109220000D02*
X156210000Y-109220000D01*
X169000000Y-109620000D02*
X168600000Y-109220000D01*
%TO.N,/LORA_MOSI*%
X161690000Y-117240000D02*
X156210000Y-111760000D01*
X169000000Y-117240000D02*
X161690000Y-117240000D01*
%TD*%
%TA.AperFunction,Conductor*%
%TO.N,GND*%
G36*
X154802539Y-65270185D02*
G01*
X154848294Y-65322989D01*
X154859500Y-65374500D01*
X154859500Y-66937870D01*
X154859501Y-66937876D01*
X154865908Y-66997483D01*
X154916202Y-67132328D01*
X154916206Y-67132335D01*
X155002452Y-67247544D01*
X155002455Y-67247547D01*
X155117664Y-67333793D01*
X155117671Y-67333797D01*
X155249082Y-67382810D01*
X155305016Y-67424681D01*
X155329433Y-67490145D01*
X155314582Y-67558418D01*
X155293431Y-67586673D01*
X155179889Y-67700215D01*
X155054951Y-67872179D01*
X154958444Y-68061585D01*
X154892753Y-68263760D01*
X154859500Y-68473713D01*
X154859500Y-68686286D01*
X154892753Y-68896239D01*
X154958444Y-69098414D01*
X155054951Y-69287820D01*
X155179890Y-69459786D01*
X155330213Y-69610109D01*
X155502182Y-69735050D01*
X155510946Y-69739516D01*
X155561742Y-69787491D01*
X155578536Y-69855312D01*
X155555998Y-69921447D01*
X155510946Y-69960484D01*
X155502182Y-69964949D01*
X155330213Y-70089890D01*
X155179890Y-70240213D01*
X155054951Y-70412179D01*
X154958444Y-70601585D01*
X154892753Y-70803760D01*
X154864337Y-70983172D01*
X154859500Y-71013713D01*
X154859500Y-71226287D01*
X154892754Y-71436243D01*
X154949954Y-71612287D01*
X154958444Y-71638414D01*
X155054951Y-71827820D01*
X155179890Y-71999786D01*
X155330213Y-72150109D01*
X155502182Y-72275050D01*
X155510946Y-72279516D01*
X155561742Y-72327491D01*
X155578536Y-72395312D01*
X155555998Y-72461447D01*
X155510946Y-72500484D01*
X155502182Y-72504949D01*
X155330213Y-72629890D01*
X155179890Y-72780213D01*
X155054951Y-72952179D01*
X154958444Y-73141585D01*
X154958443Y-73141587D01*
X154958443Y-73141588D01*
X154892754Y-73343757D01*
X154859500Y-73553713D01*
X154859500Y-73766287D01*
X154869534Y-73829644D01*
X154890873Y-73964371D01*
X154892754Y-73976243D01*
X154933589Y-74101921D01*
X154958444Y-74178414D01*
X155054951Y-74367820D01*
X155179890Y-74539786D01*
X155330213Y-74690109D01*
X155502182Y-74815050D01*
X155510946Y-74819516D01*
X155561742Y-74867491D01*
X155578536Y-74935312D01*
X155555998Y-75001447D01*
X155510946Y-75040484D01*
X155502182Y-75044949D01*
X155330213Y-75169890D01*
X155179890Y-75320213D01*
X155054951Y-75492179D01*
X154958444Y-75681585D01*
X154892753Y-75883760D01*
X154890181Y-75900000D01*
X154859500Y-76093713D01*
X154859500Y-76306287D01*
X154892754Y-76516243D01*
X154951310Y-76696460D01*
X154958444Y-76718414D01*
X155054951Y-76907820D01*
X155179890Y-77079786D01*
X155330213Y-77230109D01*
X155502182Y-77355050D01*
X155510946Y-77359516D01*
X155561742Y-77407491D01*
X155578536Y-77475312D01*
X155555998Y-77541447D01*
X155510946Y-77580484D01*
X155502182Y-77584949D01*
X155330213Y-77709890D01*
X155179890Y-77860213D01*
X155054951Y-78032179D01*
X154958444Y-78221585D01*
X154892753Y-78423760D01*
X154859500Y-78633713D01*
X154859500Y-78846286D01*
X154880927Y-78981575D01*
X154892754Y-79056243D01*
X154906399Y-79098239D01*
X154958444Y-79258414D01*
X155054951Y-79447820D01*
X155179890Y-79619786D01*
X155330213Y-79770109D01*
X155502182Y-79895050D01*
X155510946Y-79899516D01*
X155561742Y-79947491D01*
X155578536Y-80015312D01*
X155555998Y-80081447D01*
X155510946Y-80120484D01*
X155502182Y-80124949D01*
X155330213Y-80249890D01*
X155179890Y-80400213D01*
X155054951Y-80572179D01*
X154958444Y-80761585D01*
X154892753Y-80963760D01*
X154863823Y-81146418D01*
X154859500Y-81173713D01*
X154859500Y-81386287D01*
X154892754Y-81596243D01*
X154933647Y-81722099D01*
X154958444Y-81798414D01*
X155054951Y-81987820D01*
X155179890Y-82159786D01*
X155330213Y-82310109D01*
X155502182Y-82435050D01*
X155510946Y-82439516D01*
X155561742Y-82487491D01*
X155578536Y-82555312D01*
X155555998Y-82621447D01*
X155510946Y-82660484D01*
X155502182Y-82664949D01*
X155330213Y-82789890D01*
X155179890Y-82940213D01*
X155054951Y-83112179D01*
X154958444Y-83301585D01*
X154958443Y-83301587D01*
X154958443Y-83301588D01*
X154947981Y-83333786D01*
X154892753Y-83503760D01*
X154859500Y-83713713D01*
X154859500Y-83926287D01*
X154892754Y-84136243D01*
X154953506Y-84323219D01*
X154958444Y-84338414D01*
X155054951Y-84527820D01*
X155179890Y-84699786D01*
X155330213Y-84850109D01*
X155502182Y-84975050D01*
X155510946Y-84979516D01*
X155561742Y-85027491D01*
X155578536Y-85095312D01*
X155555998Y-85161447D01*
X155510946Y-85200484D01*
X155502182Y-85204949D01*
X155330213Y-85329890D01*
X155179890Y-85480213D01*
X155054951Y-85652179D01*
X154958444Y-85841585D01*
X154892753Y-86043760D01*
X154859500Y-86253713D01*
X154859500Y-86466286D01*
X154892753Y-86676239D01*
X154958444Y-86878414D01*
X155054951Y-87067820D01*
X155179890Y-87239786D01*
X155330213Y-87390109D01*
X155502182Y-87515050D01*
X155510946Y-87519516D01*
X155561742Y-87567491D01*
X155578536Y-87635312D01*
X155555998Y-87701447D01*
X155510946Y-87740484D01*
X155502182Y-87744949D01*
X155330213Y-87869890D01*
X155179890Y-88020213D01*
X155054951Y-88192179D01*
X154958444Y-88381585D01*
X154892753Y-88583760D01*
X154859799Y-88791828D01*
X154859500Y-88793713D01*
X154859500Y-89006287D01*
X154861131Y-89016584D01*
X154889144Y-89193455D01*
X154892754Y-89216243D01*
X154914836Y-89284205D01*
X154958444Y-89418414D01*
X155054951Y-89607820D01*
X155179890Y-89779786D01*
X155330213Y-89930109D01*
X155502182Y-90055050D01*
X155510946Y-90059516D01*
X155561742Y-90107491D01*
X155578536Y-90175312D01*
X155555998Y-90241447D01*
X155510946Y-90280484D01*
X155502182Y-90284949D01*
X155330213Y-90409890D01*
X155179890Y-90560213D01*
X155054951Y-90732179D01*
X154958444Y-90921585D01*
X154892753Y-91123760D01*
X154859500Y-91333713D01*
X154859500Y-91546286D01*
X154892002Y-91751499D01*
X154892754Y-91756243D01*
X154903013Y-91787818D01*
X154958444Y-91958414D01*
X155054951Y-92147820D01*
X155179890Y-92319786D01*
X155330213Y-92470109D01*
X155502182Y-92595050D01*
X155510946Y-92599516D01*
X155561742Y-92647491D01*
X155578536Y-92715312D01*
X155555998Y-92781447D01*
X155510946Y-92820484D01*
X155502182Y-92824949D01*
X155330213Y-92949890D01*
X155179890Y-93100213D01*
X155054951Y-93272179D01*
X154958444Y-93461585D01*
X154892753Y-93663760D01*
X154864528Y-93841968D01*
X154859500Y-93873713D01*
X154859500Y-94086287D01*
X154860979Y-94095622D01*
X154891923Y-94291000D01*
X154892754Y-94296243D01*
X154957462Y-94495394D01*
X154958444Y-94498414D01*
X155054951Y-94687820D01*
X155179890Y-94859786D01*
X155330213Y-95010109D01*
X155502182Y-95135050D01*
X155510946Y-95139516D01*
X155561742Y-95187491D01*
X155578536Y-95255312D01*
X155555998Y-95321447D01*
X155510946Y-95360484D01*
X155502182Y-95364949D01*
X155330213Y-95489890D01*
X155179890Y-95640213D01*
X155054951Y-95812179D01*
X154958444Y-96001585D01*
X154892753Y-96203760D01*
X154863611Y-96387756D01*
X154859500Y-96413713D01*
X154859500Y-96626287D01*
X154869534Y-96689644D01*
X154892753Y-96836239D01*
X154958444Y-97038414D01*
X155054951Y-97227820D01*
X155179890Y-97399786D01*
X155330213Y-97550109D01*
X155502182Y-97675050D01*
X155510946Y-97679516D01*
X155561742Y-97727491D01*
X155578536Y-97795312D01*
X155555998Y-97861447D01*
X155510946Y-97900484D01*
X155502182Y-97904949D01*
X155330213Y-98029890D01*
X155179890Y-98180213D01*
X155054951Y-98352179D01*
X154958444Y-98541585D01*
X154892753Y-98743760D01*
X154859500Y-98953713D01*
X154859500Y-99166286D01*
X154881863Y-99307484D01*
X154892754Y-99376243D01*
X154922171Y-99466780D01*
X154958444Y-99578414D01*
X155054951Y-99767820D01*
X155179890Y-99939786D01*
X155330213Y-100090109D01*
X155502182Y-100215050D01*
X155510946Y-100219516D01*
X155561742Y-100267491D01*
X155578536Y-100335312D01*
X155555998Y-100401447D01*
X155510946Y-100440484D01*
X155502182Y-100444949D01*
X155330213Y-100569890D01*
X155179890Y-100720213D01*
X155054951Y-100892179D01*
X154958444Y-101081585D01*
X154892753Y-101283760D01*
X154863611Y-101467756D01*
X154859500Y-101493713D01*
X154859500Y-101706287D01*
X154869534Y-101769644D01*
X154892753Y-101916239D01*
X154892753Y-101916241D01*
X154892754Y-101916243D01*
X154910837Y-101971898D01*
X154958444Y-102118414D01*
X155054951Y-102307820D01*
X155179890Y-102479786D01*
X155330213Y-102630109D01*
X155502182Y-102755050D01*
X155510946Y-102759516D01*
X155561742Y-102807491D01*
X155578536Y-102875312D01*
X155555998Y-102941447D01*
X155510946Y-102980484D01*
X155502182Y-102984949D01*
X155330213Y-103109890D01*
X155179890Y-103260213D01*
X155054951Y-103432179D01*
X154958444Y-103621585D01*
X154892753Y-103823760D01*
X154859500Y-104033713D01*
X154859500Y-104246286D01*
X154889185Y-104433713D01*
X154892754Y-104456243D01*
X154954503Y-104646287D01*
X154958444Y-104658414D01*
X155054951Y-104847820D01*
X155179890Y-105019786D01*
X155330213Y-105170109D01*
X155502182Y-105295050D01*
X155510946Y-105299516D01*
X155561742Y-105347491D01*
X155578536Y-105415312D01*
X155555998Y-105481447D01*
X155510946Y-105520484D01*
X155502182Y-105524949D01*
X155330213Y-105649890D01*
X155179890Y-105800213D01*
X155054951Y-105972179D01*
X154958444Y-106161585D01*
X154892753Y-106363760D01*
X154885292Y-106410867D01*
X154859500Y-106573713D01*
X154859500Y-106786287D01*
X154869534Y-106849644D01*
X154892753Y-106996239D01*
X154892753Y-106996241D01*
X154892754Y-106996243D01*
X154954503Y-107186287D01*
X154958444Y-107198414D01*
X155054951Y-107387820D01*
X155179890Y-107559786D01*
X155330213Y-107710109D01*
X155502182Y-107835050D01*
X155510946Y-107839516D01*
X155561742Y-107887491D01*
X155578536Y-107955312D01*
X155555998Y-108021447D01*
X155510946Y-108060484D01*
X155502182Y-108064949D01*
X155330213Y-108189890D01*
X155179890Y-108340213D01*
X155054951Y-108512179D01*
X154958444Y-108701585D01*
X154892753Y-108903760D01*
X154859500Y-109113713D01*
X154859500Y-109326286D01*
X154889185Y-109513713D01*
X154892754Y-109536243D01*
X154954503Y-109726287D01*
X154958444Y-109738414D01*
X155054951Y-109927820D01*
X155179890Y-110099786D01*
X155330213Y-110250109D01*
X155502182Y-110375050D01*
X155510946Y-110379516D01*
X155561742Y-110427491D01*
X155578536Y-110495312D01*
X155555998Y-110561447D01*
X155510946Y-110600484D01*
X155502182Y-110604949D01*
X155330213Y-110729890D01*
X155179890Y-110880213D01*
X155054951Y-111052179D01*
X154958444Y-111241585D01*
X154958443Y-111241587D01*
X154958443Y-111241588D01*
X154946501Y-111278342D01*
X154892753Y-111443760D01*
X154859500Y-111653713D01*
X154859500Y-111866286D01*
X154892385Y-112073918D01*
X154892754Y-112076243D01*
X154954503Y-112266287D01*
X154958444Y-112278414D01*
X155054951Y-112467820D01*
X155179890Y-112639786D01*
X155330213Y-112790109D01*
X155502179Y-112915048D01*
X155502181Y-112915049D01*
X155502184Y-112915051D01*
X155511493Y-112919794D01*
X155562290Y-112967766D01*
X155579087Y-113035587D01*
X155556552Y-113101722D01*
X155511505Y-113140760D01*
X155502446Y-113145376D01*
X155502440Y-113145380D01*
X155448282Y-113184727D01*
X155448282Y-113184728D01*
X156080591Y-113817037D01*
X156017007Y-113834075D01*
X155902993Y-113899901D01*
X155809901Y-113992993D01*
X155744075Y-114107007D01*
X155727037Y-114170591D01*
X155094728Y-113538282D01*
X155094727Y-113538282D01*
X155055380Y-113592439D01*
X154958904Y-113781782D01*
X154893242Y-113983869D01*
X154893242Y-113983872D01*
X154860000Y-114193753D01*
X154860000Y-114406246D01*
X154893242Y-114616127D01*
X154893242Y-114616130D01*
X154958904Y-114818217D01*
X155055375Y-115007550D01*
X155094728Y-115061716D01*
X155727037Y-114429408D01*
X155744075Y-114492993D01*
X155809901Y-114607007D01*
X155902993Y-114700099D01*
X156017007Y-114765925D01*
X156080590Y-114782962D01*
X155448282Y-115415269D01*
X155448282Y-115415270D01*
X155502449Y-115454624D01*
X155691782Y-115551095D01*
X155893870Y-115616757D01*
X156103754Y-115650000D01*
X156316246Y-115650000D01*
X156526127Y-115616757D01*
X156526130Y-115616757D01*
X156728217Y-115551095D01*
X156917554Y-115454622D01*
X156971716Y-115415270D01*
X156971717Y-115415270D01*
X156339408Y-114782962D01*
X156402993Y-114765925D01*
X156517007Y-114700099D01*
X156610099Y-114607007D01*
X156675925Y-114492993D01*
X156692962Y-114429408D01*
X157325270Y-115061717D01*
X157325270Y-115061716D01*
X157364622Y-115007554D01*
X157461095Y-114818217D01*
X157526757Y-114616130D01*
X157526757Y-114616127D01*
X157554044Y-114443849D01*
X157583973Y-114380714D01*
X157643285Y-114343783D01*
X157713147Y-114344781D01*
X157764198Y-114375566D01*
X159469117Y-116080484D01*
X161107048Y-117718415D01*
X161107049Y-117718416D01*
X161211584Y-117822951D01*
X161211585Y-117822952D01*
X161334498Y-117905080D01*
X161334511Y-117905087D01*
X161437669Y-117947816D01*
X161471087Y-117961658D01*
X161471091Y-117961658D01*
X161471092Y-117961659D01*
X161616079Y-117990500D01*
X161616082Y-117990500D01*
X167812779Y-117990500D01*
X167879818Y-118010185D01*
X167913097Y-118041615D01*
X167969892Y-118119788D01*
X168120213Y-118270109D01*
X168292182Y-118395050D01*
X168300946Y-118399516D01*
X168351742Y-118447491D01*
X168368536Y-118515312D01*
X168345998Y-118581447D01*
X168300946Y-118620484D01*
X168292182Y-118624949D01*
X168120213Y-118749890D01*
X167969890Y-118900213D01*
X167844951Y-119072179D01*
X167748444Y-119261585D01*
X167682753Y-119463760D01*
X167649500Y-119673713D01*
X167649500Y-119886292D01*
X167664616Y-119981728D01*
X167655662Y-120051021D01*
X167629824Y-120088807D01*
X163300451Y-124418181D01*
X163239128Y-124451666D01*
X163212770Y-124454500D01*
X162397229Y-124454500D01*
X162330190Y-124434815D01*
X162309548Y-124418181D01*
X152167929Y-114276562D01*
X147217654Y-109326287D01*
X132180175Y-94288807D01*
X132146690Y-94227484D01*
X132145383Y-94181728D01*
X132159021Y-94095622D01*
X132160500Y-94086287D01*
X132160500Y-93873713D01*
X132127246Y-93663757D01*
X132061557Y-93461588D01*
X131965051Y-93272184D01*
X131965049Y-93272181D01*
X131965048Y-93272179D01*
X131840109Y-93100213D01*
X131689786Y-92949890D01*
X131517820Y-92824951D01*
X131517115Y-92824591D01*
X131509054Y-92820485D01*
X131458259Y-92772512D01*
X131441463Y-92704692D01*
X131463999Y-92638556D01*
X131509054Y-92599515D01*
X131517816Y-92595051D01*
X131592348Y-92540901D01*
X131689786Y-92470109D01*
X131689788Y-92470106D01*
X131689792Y-92470104D01*
X131840104Y-92319792D01*
X131840106Y-92319788D01*
X131840109Y-92319786D01*
X131965048Y-92147820D01*
X131965047Y-92147820D01*
X131965051Y-92147816D01*
X132061557Y-91958412D01*
X132127246Y-91756243D01*
X132160500Y-91546287D01*
X132160500Y-91333713D01*
X132127246Y-91123757D01*
X132061557Y-90921588D01*
X131965051Y-90732184D01*
X131965049Y-90732181D01*
X131965048Y-90732179D01*
X131840109Y-90560213D01*
X131689786Y-90409890D01*
X131517820Y-90284951D01*
X131517115Y-90284591D01*
X131509054Y-90280485D01*
X131458259Y-90232512D01*
X131441463Y-90164692D01*
X131463999Y-90098556D01*
X131509054Y-90059515D01*
X131517816Y-90055051D01*
X131539789Y-90039086D01*
X131689786Y-89930109D01*
X131689788Y-89930106D01*
X131689792Y-89930104D01*
X131840104Y-89779792D01*
X131840106Y-89779788D01*
X131840109Y-89779786D01*
X131965048Y-89607820D01*
X131965047Y-89607820D01*
X131965051Y-89607816D01*
X132061557Y-89418412D01*
X132127246Y-89216243D01*
X132160500Y-89006287D01*
X132160500Y-88793713D01*
X132127246Y-88583757D01*
X132061557Y-88381588D01*
X131965051Y-88192184D01*
X131965049Y-88192181D01*
X131965048Y-88192179D01*
X131840109Y-88020213D01*
X131689786Y-87869890D01*
X131517820Y-87744951D01*
X131517115Y-87744591D01*
X131509054Y-87740485D01*
X131458259Y-87692512D01*
X131441463Y-87624692D01*
X131463999Y-87558556D01*
X131509054Y-87519515D01*
X131517816Y-87515051D01*
X131539789Y-87499086D01*
X131689786Y-87390109D01*
X131689788Y-87390106D01*
X131689792Y-87390104D01*
X131840104Y-87239792D01*
X131840106Y-87239788D01*
X131840109Y-87239786D01*
X131965048Y-87067820D01*
X131965047Y-87067820D01*
X131965051Y-87067816D01*
X132061557Y-86878412D01*
X132127246Y-86676243D01*
X132160500Y-86466287D01*
X132160500Y-86253713D01*
X132127246Y-86043757D01*
X132061557Y-85841588D01*
X131965051Y-85652184D01*
X131965049Y-85652181D01*
X131965048Y-85652179D01*
X131840109Y-85480213D01*
X131689786Y-85329890D01*
X131517820Y-85204951D01*
X131517115Y-85204591D01*
X131509054Y-85200485D01*
X131458259Y-85152512D01*
X131441463Y-85084692D01*
X131463999Y-85018556D01*
X131509054Y-84979515D01*
X131517816Y-84975051D01*
X131672575Y-84862613D01*
X131689786Y-84850109D01*
X131689788Y-84850106D01*
X131689792Y-84850104D01*
X131840104Y-84699792D01*
X131840106Y-84699788D01*
X131840109Y-84699786D01*
X131965048Y-84527820D01*
X131965047Y-84527820D01*
X131965051Y-84527816D01*
X132061557Y-84338412D01*
X132127246Y-84136243D01*
X132160500Y-83926287D01*
X132160500Y-83713713D01*
X132127246Y-83503757D01*
X132061557Y-83301588D01*
X131965051Y-83112184D01*
X131965049Y-83112181D01*
X131965048Y-83112179D01*
X131840109Y-82940213D01*
X131689786Y-82789890D01*
X131517820Y-82664951D01*
X131517115Y-82664591D01*
X131509054Y-82660485D01*
X131458259Y-82612512D01*
X131441463Y-82544692D01*
X131463999Y-82478556D01*
X131509054Y-82439515D01*
X131517816Y-82435051D01*
X131597487Y-82377167D01*
X131689786Y-82310109D01*
X131689788Y-82310106D01*
X131689792Y-82310104D01*
X131840104Y-82159792D01*
X131840106Y-82159788D01*
X131840109Y-82159786D01*
X131965048Y-81987820D01*
X131965050Y-81987817D01*
X131965051Y-81987816D01*
X132061557Y-81798412D01*
X132127246Y-81596243D01*
X132160500Y-81386287D01*
X132160500Y-81173713D01*
X132127246Y-80963757D01*
X132061557Y-80761588D01*
X131965051Y-80572184D01*
X131965049Y-80572181D01*
X131965048Y-80572179D01*
X131840109Y-80400213D01*
X131689786Y-80249890D01*
X131517820Y-80124951D01*
X131515408Y-80123722D01*
X131509054Y-80120485D01*
X131458259Y-80072512D01*
X131441463Y-80004692D01*
X131463999Y-79938556D01*
X131509054Y-79899515D01*
X131517816Y-79895051D01*
X131633085Y-79811304D01*
X131689786Y-79770109D01*
X131689788Y-79770106D01*
X131689792Y-79770104D01*
X131840104Y-79619792D01*
X131840106Y-79619788D01*
X131840109Y-79619786D01*
X131965048Y-79447820D01*
X131965047Y-79447820D01*
X131965051Y-79447816D01*
X132061557Y-79258412D01*
X132127246Y-79056243D01*
X132160500Y-78846287D01*
X132160500Y-78633713D01*
X132127246Y-78423757D01*
X132061557Y-78221588D01*
X131965051Y-78032184D01*
X131965049Y-78032181D01*
X131965048Y-78032179D01*
X131840109Y-77860213D01*
X131689786Y-77709890D01*
X131517820Y-77584951D01*
X131517115Y-77584591D01*
X131509054Y-77580485D01*
X131458259Y-77532512D01*
X131441463Y-77464692D01*
X131463999Y-77398556D01*
X131509054Y-77359515D01*
X131517816Y-77355051D01*
X131539789Y-77339086D01*
X131689786Y-77230109D01*
X131689788Y-77230106D01*
X131689792Y-77230104D01*
X131840104Y-77079792D01*
X131840106Y-77079788D01*
X131840109Y-77079786D01*
X131965048Y-76907820D01*
X131965047Y-76907820D01*
X131965051Y-76907816D01*
X132061557Y-76718412D01*
X132127246Y-76516243D01*
X132160500Y-76306287D01*
X132160500Y-76093713D01*
X132127246Y-75883757D01*
X132061557Y-75681588D01*
X131965051Y-75492184D01*
X131965049Y-75492181D01*
X131965048Y-75492179D01*
X131840109Y-75320213D01*
X131689786Y-75169890D01*
X131517820Y-75044951D01*
X131517115Y-75044591D01*
X131509054Y-75040485D01*
X131458259Y-74992512D01*
X131441463Y-74924692D01*
X131463999Y-74858556D01*
X131509054Y-74819515D01*
X131517816Y-74815051D01*
X131574214Y-74774076D01*
X131689786Y-74690109D01*
X131689788Y-74690106D01*
X131689792Y-74690104D01*
X131840104Y-74539792D01*
X131840106Y-74539788D01*
X131840109Y-74539786D01*
X131965048Y-74367820D01*
X131965050Y-74367817D01*
X131965051Y-74367816D01*
X132061557Y-74178412D01*
X132127246Y-73976243D01*
X132160500Y-73766287D01*
X132160500Y-73553713D01*
X132127246Y-73343757D01*
X132061557Y-73141588D01*
X131965051Y-72952184D01*
X131965049Y-72952181D01*
X131965048Y-72952179D01*
X131840109Y-72780213D01*
X131689786Y-72629890D01*
X131517820Y-72504951D01*
X131517115Y-72504591D01*
X131509054Y-72500485D01*
X131458259Y-72452512D01*
X131441463Y-72384692D01*
X131463999Y-72318556D01*
X131509054Y-72279515D01*
X131517816Y-72275051D01*
X131639953Y-72186314D01*
X131689786Y-72150109D01*
X131689788Y-72150106D01*
X131689792Y-72150104D01*
X131840104Y-71999792D01*
X131840106Y-71999788D01*
X131840109Y-71999786D01*
X131965048Y-71827820D01*
X131965047Y-71827820D01*
X131965051Y-71827816D01*
X132061557Y-71638412D01*
X132127246Y-71436243D01*
X132160500Y-71226287D01*
X132160500Y-71013713D01*
X132127246Y-70803757D01*
X132061557Y-70601588D01*
X131965051Y-70412184D01*
X131965049Y-70412181D01*
X131965048Y-70412179D01*
X131840109Y-70240213D01*
X131689786Y-70089890D01*
X131517820Y-69964951D01*
X131517115Y-69964591D01*
X131509054Y-69960485D01*
X131458259Y-69912512D01*
X131441463Y-69844692D01*
X131463999Y-69778556D01*
X131509054Y-69739515D01*
X131517816Y-69735051D01*
X131631052Y-69652781D01*
X131689786Y-69610109D01*
X131689788Y-69610106D01*
X131689792Y-69610104D01*
X131840104Y-69459792D01*
X131840106Y-69459788D01*
X131840109Y-69459786D01*
X131965048Y-69287820D01*
X131965047Y-69287820D01*
X131965051Y-69287816D01*
X132061557Y-69098412D01*
X132127246Y-68896243D01*
X132160500Y-68686287D01*
X132160500Y-68473713D01*
X132127246Y-68263757D01*
X132061557Y-68061588D01*
X131965051Y-67872184D01*
X131965049Y-67872181D01*
X131965048Y-67872179D01*
X131840109Y-67700213D01*
X131726569Y-67586673D01*
X131693084Y-67525350D01*
X131698068Y-67455658D01*
X131739940Y-67399725D01*
X131770915Y-67382810D01*
X131902331Y-67333796D01*
X132017546Y-67247546D01*
X132103796Y-67132331D01*
X132154091Y-66997483D01*
X132160500Y-66937873D01*
X132160499Y-66155781D01*
X132180183Y-66088743D01*
X132196818Y-66068101D01*
X132978102Y-65286819D01*
X133039425Y-65253334D01*
X133065783Y-65250500D01*
X154735500Y-65250500D01*
X154802539Y-65270185D01*
G37*
%TD.AperFunction*%
%TA.AperFunction,Conductor*%
G36*
X165701112Y-70005185D02*
G01*
X165746867Y-70057989D01*
X165756811Y-70127147D01*
X165752004Y-70147818D01*
X165736523Y-70195461D01*
X165736523Y-70195464D01*
X165704500Y-70397648D01*
X165704500Y-70602351D01*
X165736522Y-70804534D01*
X165799781Y-70999223D01*
X165892715Y-71181613D01*
X166013028Y-71347213D01*
X166157786Y-71491971D01*
X166302744Y-71597287D01*
X166323390Y-71612287D01*
X166439607Y-71671503D01*
X166505776Y-71705218D01*
X166505778Y-71705218D01*
X166505781Y-71705220D01*
X166610137Y-71739127D01*
X166700465Y-71768477D01*
X166784564Y-71781797D01*
X166902648Y-71800500D01*
X166902649Y-71800500D01*
X167107350Y-71800500D01*
X167107352Y-71800500D01*
X167163026Y-71791681D01*
X167232318Y-71800635D01*
X167270105Y-71826473D01*
X167431780Y-71988148D01*
X167465265Y-72049471D01*
X167460281Y-72119163D01*
X167418409Y-72175096D01*
X167400394Y-72186314D01*
X167247644Y-72264143D01*
X167203077Y-72296523D01*
X167203077Y-72296524D01*
X167882554Y-72976000D01*
X167876339Y-72976000D01*
X167774606Y-73003259D01*
X167683394Y-73055920D01*
X167608920Y-73130394D01*
X167556259Y-73221606D01*
X167529000Y-73323339D01*
X167529000Y-73329553D01*
X166849524Y-72650077D01*
X166849523Y-72650077D01*
X166817143Y-72694644D01*
X166724244Y-72876968D01*
X166661009Y-73071582D01*
X166629000Y-73273682D01*
X166629000Y-73478317D01*
X166661009Y-73680417D01*
X166724244Y-73875031D01*
X166817141Y-74057350D01*
X166817147Y-74057359D01*
X166849523Y-74101921D01*
X166849524Y-74101922D01*
X167529000Y-73422446D01*
X167529000Y-73428661D01*
X167556259Y-73530394D01*
X167608920Y-73621606D01*
X167683394Y-73696080D01*
X167774606Y-73748741D01*
X167876339Y-73776000D01*
X167882553Y-73776000D01*
X167203076Y-74455474D01*
X167247650Y-74487859D01*
X167429968Y-74580755D01*
X167624582Y-74643990D01*
X167826683Y-74676000D01*
X168031317Y-74676000D01*
X168233417Y-74643990D01*
X168428031Y-74580755D01*
X168610349Y-74487859D01*
X168654921Y-74455474D01*
X167975447Y-73776000D01*
X167981661Y-73776000D01*
X168083394Y-73748741D01*
X168174606Y-73696080D01*
X168249080Y-73621606D01*
X168301741Y-73530394D01*
X168329000Y-73428661D01*
X168329000Y-73422446D01*
X169008474Y-74101921D01*
X169040861Y-74057347D01*
X169040861Y-74057346D01*
X169088234Y-73964371D01*
X169136208Y-73913575D01*
X169204028Y-73896779D01*
X169270164Y-73919316D01*
X169309203Y-73964369D01*
X169356713Y-74057611D01*
X169477028Y-74223213D01*
X169621786Y-74367971D01*
X169738934Y-74453082D01*
X169787390Y-74488287D01*
X169888474Y-74539792D01*
X169969776Y-74581218D01*
X169969778Y-74581218D01*
X169969781Y-74581220D01*
X170060856Y-74610812D01*
X170164465Y-74644477D01*
X170248564Y-74657797D01*
X170366648Y-74676500D01*
X170366649Y-74676500D01*
X170571350Y-74676500D01*
X170571352Y-74676500D01*
X170627027Y-74667681D01*
X170696319Y-74676635D01*
X170734106Y-74702473D01*
X170972181Y-74940548D01*
X171005666Y-75001871D01*
X171008500Y-75028229D01*
X171008500Y-79633721D01*
X170988815Y-79700760D01*
X170936011Y-79746515D01*
X170866853Y-79756459D01*
X170846182Y-79751652D01*
X170773420Y-79728010D01*
X170571317Y-79696000D01*
X170366683Y-79696000D01*
X170164582Y-79728009D01*
X169969968Y-79791244D01*
X169787644Y-79884143D01*
X169743077Y-79916523D01*
X169743077Y-79916524D01*
X170422553Y-80596000D01*
X170416339Y-80596000D01*
X170314606Y-80623259D01*
X170223394Y-80675920D01*
X170148920Y-80750394D01*
X170096259Y-80841606D01*
X170069000Y-80943339D01*
X170069000Y-80949553D01*
X169389524Y-80270077D01*
X169389523Y-80270077D01*
X169357143Y-80314644D01*
X169309485Y-80408180D01*
X169261510Y-80458976D01*
X169193689Y-80475771D01*
X169127554Y-80453233D01*
X169088515Y-80408180D01*
X169040859Y-80314650D01*
X169008474Y-80270077D01*
X169008474Y-80270076D01*
X168329000Y-80949551D01*
X168329000Y-80943339D01*
X168301741Y-80841606D01*
X168249080Y-80750394D01*
X168174606Y-80675920D01*
X168083394Y-80623259D01*
X167981661Y-80596000D01*
X167975446Y-80596000D01*
X168654922Y-79916524D01*
X168654921Y-79916523D01*
X168610359Y-79884147D01*
X168610350Y-79884141D01*
X168428031Y-79791244D01*
X168233417Y-79728009D01*
X168031317Y-79696000D01*
X167826683Y-79696000D01*
X167624582Y-79728009D01*
X167429968Y-79791244D01*
X167247644Y-79884143D01*
X167203077Y-79916523D01*
X167203077Y-79916524D01*
X167882554Y-80596000D01*
X167876339Y-80596000D01*
X167774606Y-80623259D01*
X167683394Y-80675920D01*
X167608920Y-80750394D01*
X167556259Y-80841606D01*
X167529000Y-80943339D01*
X167529000Y-80949553D01*
X166849524Y-80270077D01*
X166849523Y-80270077D01*
X166817143Y-80314644D01*
X166724244Y-80496968D01*
X166661009Y-80691582D01*
X166629000Y-80893682D01*
X166629000Y-81098317D01*
X166661009Y-81300417D01*
X166724244Y-81495031D01*
X166817141Y-81677350D01*
X166817147Y-81677359D01*
X166849523Y-81721921D01*
X166849524Y-81721922D01*
X167529000Y-81042446D01*
X167529000Y-81048661D01*
X167556259Y-81150394D01*
X167608920Y-81241606D01*
X167683394Y-81316080D01*
X167774606Y-81368741D01*
X167876339Y-81396000D01*
X167882553Y-81396000D01*
X167203076Y-82075474D01*
X167247650Y-82107859D01*
X167429968Y-82200755D01*
X167624582Y-82263990D01*
X167826683Y-82296000D01*
X168031317Y-82296000D01*
X168233417Y-82263990D01*
X168428031Y-82200755D01*
X168610349Y-82107859D01*
X168654921Y-82075474D01*
X167975447Y-81396000D01*
X167981661Y-81396000D01*
X168083394Y-81368741D01*
X168174606Y-81316080D01*
X168249080Y-81241606D01*
X168301741Y-81150394D01*
X168329000Y-81048661D01*
X168329000Y-81042448D01*
X169008474Y-81721922D01*
X169008474Y-81721921D01*
X169040861Y-81677347D01*
X169040861Y-81677346D01*
X169088515Y-81583820D01*
X169136489Y-81533024D01*
X169204310Y-81516228D01*
X169270445Y-81538765D01*
X169309485Y-81583819D01*
X169357141Y-81677350D01*
X169357147Y-81677359D01*
X169389523Y-81721921D01*
X169389524Y-81721922D01*
X170069000Y-81042446D01*
X170069000Y-81048661D01*
X170096259Y-81150394D01*
X170148920Y-81241606D01*
X170223394Y-81316080D01*
X170314606Y-81368741D01*
X170416339Y-81396000D01*
X170422552Y-81396000D01*
X169743076Y-82075474D01*
X169787650Y-82107859D01*
X169969968Y-82200755D01*
X170164582Y-82263990D01*
X170366683Y-82296000D01*
X170571317Y-82296000D01*
X170773417Y-82263990D01*
X170846181Y-82240347D01*
X170916022Y-82238351D01*
X170975855Y-82274431D01*
X171006684Y-82337132D01*
X171008500Y-82358278D01*
X171008500Y-83306500D01*
X170988815Y-83373539D01*
X170936011Y-83419294D01*
X170884500Y-83430500D01*
X168130418Y-83430500D01*
X168063379Y-83410815D01*
X168030100Y-83379385D01*
X167996971Y-83333787D01*
X167996967Y-83333782D01*
X167852213Y-83189028D01*
X167686613Y-83068715D01*
X167686612Y-83068714D01*
X167686610Y-83068713D01*
X167629653Y-83039691D01*
X167504223Y-82975781D01*
X167309534Y-82912522D01*
X167134995Y-82884878D01*
X167107352Y-82880500D01*
X166902648Y-82880500D01*
X166878329Y-82884351D01*
X166700465Y-82912522D01*
X166505776Y-82975781D01*
X166323386Y-83068715D01*
X166157786Y-83189028D01*
X166013028Y-83333786D01*
X165892715Y-83499386D01*
X165799781Y-83681776D01*
X165736522Y-83876465D01*
X165704500Y-84078648D01*
X165704500Y-84283351D01*
X165736522Y-84485534D01*
X165799781Y-84680223D01*
X165847904Y-84774668D01*
X165892636Y-84862459D01*
X165892715Y-84862613D01*
X166013028Y-85028213D01*
X166157786Y-85172971D01*
X166299790Y-85276141D01*
X166323390Y-85293287D01*
X166413305Y-85339101D01*
X166505776Y-85386218D01*
X166505778Y-85386218D01*
X166505781Y-85386220D01*
X166610137Y-85420127D01*
X166700465Y-85449477D01*
X166801557Y-85465488D01*
X166902648Y-85481500D01*
X166902649Y-85481500D01*
X167107351Y-85481500D01*
X167107352Y-85481500D01*
X167309534Y-85449477D01*
X167504219Y-85386220D01*
X167686610Y-85293287D01*
X167808198Y-85204949D01*
X167852213Y-85172971D01*
X167852215Y-85172968D01*
X167852219Y-85172966D01*
X167996966Y-85028219D01*
X168003987Y-85018556D01*
X168030100Y-84982615D01*
X168085429Y-84939949D01*
X168130418Y-84931500D01*
X170959582Y-84931500D01*
X171026621Y-84951185D01*
X171059900Y-84982615D01*
X171093028Y-85028212D01*
X171093032Y-85028217D01*
X171237786Y-85172971D01*
X171379790Y-85276141D01*
X171403390Y-85293287D01*
X171493305Y-85339101D01*
X171585776Y-85386218D01*
X171585778Y-85386218D01*
X171585781Y-85386220D01*
X171690137Y-85420127D01*
X171780465Y-85449477D01*
X171881557Y-85465488D01*
X171982648Y-85481500D01*
X171982649Y-85481500D01*
X172187351Y-85481500D01*
X172187352Y-85481500D01*
X172389534Y-85449477D01*
X172584219Y-85386220D01*
X172766610Y-85293287D01*
X172888198Y-85204949D01*
X172932213Y-85172971D01*
X172932215Y-85172968D01*
X172932219Y-85172966D01*
X173076966Y-85028219D01*
X173076968Y-85028215D01*
X173076971Y-85028213D01*
X173170157Y-84899951D01*
X173197287Y-84862610D01*
X173290220Y-84680219D01*
X173353477Y-84485534D01*
X173385500Y-84283352D01*
X173385500Y-84078648D01*
X173353477Y-83876466D01*
X173290220Y-83681781D01*
X173290218Y-83681778D01*
X173290218Y-83681776D01*
X173252399Y-83607554D01*
X173197287Y-83499390D01*
X173180685Y-83476539D01*
X173076971Y-83333786D01*
X172932213Y-83189028D01*
X172766613Y-83068715D01*
X172766612Y-83068714D01*
X172766610Y-83068713D01*
X172584219Y-82975780D01*
X172579878Y-82973568D01*
X172580602Y-82972147D01*
X172531648Y-82932702D01*
X172509579Y-82866409D01*
X172509500Y-82861976D01*
X172509500Y-82371800D01*
X172529185Y-82304761D01*
X172581989Y-82259006D01*
X172651147Y-82249062D01*
X172671820Y-82253870D01*
X172704458Y-82264475D01*
X172704461Y-82264475D01*
X172704466Y-82264477D01*
X172906648Y-82296500D01*
X172906649Y-82296500D01*
X173111351Y-82296500D01*
X173111352Y-82296500D01*
X173313534Y-82264477D01*
X173386182Y-82240871D01*
X173456022Y-82238876D01*
X173515855Y-82274956D01*
X173546684Y-82337657D01*
X173548500Y-82358803D01*
X173548500Y-82520288D01*
X173548500Y-82520290D01*
X173548499Y-82520290D01*
X173577340Y-82665277D01*
X173577343Y-82665287D01*
X173633914Y-82801862D01*
X173666812Y-82851097D01*
X173666813Y-82851100D01*
X173716046Y-82924784D01*
X173716052Y-82924791D01*
X175074614Y-84283351D01*
X175450679Y-84659416D01*
X175555214Y-84763951D01*
X175559488Y-84766807D01*
X175567453Y-84774668D01*
X175581749Y-84800447D01*
X175598345Y-84824809D01*
X175598501Y-84830656D01*
X175601338Y-84835771D01*
X175599427Y-84865185D01*
X175600218Y-84894654D01*
X175597169Y-84899951D01*
X175596810Y-84905494D01*
X175584001Y-84922839D01*
X175568028Y-84950602D01*
X171502049Y-89016581D01*
X171460489Y-89078780D01*
X171460490Y-89078781D01*
X171419914Y-89139508D01*
X171363343Y-89276082D01*
X171363340Y-89276092D01*
X171334500Y-89421079D01*
X171334500Y-93215582D01*
X171314815Y-93282621D01*
X171283385Y-93315900D01*
X171237787Y-93349028D01*
X171237782Y-93349032D01*
X171093028Y-93493786D01*
X170972715Y-93659386D01*
X170879781Y-93841776D01*
X170816522Y-94036465D01*
X170784500Y-94238648D01*
X170784500Y-94443351D01*
X170816522Y-94645534D01*
X170879781Y-94840223D01*
X170943691Y-94965653D01*
X170972585Y-95022359D01*
X170972715Y-95022613D01*
X171093028Y-95188213D01*
X171237786Y-95332971D01*
X171358226Y-95420474D01*
X171403390Y-95453287D01*
X171519607Y-95512503D01*
X171585776Y-95546218D01*
X171585778Y-95546218D01*
X171585781Y-95546220D01*
X171690137Y-95580127D01*
X171780465Y-95609477D01*
X171881557Y-95625488D01*
X171982648Y-95641500D01*
X171982649Y-95641500D01*
X172187351Y-95641500D01*
X172187352Y-95641500D01*
X172389534Y-95609477D01*
X172584219Y-95546220D01*
X172766610Y-95453287D01*
X172888198Y-95364949D01*
X172932213Y-95332971D01*
X172932215Y-95332968D01*
X172932219Y-95332966D01*
X173076966Y-95188219D01*
X173076968Y-95188215D01*
X173076971Y-95188213D01*
X173129732Y-95115590D01*
X173197287Y-95022610D01*
X173290220Y-94840219D01*
X173353477Y-94645534D01*
X173385500Y-94443352D01*
X173385500Y-94238648D01*
X173362847Y-94095622D01*
X173353477Y-94036465D01*
X173300595Y-93873713D01*
X173290220Y-93841781D01*
X173290218Y-93841778D01*
X173290218Y-93841776D01*
X173219363Y-93702717D01*
X173197287Y-93659390D01*
X173165092Y-93615077D01*
X173076971Y-93493786D01*
X172932217Y-93349032D01*
X172932212Y-93349028D01*
X172886615Y-93315900D01*
X172843949Y-93260571D01*
X172835500Y-93215582D01*
X172835500Y-89857230D01*
X172855185Y-89790191D01*
X172871819Y-89769549D01*
X177123549Y-85517819D01*
X177184872Y-85484334D01*
X177211230Y-85481500D01*
X177267351Y-85481500D01*
X177267352Y-85481500D01*
X177469534Y-85449477D01*
X177664219Y-85386220D01*
X177846610Y-85293287D01*
X177968198Y-85204949D01*
X178012213Y-85172971D01*
X178012215Y-85172968D01*
X178012219Y-85172966D01*
X178156966Y-85028219D01*
X178156968Y-85028215D01*
X178156971Y-85028213D01*
X178250157Y-84899951D01*
X178277287Y-84862610D01*
X178370220Y-84680219D01*
X178433477Y-84485534D01*
X178465500Y-84283352D01*
X178465500Y-84078648D01*
X178433477Y-83876466D01*
X178370220Y-83681781D01*
X178370218Y-83681778D01*
X178370218Y-83681776D01*
X178332399Y-83607554D01*
X178277287Y-83499390D01*
X178260685Y-83476539D01*
X178156971Y-83333786D01*
X178012213Y-83189028D01*
X177846613Y-83068715D01*
X177846612Y-83068714D01*
X177846610Y-83068713D01*
X177789653Y-83039691D01*
X177664223Y-82975781D01*
X177469534Y-82912522D01*
X177294995Y-82884878D01*
X177267352Y-82880500D01*
X177062648Y-82880500D01*
X177038329Y-82884351D01*
X176860465Y-82912522D01*
X176665776Y-82975781D01*
X176483386Y-83068715D01*
X176317781Y-83189033D01*
X176317773Y-83189039D01*
X176298082Y-83208730D01*
X176236758Y-83242212D01*
X176167066Y-83237225D01*
X176122724Y-83208726D01*
X175775974Y-82861976D01*
X175422177Y-82508180D01*
X175388693Y-82446858D01*
X175393677Y-82377167D01*
X175435548Y-82321233D01*
X175501013Y-82296816D01*
X175509859Y-82296500D01*
X175651351Y-82296500D01*
X175651352Y-82296500D01*
X175853534Y-82264477D01*
X176048219Y-82201220D01*
X176230610Y-82108287D01*
X176351877Y-82020181D01*
X176417683Y-81996702D01*
X176424762Y-81996500D01*
X182609218Y-81996500D01*
X182676257Y-82016185D01*
X182696899Y-82032819D01*
X184554181Y-83890101D01*
X184587666Y-83951424D01*
X184590500Y-83977782D01*
X184590500Y-84759870D01*
X184590501Y-84759876D01*
X184596908Y-84819483D01*
X184647202Y-84954328D01*
X184647206Y-84954335D01*
X184733452Y-85069544D01*
X184733455Y-85069547D01*
X184848665Y-85155794D01*
X184848667Y-85155794D01*
X184848669Y-85155796D01*
X184859830Y-85159958D01*
X184915764Y-85201826D01*
X184940184Y-85267289D01*
X184940500Y-85276141D01*
X184940500Y-88093217D01*
X184920815Y-88160256D01*
X184904181Y-88180898D01*
X179780899Y-93304181D01*
X179719576Y-93337666D01*
X179693218Y-93340500D01*
X178040762Y-93340500D01*
X177973723Y-93320815D01*
X177967877Y-93316818D01*
X177966613Y-93315900D01*
X177873166Y-93248007D01*
X177846613Y-93228715D01*
X177846612Y-93228714D01*
X177846610Y-93228713D01*
X177789653Y-93199691D01*
X177664223Y-93135781D01*
X177469534Y-93072522D01*
X177294995Y-93044878D01*
X177267352Y-93040500D01*
X177062648Y-93040500D01*
X177038329Y-93044351D01*
X176860465Y-93072522D01*
X176665776Y-93135781D01*
X176483386Y-93228715D01*
X176317786Y-93349028D01*
X176173028Y-93493786D01*
X176052715Y-93659386D01*
X175959781Y-93841778D01*
X175896522Y-94036468D01*
X175873073Y-94184514D01*
X175843143Y-94247649D01*
X175838281Y-94252796D01*
X169477897Y-100613181D01*
X169416574Y-100646666D01*
X169390216Y-100649500D01*
X168102129Y-100649500D01*
X168102123Y-100649501D01*
X168042516Y-100655908D01*
X167907671Y-100706202D01*
X167907664Y-100706206D01*
X167792455Y-100792452D01*
X167792452Y-100792455D01*
X167706206Y-100907664D01*
X167706202Y-100907671D01*
X167655908Y-101042517D01*
X167650804Y-101089998D01*
X167649501Y-101102123D01*
X167649500Y-101102135D01*
X167649500Y-101884217D01*
X167629815Y-101951256D01*
X167613181Y-101971898D01*
X166812221Y-102772858D01*
X166812218Y-102772861D01*
X166742538Y-102842540D01*
X166672859Y-102912219D01*
X166563371Y-103076080D01*
X166563364Y-103076093D01*
X166517937Y-103185764D01*
X166517930Y-103185783D01*
X166516391Y-103189500D01*
X166487949Y-103258164D01*
X166481926Y-103288443D01*
X166480337Y-103296430D01*
X166480337Y-103296431D01*
X166449500Y-103451456D01*
X166449500Y-103451459D01*
X166449500Y-105628541D01*
X166462730Y-105695051D01*
X166487949Y-105821836D01*
X166510038Y-105875165D01*
X166513161Y-105882706D01*
X166513162Y-105882707D01*
X166563366Y-106003911D01*
X166563371Y-106003920D01*
X166672860Y-106167781D01*
X166672863Y-106167785D01*
X166816537Y-106311459D01*
X166816559Y-106311479D01*
X167613576Y-107108496D01*
X167647061Y-107169819D01*
X167649350Y-107185344D01*
X167654667Y-107218913D01*
X167682754Y-107396243D01*
X167743419Y-107582951D01*
X167748444Y-107598414D01*
X167844951Y-107787820D01*
X167969890Y-107959786D01*
X168120213Y-108110109D01*
X168292184Y-108235051D01*
X168296336Y-108237596D01*
X168295789Y-108238487D01*
X168342908Y-108282986D01*
X168359705Y-108350806D01*
X168337170Y-108416942D01*
X168282456Y-108460395D01*
X168235819Y-108469500D01*
X162372637Y-108469500D01*
X162305598Y-108449815D01*
X162259843Y-108397011D01*
X162250209Y-108330013D01*
X162249903Y-108329983D01*
X162250025Y-108328735D01*
X162249899Y-108327853D01*
X162250402Y-108324912D01*
X162250500Y-108323920D01*
X162250500Y-108176079D01*
X162221659Y-108031092D01*
X162221658Y-108031091D01*
X162221658Y-108031087D01*
X162192127Y-107959792D01*
X162165087Y-107894511D01*
X162165080Y-107894498D01*
X162082951Y-107771584D01*
X162082948Y-107771580D01*
X161978419Y-107667051D01*
X161978415Y-107667048D01*
X161855501Y-107584919D01*
X161855488Y-107584912D01*
X161718917Y-107528343D01*
X161718907Y-107528340D01*
X161573920Y-107499500D01*
X161573918Y-107499500D01*
X160682230Y-107499500D01*
X160615191Y-107479815D01*
X160594549Y-107463181D01*
X157580175Y-104448807D01*
X157546690Y-104387484D01*
X157545383Y-104341728D01*
X157560500Y-104246285D01*
X157560500Y-104033713D01*
X157541293Y-103912445D01*
X157527246Y-103823757D01*
X157461557Y-103621588D01*
X157365051Y-103432184D01*
X157365049Y-103432181D01*
X157365048Y-103432179D01*
X157240109Y-103260213D01*
X157089786Y-103109890D01*
X156917820Y-102984951D01*
X156917115Y-102984591D01*
X156909054Y-102980485D01*
X156858259Y-102932512D01*
X156841463Y-102864692D01*
X156863999Y-102798556D01*
X156909054Y-102759515D01*
X156917816Y-102755051D01*
X156939789Y-102739086D01*
X157089786Y-102630109D01*
X157089788Y-102630106D01*
X157089792Y-102630104D01*
X157240104Y-102479792D01*
X157240106Y-102479788D01*
X157240109Y-102479786D01*
X157365048Y-102307820D01*
X157365047Y-102307820D01*
X157365051Y-102307816D01*
X157461557Y-102118412D01*
X157527246Y-101916243D01*
X157554481Y-101744284D01*
X157584410Y-101681152D01*
X157643721Y-101644220D01*
X157713584Y-101645218D01*
X157764635Y-101676003D01*
X162463181Y-106374548D01*
X162496666Y-106435871D01*
X162499500Y-106462229D01*
X162499500Y-106926082D01*
X162499500Y-107073918D01*
X162499500Y-107073920D01*
X162499499Y-107073920D01*
X162528340Y-107218907D01*
X162528343Y-107218917D01*
X162584912Y-107355488D01*
X162584919Y-107355501D01*
X162667048Y-107478415D01*
X162667051Y-107478419D01*
X162771580Y-107582948D01*
X162771584Y-107582951D01*
X162894498Y-107665080D01*
X162894511Y-107665087D01*
X163003193Y-107710104D01*
X163031087Y-107721658D01*
X163031091Y-107721658D01*
X163031092Y-107721659D01*
X163176079Y-107750500D01*
X163176082Y-107750500D01*
X163323920Y-107750500D01*
X163421462Y-107731096D01*
X163468913Y-107721658D01*
X163600751Y-107667049D01*
X163605488Y-107665087D01*
X163605488Y-107665086D01*
X163605495Y-107665084D01*
X163728416Y-107582951D01*
X163832951Y-107478416D01*
X163915084Y-107355495D01*
X163971658Y-107218913D01*
X164000500Y-107073918D01*
X164000500Y-106926082D01*
X164000500Y-106026082D01*
X164000500Y-106026079D01*
X163971659Y-105881092D01*
X163971658Y-105881091D01*
X163971658Y-105881087D01*
X163949852Y-105828443D01*
X163915087Y-105744511D01*
X163915080Y-105744498D01*
X163832952Y-105621585D01*
X163781471Y-105570104D01*
X163728416Y-105517049D01*
X160683677Y-102472310D01*
X157580175Y-99368807D01*
X157546690Y-99307484D01*
X157545383Y-99261728D01*
X157560500Y-99166285D01*
X157560500Y-98953713D01*
X157527246Y-98743760D01*
X157527246Y-98743757D01*
X157461557Y-98541588D01*
X157365051Y-98352184D01*
X157365049Y-98352181D01*
X157365048Y-98352179D01*
X157240109Y-98180213D01*
X157089786Y-98029890D01*
X156917820Y-97904951D01*
X156917115Y-97904591D01*
X156909054Y-97900485D01*
X156858259Y-97852512D01*
X156841463Y-97784692D01*
X156863999Y-97718556D01*
X156909054Y-97679515D01*
X156917816Y-97675051D01*
X156939789Y-97659086D01*
X157089786Y-97550109D01*
X157089788Y-97550106D01*
X157089792Y-97550104D01*
X157240104Y-97399792D01*
X157240106Y-97399788D01*
X157240109Y-97399786D01*
X157365048Y-97227820D01*
X157365047Y-97227820D01*
X157365051Y-97227816D01*
X157461557Y-97038412D01*
X157527246Y-96836243D01*
X157560500Y-96626287D01*
X157560500Y-96413713D01*
X157527246Y-96203757D01*
X157461557Y-96001588D01*
X157365051Y-95812184D01*
X157365049Y-95812181D01*
X157365048Y-95812179D01*
X157240109Y-95640213D01*
X157089788Y-95489892D01*
X157068018Y-95474076D01*
X157068000Y-95474063D01*
X156917816Y-95364949D01*
X156901151Y-95356458D01*
X156893909Y-95351353D01*
X156877472Y-95330657D01*
X156858259Y-95312512D01*
X156856083Y-95303726D01*
X156850455Y-95296640D01*
X156847816Y-95270344D01*
X156841463Y-95244692D01*
X156844381Y-95236126D01*
X156843478Y-95227120D01*
X156855475Y-95203571D01*
X156863999Y-95178556D01*
X156871554Y-95172009D01*
X156875195Y-95164863D01*
X156889313Y-95156621D01*
X156909054Y-95139515D01*
X156917816Y-95135051D01*
X156941094Y-95118139D01*
X157089786Y-95010109D01*
X157089788Y-95010106D01*
X157089792Y-95010104D01*
X157240104Y-94859792D01*
X157240106Y-94859788D01*
X157240109Y-94859786D01*
X157365048Y-94687820D01*
X157365047Y-94687820D01*
X157365051Y-94687816D01*
X157461557Y-94498412D01*
X157527246Y-94296243D01*
X157536363Y-94238682D01*
X165705000Y-94238682D01*
X165705000Y-94443317D01*
X165737009Y-94645417D01*
X165800244Y-94840031D01*
X165893141Y-95022350D01*
X165893147Y-95022359D01*
X165925523Y-95066921D01*
X165925524Y-95066922D01*
X166605000Y-94387446D01*
X166605000Y-94393661D01*
X166632259Y-94495394D01*
X166684920Y-94586606D01*
X166759394Y-94661080D01*
X166850606Y-94713741D01*
X166952339Y-94741000D01*
X166958553Y-94741000D01*
X166279076Y-95420474D01*
X166323650Y-95452859D01*
X166505968Y-95545755D01*
X166700582Y-95608990D01*
X166902683Y-95641000D01*
X167107317Y-95641000D01*
X167309417Y-95608990D01*
X167504031Y-95545755D01*
X167686349Y-95452859D01*
X167730921Y-95420474D01*
X167051447Y-94741000D01*
X167057661Y-94741000D01*
X167159394Y-94713741D01*
X167250606Y-94661080D01*
X167325080Y-94586606D01*
X167377741Y-94495394D01*
X167405000Y-94393661D01*
X167405000Y-94387447D01*
X168084474Y-95066921D01*
X168116859Y-95022349D01*
X168209755Y-94840031D01*
X168272990Y-94645417D01*
X168305000Y-94443317D01*
X168305000Y-94238682D01*
X168272990Y-94036582D01*
X168209755Y-93841968D01*
X168116859Y-93659650D01*
X168084474Y-93615077D01*
X168084474Y-93615076D01*
X167405000Y-94294551D01*
X167405000Y-94288339D01*
X167377741Y-94186606D01*
X167325080Y-94095394D01*
X167250606Y-94020920D01*
X167159394Y-93968259D01*
X167057661Y-93941000D01*
X167051446Y-93941000D01*
X167730922Y-93261524D01*
X167730921Y-93261523D01*
X167686359Y-93229147D01*
X167686350Y-93229141D01*
X167504031Y-93136244D01*
X167309417Y-93073009D01*
X167107317Y-93041000D01*
X166902683Y-93041000D01*
X166700582Y-93073009D01*
X166505968Y-93136244D01*
X166323644Y-93229143D01*
X166279077Y-93261523D01*
X166279077Y-93261524D01*
X166958554Y-93941000D01*
X166952339Y-93941000D01*
X166850606Y-93968259D01*
X166759394Y-94020920D01*
X166684920Y-94095394D01*
X166632259Y-94186606D01*
X166605000Y-94288339D01*
X166605000Y-94294553D01*
X165925524Y-93615077D01*
X165925523Y-93615077D01*
X165893143Y-93659644D01*
X165800244Y-93841968D01*
X165737009Y-94036582D01*
X165705000Y-94238682D01*
X157536363Y-94238682D01*
X157560500Y-94086287D01*
X157560500Y-93873713D01*
X157527246Y-93663757D01*
X157461557Y-93461588D01*
X157365051Y-93272184D01*
X157323928Y-93215582D01*
X157240109Y-93100213D01*
X157089786Y-92949890D01*
X156917820Y-92824951D01*
X156917115Y-92824591D01*
X156909054Y-92820485D01*
X156858259Y-92772512D01*
X156841463Y-92704692D01*
X156863999Y-92638556D01*
X156909054Y-92599515D01*
X156917816Y-92595051D01*
X156992348Y-92540901D01*
X157089786Y-92470109D01*
X157089788Y-92470106D01*
X157089792Y-92470104D01*
X157240104Y-92319792D01*
X157240106Y-92319788D01*
X157240109Y-92319786D01*
X157365048Y-92147820D01*
X157365047Y-92147820D01*
X157365051Y-92147816D01*
X157461557Y-91958412D01*
X157527246Y-91756243D01*
X157560500Y-91546287D01*
X157560500Y-91333713D01*
X157527246Y-91123757D01*
X157461557Y-90921588D01*
X157365051Y-90732184D01*
X157365049Y-90732181D01*
X157365048Y-90732179D01*
X157240109Y-90560213D01*
X157089786Y-90409890D01*
X156917820Y-90284951D01*
X156917115Y-90284591D01*
X156909054Y-90280485D01*
X156858259Y-90232512D01*
X156841463Y-90164692D01*
X156863999Y-90098556D01*
X156909054Y-90059515D01*
X156917816Y-90055051D01*
X156939789Y-90039086D01*
X157089786Y-89930109D01*
X157089788Y-89930106D01*
X157089792Y-89930104D01*
X157240104Y-89779792D01*
X157240106Y-89779788D01*
X157240109Y-89779786D01*
X157365048Y-89607820D01*
X157365047Y-89607820D01*
X157365051Y-89607816D01*
X157461557Y-89418412D01*
X157527246Y-89216243D01*
X157560500Y-89006287D01*
X157560500Y-88793713D01*
X157527246Y-88583757D01*
X157461557Y-88381588D01*
X157365051Y-88192184D01*
X157365049Y-88192181D01*
X157365048Y-88192179D01*
X157240109Y-88020213D01*
X157089786Y-87869890D01*
X156917820Y-87744951D01*
X156917115Y-87744591D01*
X156909054Y-87740485D01*
X156858259Y-87692512D01*
X156841463Y-87624692D01*
X156863999Y-87558556D01*
X156909054Y-87519515D01*
X156917816Y-87515051D01*
X156939789Y-87499086D01*
X157089786Y-87390109D01*
X157089788Y-87390106D01*
X157089792Y-87390104D01*
X157240104Y-87239792D01*
X157240106Y-87239788D01*
X157240109Y-87239786D01*
X157365048Y-87067820D01*
X157365047Y-87067820D01*
X157365051Y-87067816D01*
X157461557Y-86878412D01*
X157527246Y-86676243D01*
X157560500Y-86466287D01*
X157560500Y-86253713D01*
X157527246Y-86043757D01*
X157461557Y-85841588D01*
X157365051Y-85652184D01*
X157365049Y-85652181D01*
X157365048Y-85652179D01*
X157240109Y-85480213D01*
X157089786Y-85329890D01*
X156917820Y-85204951D01*
X156917115Y-85204591D01*
X156909054Y-85200485D01*
X156858259Y-85152512D01*
X156841463Y-85084692D01*
X156863999Y-85018556D01*
X156909054Y-84979515D01*
X156917816Y-84975051D01*
X157072575Y-84862613D01*
X157089786Y-84850109D01*
X157089788Y-84850106D01*
X157089792Y-84850104D01*
X157240104Y-84699792D01*
X157240106Y-84699788D01*
X157240109Y-84699786D01*
X157365048Y-84527820D01*
X157365047Y-84527820D01*
X157365051Y-84527816D01*
X157461557Y-84338412D01*
X157527246Y-84136243D01*
X157560500Y-83926287D01*
X157560500Y-83713713D01*
X157527246Y-83503757D01*
X157461557Y-83301588D01*
X157365051Y-83112184D01*
X157365049Y-83112181D01*
X157365048Y-83112179D01*
X157240109Y-82940213D01*
X157089786Y-82789890D01*
X156917820Y-82664951D01*
X156917115Y-82664591D01*
X156909054Y-82660485D01*
X156858259Y-82612512D01*
X156841463Y-82544692D01*
X156863999Y-82478556D01*
X156909054Y-82439515D01*
X156917816Y-82435051D01*
X156997487Y-82377167D01*
X157089786Y-82310109D01*
X157089788Y-82310106D01*
X157089792Y-82310104D01*
X157240104Y-82159792D01*
X157240106Y-82159788D01*
X157240109Y-82159786D01*
X157365050Y-81987817D01*
X157373150Y-81971921D01*
X157373150Y-81971920D01*
X157395737Y-81927591D01*
X157461557Y-81798412D01*
X157527246Y-81596243D01*
X157560500Y-81386287D01*
X157560500Y-81173713D01*
X157527246Y-80963757D01*
X157461557Y-80761588D01*
X157365051Y-80572184D01*
X157365049Y-80572181D01*
X157365048Y-80572179D01*
X157240109Y-80400213D01*
X157089786Y-80249890D01*
X156917820Y-80124951D01*
X156915408Y-80123722D01*
X156909054Y-80120485D01*
X156858259Y-80072512D01*
X156841463Y-80004692D01*
X156863999Y-79938556D01*
X156896223Y-79907055D01*
X156902408Y-79902901D01*
X156917816Y-79895051D01*
X157089792Y-79770104D01*
X157240104Y-79619792D01*
X157240106Y-79619788D01*
X157240109Y-79619786D01*
X157365048Y-79447820D01*
X157365047Y-79447820D01*
X157365051Y-79447816D01*
X157461557Y-79258412D01*
X157527246Y-79056243D01*
X157560500Y-78846287D01*
X157560500Y-78633713D01*
X157527246Y-78423757D01*
X157461557Y-78221588D01*
X157365051Y-78032184D01*
X157365049Y-78032181D01*
X157365048Y-78032179D01*
X157240109Y-77860213D01*
X157089786Y-77709890D01*
X156917820Y-77584951D01*
X156917115Y-77584591D01*
X156909054Y-77580485D01*
X156858259Y-77532512D01*
X156841463Y-77464692D01*
X156863999Y-77398556D01*
X156909054Y-77359515D01*
X156917816Y-77355051D01*
X156939789Y-77339086D01*
X157089786Y-77230109D01*
X157089788Y-77230106D01*
X157089792Y-77230104D01*
X157240104Y-77079792D01*
X157240106Y-77079788D01*
X157240109Y-77079786D01*
X157365048Y-76907820D01*
X157365047Y-76907820D01*
X157365051Y-76907816D01*
X157461557Y-76718412D01*
X157527246Y-76516243D01*
X157560500Y-76306287D01*
X157560500Y-76093713D01*
X157527246Y-75883757D01*
X157461557Y-75681588D01*
X157365051Y-75492184D01*
X157365049Y-75492181D01*
X157365048Y-75492179D01*
X157240109Y-75320213D01*
X157089786Y-75169890D01*
X156917820Y-75044951D01*
X156917115Y-75044591D01*
X156909054Y-75040485D01*
X156858259Y-74992512D01*
X156841463Y-74924692D01*
X156863999Y-74858556D01*
X156909054Y-74819515D01*
X156917816Y-74815051D01*
X156974214Y-74774076D01*
X157089786Y-74690109D01*
X157089788Y-74690106D01*
X157089792Y-74690104D01*
X157240104Y-74539792D01*
X157240106Y-74539788D01*
X157240109Y-74539786D01*
X157365050Y-74367817D01*
X157373150Y-74351921D01*
X157373150Y-74351920D01*
X157461557Y-74178412D01*
X157527246Y-73976243D01*
X157560500Y-73766287D01*
X157560500Y-73553713D01*
X157527246Y-73343757D01*
X157461557Y-73141588D01*
X157365051Y-72952184D01*
X157365049Y-72952181D01*
X157365048Y-72952179D01*
X157240109Y-72780213D01*
X157089786Y-72629890D01*
X156917820Y-72504951D01*
X156917115Y-72504591D01*
X156909054Y-72500485D01*
X156858259Y-72452512D01*
X156841463Y-72384692D01*
X156863999Y-72318556D01*
X156909054Y-72279515D01*
X156917816Y-72275051D01*
X157039953Y-72186314D01*
X157089786Y-72150109D01*
X157089788Y-72150106D01*
X157089792Y-72150104D01*
X157240104Y-71999792D01*
X157240106Y-71999788D01*
X157240109Y-71999786D01*
X157365048Y-71827820D01*
X157365047Y-71827820D01*
X157365051Y-71827816D01*
X157461557Y-71638412D01*
X157527246Y-71436243D01*
X157560500Y-71226287D01*
X157560500Y-71013713D01*
X157545382Y-70918267D01*
X157554336Y-70848978D01*
X157580171Y-70811194D01*
X158369548Y-70021819D01*
X158430871Y-69988334D01*
X158457229Y-69985500D01*
X165634073Y-69985500D01*
X165701112Y-70005185D01*
G37*
%TD.AperFunction*%
%TA.AperFunction,Conductor*%
G36*
X195503736Y-58500726D02*
G01*
X195793796Y-58518271D01*
X195808659Y-58520076D01*
X196090797Y-58571780D01*
X196105334Y-58575363D01*
X196379182Y-58660698D01*
X196393163Y-58666000D01*
X196654734Y-58783724D01*
X196667987Y-58790680D01*
X196913458Y-58939071D01*
X196925776Y-58947573D01*
X197145583Y-59119781D01*
X197151573Y-59124474D01*
X197162781Y-59134404D01*
X197365595Y-59337218D01*
X197375525Y-59348426D01*
X197488624Y-59492786D01*
X197552422Y-59574217D01*
X197560928Y-59586541D01*
X197709319Y-59832012D01*
X197716277Y-59845269D01*
X197801878Y-60035466D01*
X197833994Y-60106823D01*
X197839304Y-60120825D01*
X197924635Y-60394664D01*
X197928219Y-60409202D01*
X197979923Y-60691340D01*
X197981728Y-60706205D01*
X197999274Y-60996263D01*
X197999500Y-61003750D01*
X197999500Y-131996249D01*
X197999274Y-132003736D01*
X197981728Y-132293794D01*
X197979923Y-132308659D01*
X197928219Y-132590797D01*
X197924635Y-132605335D01*
X197839304Y-132879174D01*
X197833994Y-132893176D01*
X197716277Y-133154730D01*
X197709319Y-133167987D01*
X197560928Y-133413458D01*
X197552422Y-133425782D01*
X197375525Y-133651573D01*
X197365595Y-133662781D01*
X197162781Y-133865595D01*
X197151573Y-133875525D01*
X196925782Y-134052422D01*
X196913458Y-134060928D01*
X196667987Y-134209319D01*
X196654730Y-134216277D01*
X196393176Y-134333994D01*
X196379174Y-134339304D01*
X196105335Y-134424635D01*
X196090797Y-134428219D01*
X195808659Y-134479923D01*
X195793794Y-134481728D01*
X195503736Y-134499274D01*
X195496249Y-134499500D01*
X104503751Y-134499500D01*
X104496264Y-134499274D01*
X104206205Y-134481728D01*
X104191340Y-134479923D01*
X103909202Y-134428219D01*
X103894664Y-134424635D01*
X103620825Y-134339304D01*
X103606827Y-134333995D01*
X103454096Y-134265256D01*
X103345269Y-134216277D01*
X103332012Y-134209319D01*
X103086541Y-134060928D01*
X103074217Y-134052422D01*
X102848426Y-133875525D01*
X102837218Y-133865595D01*
X102634404Y-133662781D01*
X102624474Y-133651573D01*
X102447573Y-133425776D01*
X102439071Y-133413458D01*
X102290680Y-133167987D01*
X102283722Y-133154730D01*
X102166000Y-132893163D01*
X102160698Y-132879182D01*
X102075363Y-132605334D01*
X102071780Y-132590797D01*
X102020076Y-132308659D01*
X102018271Y-132293794D01*
X102000726Y-132003736D01*
X102000500Y-131996249D01*
X102000500Y-130378711D01*
X104649500Y-130378711D01*
X104649500Y-130621288D01*
X104681161Y-130861785D01*
X104743947Y-131096104D01*
X104836773Y-131320205D01*
X104836776Y-131320212D01*
X104958064Y-131530289D01*
X104958066Y-131530292D01*
X104958067Y-131530293D01*
X105105733Y-131722736D01*
X105105739Y-131722743D01*
X105277256Y-131894260D01*
X105277263Y-131894266D01*
X105390321Y-131981018D01*
X105469711Y-132041936D01*
X105679788Y-132163224D01*
X105903900Y-132256054D01*
X106138211Y-132318838D01*
X106318586Y-132342584D01*
X106378711Y-132350500D01*
X106378712Y-132350500D01*
X106621289Y-132350500D01*
X106669388Y-132344167D01*
X106861789Y-132318838D01*
X107096100Y-132256054D01*
X107320212Y-132163224D01*
X107530289Y-132041936D01*
X107722738Y-131894265D01*
X107894265Y-131722738D01*
X108041936Y-131530289D01*
X108163224Y-131320212D01*
X108256054Y-131096100D01*
X108318838Y-130861789D01*
X108350500Y-130621288D01*
X108350500Y-130378712D01*
X108350500Y-130378711D01*
X191149500Y-130378711D01*
X191149500Y-130621288D01*
X191181161Y-130861785D01*
X191243947Y-131096104D01*
X191336773Y-131320205D01*
X191336776Y-131320212D01*
X191458064Y-131530289D01*
X191458066Y-131530292D01*
X191458067Y-131530293D01*
X191605733Y-131722736D01*
X191605739Y-131722743D01*
X191777256Y-131894260D01*
X191777263Y-131894266D01*
X191890321Y-131981018D01*
X191969711Y-132041936D01*
X192179788Y-132163224D01*
X192403900Y-132256054D01*
X192638211Y-132318838D01*
X192818586Y-132342584D01*
X192878711Y-132350500D01*
X192878712Y-132350500D01*
X193121289Y-132350500D01*
X193169388Y-132344167D01*
X193361789Y-132318838D01*
X193596100Y-132256054D01*
X193820212Y-132163224D01*
X194030289Y-132041936D01*
X194222738Y-131894265D01*
X194394265Y-131722738D01*
X194541936Y-131530289D01*
X194663224Y-131320212D01*
X194756054Y-131096100D01*
X194818838Y-130861789D01*
X194850500Y-130621288D01*
X194850500Y-130378712D01*
X194818838Y-130138211D01*
X194756054Y-129903900D01*
X194663224Y-129679788D01*
X194541936Y-129469711D01*
X194394265Y-129277262D01*
X194394260Y-129277256D01*
X194222743Y-129105739D01*
X194222736Y-129105733D01*
X194030293Y-128958067D01*
X194030292Y-128958066D01*
X194030289Y-128958064D01*
X193820212Y-128836776D01*
X193755120Y-128809814D01*
X193596104Y-128743947D01*
X193361785Y-128681161D01*
X193121289Y-128649500D01*
X193121288Y-128649500D01*
X192878712Y-128649500D01*
X192878711Y-128649500D01*
X192638214Y-128681161D01*
X192403895Y-128743947D01*
X192179794Y-128836773D01*
X192179785Y-128836777D01*
X191969706Y-128958067D01*
X191777263Y-129105733D01*
X191777256Y-129105739D01*
X191605739Y-129277256D01*
X191605733Y-129277263D01*
X191458067Y-129469706D01*
X191336777Y-129679785D01*
X191336773Y-129679794D01*
X191243947Y-129903895D01*
X191181161Y-130138214D01*
X191149500Y-130378711D01*
X108350500Y-130378711D01*
X108318838Y-130138211D01*
X108256054Y-129903900D01*
X108163224Y-129679788D01*
X108041936Y-129469711D01*
X107894265Y-129277262D01*
X107894260Y-129277256D01*
X107722743Y-129105739D01*
X107722736Y-129105733D01*
X107530293Y-128958067D01*
X107530292Y-128958066D01*
X107530289Y-128958064D01*
X107320212Y-128836776D01*
X107255120Y-128809814D01*
X107096104Y-128743947D01*
X106861785Y-128681161D01*
X106621289Y-128649500D01*
X106621288Y-128649500D01*
X106378712Y-128649500D01*
X106378711Y-128649500D01*
X106138214Y-128681161D01*
X105903895Y-128743947D01*
X105679794Y-128836773D01*
X105679785Y-128836777D01*
X105469706Y-128958067D01*
X105277263Y-129105733D01*
X105277256Y-129105739D01*
X105105739Y-129277256D01*
X105105733Y-129277263D01*
X104958067Y-129469706D01*
X104836777Y-129679785D01*
X104836773Y-129679794D01*
X104743947Y-129903895D01*
X104681161Y-130138214D01*
X104649500Y-130378711D01*
X102000500Y-130378711D01*
X102000500Y-70897648D01*
X109619500Y-70897648D01*
X109619500Y-71102351D01*
X109651522Y-71304534D01*
X109714781Y-71499223D01*
X109786926Y-71640814D01*
X109807713Y-71681610D01*
X109895819Y-71802877D01*
X109919298Y-71868681D01*
X109919500Y-71875761D01*
X109919500Y-74624237D01*
X109899815Y-74691276D01*
X109895818Y-74697122D01*
X109807715Y-74818386D01*
X109714781Y-75000776D01*
X109651522Y-75195465D01*
X109619500Y-75397648D01*
X109619500Y-75602351D01*
X109651522Y-75804534D01*
X109714781Y-75999223D01*
X109762927Y-76093713D01*
X109807713Y-76181610D01*
X109895819Y-76302877D01*
X109919298Y-76368681D01*
X109919500Y-76375761D01*
X109919500Y-79519541D01*
X109919500Y-79519543D01*
X109919499Y-79519543D01*
X109957947Y-79712829D01*
X109957950Y-79712839D01*
X110033364Y-79894907D01*
X110033371Y-79894920D01*
X110142859Y-80058780D01*
X110142860Y-80058781D01*
X110142861Y-80058782D01*
X110282218Y-80198139D01*
X110282219Y-80198139D01*
X110289286Y-80205206D01*
X110289285Y-80205206D01*
X110289289Y-80205209D01*
X112009681Y-81925602D01*
X112043166Y-81986925D01*
X112046000Y-82013283D01*
X112046000Y-83047870D01*
X112046001Y-83047876D01*
X112052408Y-83107483D01*
X112102702Y-83242328D01*
X112102706Y-83242335D01*
X112188952Y-83357544D01*
X112188955Y-83357547D01*
X112304164Y-83443793D01*
X112304171Y-83443797D01*
X112439017Y-83494091D01*
X112439016Y-83494091D01*
X112445944Y-83494835D01*
X112498627Y-83500500D01*
X114499372Y-83500499D01*
X114558983Y-83494091D01*
X114693831Y-83443796D01*
X114809046Y-83357546D01*
X114895296Y-83242331D01*
X114905690Y-83214460D01*
X114947560Y-83158527D01*
X115013023Y-83134108D01*
X115081297Y-83148958D01*
X115094746Y-83157465D01*
X115277462Y-83290217D01*
X115409599Y-83357544D01*
X115481244Y-83394049D01*
X115698751Y-83464721D01*
X115698752Y-83464721D01*
X115698755Y-83464722D01*
X115924646Y-83500500D01*
X116073218Y-83500500D01*
X116140257Y-83520185D01*
X116160899Y-83536819D01*
X117963181Y-85339101D01*
X117996666Y-85400424D01*
X117999500Y-85426782D01*
X117999500Y-99699217D01*
X117979815Y-99766256D01*
X117963181Y-99786898D01*
X115937180Y-101812898D01*
X115875857Y-101846383D01*
X115806165Y-101841399D01*
X115750232Y-101799527D01*
X115725815Y-101734063D01*
X115725499Y-101725239D01*
X115725499Y-101089992D01*
X115720649Y-101042517D01*
X115714999Y-100987203D01*
X115714998Y-100987200D01*
X115700066Y-100942139D01*
X115659814Y-100820666D01*
X115567712Y-100671344D01*
X115443656Y-100547288D01*
X115297014Y-100456839D01*
X115294336Y-100455187D01*
X115294331Y-100455185D01*
X115263447Y-100444951D01*
X115127797Y-100400001D01*
X115127795Y-100400000D01*
X115025016Y-100389500D01*
X115025009Y-100389500D01*
X114715783Y-100389500D01*
X114648744Y-100369815D01*
X114628102Y-100353181D01*
X112725819Y-98450898D01*
X112692334Y-98389575D01*
X112689500Y-98363217D01*
X112689500Y-94352601D01*
X112709185Y-94285562D01*
X112761989Y-94239807D01*
X112831147Y-94229863D01*
X112851820Y-94234671D01*
X112922866Y-94257756D01*
X112922872Y-94257757D01*
X113132754Y-94291000D01*
X113345246Y-94291000D01*
X113555127Y-94257757D01*
X113555130Y-94257757D01*
X113757217Y-94192095D01*
X113946554Y-94095622D01*
X114000716Y-94056270D01*
X114000717Y-94056270D01*
X113368409Y-93423962D01*
X113431993Y-93406925D01*
X113546007Y-93341099D01*
X113639099Y-93248007D01*
X113704925Y-93133993D01*
X113721962Y-93070409D01*
X114354270Y-93702717D01*
X114354270Y-93702716D01*
X114393622Y-93648554D01*
X114490095Y-93459217D01*
X114555757Y-93257130D01*
X114555757Y-93257127D01*
X114589000Y-93047246D01*
X114589000Y-92834753D01*
X114555757Y-92624872D01*
X114555757Y-92624869D01*
X114490095Y-92422782D01*
X114393624Y-92233449D01*
X114354270Y-92179282D01*
X114354269Y-92179282D01*
X113721962Y-92811590D01*
X113704925Y-92748007D01*
X113639099Y-92633993D01*
X113546007Y-92540901D01*
X113431993Y-92475075D01*
X113368407Y-92458036D01*
X114038627Y-91787818D01*
X114099950Y-91754333D01*
X114126308Y-91751499D01*
X114136871Y-91751499D01*
X114136872Y-91751499D01*
X114196483Y-91745091D01*
X114331331Y-91694796D01*
X114446546Y-91608546D01*
X114532796Y-91493331D01*
X114583091Y-91358483D01*
X114589500Y-91298873D01*
X114589499Y-89503128D01*
X114583091Y-89443517D01*
X114574723Y-89421082D01*
X114532797Y-89308671D01*
X114532793Y-89308664D01*
X114446547Y-89193455D01*
X114446544Y-89193452D01*
X114331335Y-89107206D01*
X114331328Y-89107202D01*
X114196482Y-89056908D01*
X114196483Y-89056908D01*
X114136883Y-89050501D01*
X114136881Y-89050500D01*
X114136873Y-89050500D01*
X114136864Y-89050500D01*
X112341129Y-89050500D01*
X112341123Y-89050501D01*
X112281516Y-89056908D01*
X112146671Y-89107202D01*
X112146664Y-89107206D01*
X112031455Y-89193452D01*
X112031452Y-89193455D01*
X111945206Y-89308664D01*
X111945202Y-89308671D01*
X111894908Y-89443517D01*
X111888501Y-89503116D01*
X111888501Y-89503123D01*
X111888500Y-89503135D01*
X111888500Y-90285217D01*
X111868815Y-90352256D01*
X111852181Y-90372898D01*
X111051221Y-91173858D01*
X111051218Y-91173861D01*
X110981538Y-91243540D01*
X110911859Y-91313219D01*
X110802371Y-91477079D01*
X110802364Y-91477092D01*
X110726950Y-91659160D01*
X110726947Y-91659170D01*
X110688500Y-91852456D01*
X110688500Y-98927544D01*
X110726947Y-99120828D01*
X110726950Y-99120840D01*
X110742567Y-99158542D01*
X110802364Y-99302907D01*
X110802371Y-99302920D01*
X110911859Y-99466780D01*
X110911860Y-99466781D01*
X110911861Y-99466782D01*
X111051218Y-99606139D01*
X111051219Y-99606139D01*
X111058286Y-99613206D01*
X111058285Y-99613206D01*
X111058289Y-99613209D01*
X112938181Y-101493102D01*
X112971666Y-101554425D01*
X112974500Y-101580783D01*
X112974500Y-101890000D01*
X112974501Y-101890019D01*
X112985000Y-101992796D01*
X112985001Y-101992799D01*
X113005956Y-102056036D01*
X113040186Y-102159334D01*
X113132288Y-102308656D01*
X113256344Y-102432712D01*
X113320543Y-102472310D01*
X113367268Y-102524258D01*
X113378489Y-102593221D01*
X113350646Y-102657303D01*
X113343128Y-102665530D01*
X113235585Y-102773073D01*
X113133768Y-102913211D01*
X113055128Y-103067552D01*
X113001597Y-103232302D01*
X112974500Y-103403389D01*
X112974500Y-103576610D01*
X112987741Y-103660215D01*
X113001598Y-103747701D01*
X113055127Y-103912445D01*
X113133768Y-104066788D01*
X113235586Y-104206928D01*
X113358072Y-104329414D01*
X113498212Y-104431232D01*
X113652555Y-104509873D01*
X113817299Y-104563402D01*
X113988389Y-104590500D01*
X113988390Y-104590500D01*
X114711610Y-104590500D01*
X114711611Y-104590500D01*
X114882701Y-104563402D01*
X115047445Y-104509873D01*
X115047449Y-104509871D01*
X115058941Y-104504016D01*
X115115237Y-104490500D01*
X115773543Y-104490500D01*
X115826780Y-104479909D01*
X115945761Y-104456243D01*
X115966836Y-104452051D01*
X116020165Y-104429961D01*
X116148914Y-104376632D01*
X116312782Y-104267139D01*
X116452139Y-104127782D01*
X116452140Y-104127779D01*
X116459206Y-104120714D01*
X116459209Y-104120710D01*
X119637778Y-100942141D01*
X119637782Y-100942139D01*
X119777139Y-100802782D01*
X119886632Y-100638914D01*
X119962051Y-100456835D01*
X119986224Y-100335312D01*
X120000500Y-100263543D01*
X120000500Y-84862456D01*
X119962052Y-84669170D01*
X119962051Y-84669169D01*
X119962051Y-84669165D01*
X119957870Y-84659071D01*
X119886635Y-84487092D01*
X119886628Y-84487079D01*
X119777140Y-84323219D01*
X119737272Y-84283351D01*
X119637782Y-84183861D01*
X119637781Y-84183860D01*
X119061475Y-83607554D01*
X119027990Y-83546231D01*
X119032974Y-83476539D01*
X119074846Y-83420606D01*
X119110842Y-83401941D01*
X119136567Y-83393583D01*
X119340276Y-83289788D01*
X119525242Y-83155402D01*
X119686902Y-82993742D01*
X119821288Y-82808776D01*
X119925082Y-82605070D01*
X119995734Y-82387628D01*
X120017532Y-82250000D01*
X119069748Y-82250000D01*
X119091518Y-82212292D01*
X119129000Y-82072409D01*
X119129000Y-81927591D01*
X119091518Y-81787708D01*
X119069748Y-81750000D01*
X120017532Y-81750000D01*
X119995734Y-81612371D01*
X119925082Y-81394929D01*
X119821288Y-81191223D01*
X119686902Y-81006257D01*
X119525242Y-80844597D01*
X119340276Y-80710211D01*
X119136568Y-80606417D01*
X118919124Y-80535765D01*
X118829000Y-80521490D01*
X118829000Y-81509252D01*
X118791292Y-81487482D01*
X118651409Y-81450000D01*
X118506591Y-81450000D01*
X118366708Y-81487482D01*
X118329000Y-81509252D01*
X118329000Y-80521490D01*
X118328999Y-80521490D01*
X118238875Y-80535765D01*
X118021431Y-80606417D01*
X117817723Y-80710211D01*
X117632757Y-80844597D01*
X117471097Y-81006257D01*
X117409627Y-81090864D01*
X117354297Y-81133529D01*
X117284684Y-81139508D01*
X117222889Y-81106902D01*
X117208991Y-81090864D01*
X117147286Y-81005934D01*
X116985566Y-80844214D01*
X116800538Y-80709783D01*
X116596755Y-80605950D01*
X116379248Y-80535278D01*
X116193812Y-80505908D01*
X116153354Y-80499500D01*
X115924646Y-80499500D01*
X115884188Y-80505908D01*
X115698753Y-80535278D01*
X115698750Y-80535278D01*
X115481244Y-80605950D01*
X115277461Y-80709783D01*
X115094759Y-80842525D01*
X115028952Y-80866005D01*
X114960898Y-80850180D01*
X114912203Y-80800074D01*
X114905690Y-80785538D01*
X114895296Y-80757669D01*
X114895293Y-80757664D01*
X114809047Y-80642455D01*
X114809044Y-80642452D01*
X114693835Y-80556206D01*
X114693828Y-80556202D01*
X114558982Y-80505908D01*
X114558983Y-80505908D01*
X114499383Y-80499501D01*
X114499381Y-80499500D01*
X114499373Y-80499500D01*
X114499365Y-80499500D01*
X113464783Y-80499500D01*
X113397744Y-80479815D01*
X113377102Y-80463181D01*
X111956819Y-79042898D01*
X111923334Y-78981575D01*
X111920500Y-78955217D01*
X111920500Y-76375761D01*
X111940185Y-76308722D01*
X111944165Y-76302899D01*
X112032287Y-76181610D01*
X112125220Y-75999219D01*
X112188477Y-75804534D01*
X112220500Y-75602352D01*
X112220500Y-75397682D01*
X119780000Y-75397682D01*
X119780000Y-75602317D01*
X119812009Y-75804417D01*
X119875244Y-75999031D01*
X119968141Y-76181350D01*
X119968147Y-76181359D01*
X120000523Y-76225921D01*
X120000524Y-76225922D01*
X120680000Y-75546446D01*
X120680000Y-75552661D01*
X120707259Y-75654394D01*
X120759920Y-75745606D01*
X120834394Y-75820080D01*
X120925606Y-75872741D01*
X121027339Y-75900000D01*
X121033553Y-75900000D01*
X120354076Y-76579474D01*
X120398650Y-76611859D01*
X120580968Y-76704755D01*
X120775582Y-76767990D01*
X120977683Y-76800000D01*
X121182317Y-76800000D01*
X121384417Y-76767990D01*
X121579031Y-76704755D01*
X121761349Y-76611859D01*
X121805921Y-76579474D01*
X121126447Y-75900000D01*
X121132661Y-75900000D01*
X121234394Y-75872741D01*
X121325606Y-75820080D01*
X121400080Y-75745606D01*
X121452741Y-75654394D01*
X121480000Y-75552661D01*
X121480000Y-75546447D01*
X122159474Y-76225921D01*
X122191859Y-76181349D01*
X122284755Y-75999031D01*
X122347990Y-75804417D01*
X122380000Y-75602317D01*
X122380000Y-75397682D01*
X122347990Y-75195582D01*
X122284755Y-75000968D01*
X122191859Y-74818650D01*
X122159474Y-74774077D01*
X122159474Y-74774076D01*
X121480000Y-75453551D01*
X121480000Y-75447339D01*
X121452741Y-75345606D01*
X121400080Y-75254394D01*
X121325606Y-75179920D01*
X121234394Y-75127259D01*
X121132661Y-75100000D01*
X121126446Y-75100000D01*
X121805922Y-74420524D01*
X121805921Y-74420523D01*
X121761359Y-74388147D01*
X121761350Y-74388141D01*
X121579031Y-74295244D01*
X121384417Y-74232009D01*
X121182317Y-74200000D01*
X120977683Y-74200000D01*
X120775582Y-74232009D01*
X120580968Y-74295244D01*
X120398644Y-74388143D01*
X120354077Y-74420523D01*
X120354077Y-74420524D01*
X121033554Y-75100000D01*
X121027339Y-75100000D01*
X120925606Y-75127259D01*
X120834394Y-75179920D01*
X120759920Y-75254394D01*
X120707259Y-75345606D01*
X120680000Y-75447339D01*
X120680000Y-75453553D01*
X120000524Y-74774077D01*
X120000523Y-74774077D01*
X119968143Y-74818644D01*
X119875244Y-75000968D01*
X119812009Y-75195582D01*
X119780000Y-75397682D01*
X112220500Y-75397682D01*
X112220500Y-75397648D01*
X112208235Y-75320208D01*
X112188477Y-75195465D01*
X112157458Y-75100000D01*
X112125220Y-75000781D01*
X112125218Y-75000778D01*
X112125218Y-75000776D01*
X112079758Y-74911557D01*
X112032287Y-74818390D01*
X111983907Y-74751800D01*
X111944182Y-74697122D01*
X111920702Y-74631316D01*
X111920500Y-74624237D01*
X111920500Y-72124500D01*
X111940185Y-72057461D01*
X111992989Y-72011706D01*
X112044500Y-72000500D01*
X120204238Y-72000500D01*
X120271277Y-72020185D01*
X120277119Y-72024179D01*
X120398390Y-72112287D01*
X120472620Y-72150109D01*
X120580776Y-72205218D01*
X120580778Y-72205218D01*
X120580781Y-72205220D01*
X120685137Y-72239127D01*
X120775465Y-72268477D01*
X120845162Y-72279516D01*
X120977648Y-72300500D01*
X120977649Y-72300500D01*
X121182351Y-72300500D01*
X121182352Y-72300500D01*
X121384534Y-72268477D01*
X121579219Y-72205220D01*
X121761610Y-72112287D01*
X121888379Y-72020185D01*
X121927213Y-71991971D01*
X121927215Y-71991968D01*
X121927219Y-71991966D01*
X122071966Y-71847219D01*
X122071968Y-71847215D01*
X122071971Y-71847213D01*
X122129175Y-71768477D01*
X122192287Y-71681610D01*
X122285220Y-71499219D01*
X122348477Y-71304534D01*
X122380500Y-71102352D01*
X122380500Y-70897648D01*
X122372791Y-70848978D01*
X122348477Y-70695465D01*
X122285218Y-70500776D01*
X122251503Y-70434607D01*
X122192287Y-70318390D01*
X122135489Y-70240213D01*
X122071971Y-70152786D01*
X121927213Y-70008028D01*
X121761613Y-69887715D01*
X121761612Y-69887714D01*
X121761610Y-69887713D01*
X121677177Y-69844692D01*
X121579223Y-69794781D01*
X121384534Y-69731522D01*
X121209995Y-69703878D01*
X121182352Y-69699500D01*
X120977648Y-69699500D01*
X120953329Y-69703351D01*
X120775465Y-69731522D01*
X120580776Y-69794781D01*
X120398386Y-69887715D01*
X120277123Y-69975818D01*
X120211317Y-69999298D01*
X120204238Y-69999500D01*
X111795762Y-69999500D01*
X111728723Y-69979815D01*
X111722877Y-69975818D01*
X111701771Y-69960484D01*
X111601610Y-69887713D01*
X111517177Y-69844692D01*
X111419223Y-69794781D01*
X111224534Y-69731522D01*
X111049995Y-69703878D01*
X111022352Y-69699500D01*
X110817648Y-69699500D01*
X110793329Y-69703351D01*
X110615465Y-69731522D01*
X110420776Y-69794781D01*
X110238386Y-69887715D01*
X110072786Y-70008028D01*
X109928028Y-70152786D01*
X109807715Y-70318386D01*
X109714781Y-70500776D01*
X109651522Y-70695465D01*
X109619500Y-70897648D01*
X102000500Y-70897648D01*
X102000500Y-65142135D01*
X129459500Y-65142135D01*
X129459500Y-66937870D01*
X129459501Y-66937876D01*
X129465908Y-66997483D01*
X129516202Y-67132328D01*
X129516206Y-67132335D01*
X129602452Y-67247544D01*
X129602455Y-67247547D01*
X129717664Y-67333793D01*
X129717671Y-67333797D01*
X129849082Y-67382810D01*
X129905016Y-67424681D01*
X129929433Y-67490145D01*
X129914582Y-67558418D01*
X129893431Y-67586673D01*
X129779889Y-67700215D01*
X129654951Y-67872179D01*
X129558444Y-68061585D01*
X129492753Y-68263760D01*
X129459500Y-68473713D01*
X129459500Y-68686286D01*
X129492753Y-68896239D01*
X129558444Y-69098414D01*
X129654951Y-69287820D01*
X129779890Y-69459786D01*
X129930213Y-69610109D01*
X130102182Y-69735050D01*
X130110946Y-69739516D01*
X130161742Y-69787491D01*
X130178536Y-69855312D01*
X130155998Y-69921447D01*
X130110946Y-69960484D01*
X130102182Y-69964949D01*
X129930213Y-70089890D01*
X129779890Y-70240213D01*
X129654951Y-70412179D01*
X129558444Y-70601585D01*
X129492753Y-70803760D01*
X129464337Y-70983172D01*
X129459500Y-71013713D01*
X129459500Y-71226287D01*
X129492754Y-71436243D01*
X129549954Y-71612287D01*
X129558444Y-71638414D01*
X129654951Y-71827820D01*
X129779890Y-71999786D01*
X129930213Y-72150109D01*
X130102182Y-72275050D01*
X130110946Y-72279516D01*
X130161742Y-72327491D01*
X130178536Y-72395312D01*
X130155998Y-72461447D01*
X130110946Y-72500484D01*
X130102182Y-72504949D01*
X129930213Y-72629890D01*
X129779890Y-72780213D01*
X129654951Y-72952179D01*
X129558444Y-73141585D01*
X129558443Y-73141587D01*
X129558443Y-73141588D01*
X129492754Y-73343757D01*
X129459500Y-73553713D01*
X129459500Y-73766287D01*
X129469534Y-73829644D01*
X129490873Y-73964371D01*
X129492754Y-73976243D01*
X129533589Y-74101921D01*
X129558444Y-74178414D01*
X129654951Y-74367820D01*
X129779890Y-74539786D01*
X129930213Y-74690109D01*
X130102182Y-74815050D01*
X130110946Y-74819516D01*
X130161742Y-74867491D01*
X130178536Y-74935312D01*
X130155998Y-75001447D01*
X130110946Y-75040484D01*
X130102182Y-75044949D01*
X129930213Y-75169890D01*
X129779890Y-75320213D01*
X129654951Y-75492179D01*
X129558444Y-75681585D01*
X129492753Y-75883760D01*
X129490181Y-75900000D01*
X129459500Y-76093713D01*
X129459500Y-76306287D01*
X129492754Y-76516243D01*
X129551310Y-76696460D01*
X129558444Y-76718414D01*
X129654951Y-76907820D01*
X129779890Y-77079786D01*
X129930213Y-77230109D01*
X130102182Y-77355050D01*
X130110946Y-77359516D01*
X130161742Y-77407491D01*
X130178536Y-77475312D01*
X130155998Y-77541447D01*
X130110946Y-77580484D01*
X130102182Y-77584949D01*
X129930213Y-77709890D01*
X129779890Y-77860213D01*
X129654951Y-78032179D01*
X129558444Y-78221585D01*
X129492753Y-78423760D01*
X129459500Y-78633713D01*
X129459500Y-78846286D01*
X129480927Y-78981575D01*
X129492754Y-79056243D01*
X129506399Y-79098239D01*
X129558444Y-79258414D01*
X129654951Y-79447820D01*
X129779890Y-79619786D01*
X129930213Y-79770109D01*
X130102182Y-79895050D01*
X130110946Y-79899516D01*
X130161742Y-79947491D01*
X130178536Y-80015312D01*
X130155998Y-80081447D01*
X130110946Y-80120484D01*
X130102182Y-80124949D01*
X129930213Y-80249890D01*
X129779890Y-80400213D01*
X129654951Y-80572179D01*
X129558444Y-80761585D01*
X129492753Y-80963760D01*
X129463823Y-81146418D01*
X129459500Y-81173713D01*
X129459500Y-81386287D01*
X129492754Y-81596243D01*
X129533647Y-81722099D01*
X129558444Y-81798414D01*
X129654951Y-81987820D01*
X129779890Y-82159786D01*
X129930213Y-82310109D01*
X130102182Y-82435050D01*
X130110946Y-82439516D01*
X130161742Y-82487491D01*
X130178536Y-82555312D01*
X130155998Y-82621447D01*
X130110946Y-82660484D01*
X130102182Y-82664949D01*
X129930213Y-82789890D01*
X129779890Y-82940213D01*
X129654951Y-83112179D01*
X129558444Y-83301585D01*
X129558443Y-83301587D01*
X129558443Y-83301588D01*
X129547981Y-83333786D01*
X129492753Y-83503760D01*
X129459500Y-83713713D01*
X129459500Y-83926287D01*
X129492754Y-84136243D01*
X129553506Y-84323219D01*
X129558444Y-84338414D01*
X129654951Y-84527820D01*
X129779890Y-84699786D01*
X129930213Y-84850109D01*
X130102182Y-84975050D01*
X130110946Y-84979516D01*
X130161742Y-85027491D01*
X130178536Y-85095312D01*
X130155998Y-85161447D01*
X130110946Y-85200484D01*
X130102182Y-85204949D01*
X129930213Y-85329890D01*
X129779890Y-85480213D01*
X129654951Y-85652179D01*
X129558444Y-85841585D01*
X129492753Y-86043760D01*
X129459500Y-86253713D01*
X129459500Y-86466286D01*
X129492753Y-86676239D01*
X129558444Y-86878414D01*
X129654951Y-87067820D01*
X129779890Y-87239786D01*
X129930213Y-87390109D01*
X130102182Y-87515050D01*
X130110946Y-87519516D01*
X130161742Y-87567491D01*
X130178536Y-87635312D01*
X130155998Y-87701447D01*
X130110946Y-87740484D01*
X130102182Y-87744949D01*
X129930213Y-87869890D01*
X129779890Y-88020213D01*
X129654951Y-88192179D01*
X129558444Y-88381585D01*
X129492753Y-88583760D01*
X129459799Y-88791828D01*
X129459500Y-88793713D01*
X129459500Y-89006287D01*
X129461131Y-89016584D01*
X129489144Y-89193455D01*
X129492754Y-89216243D01*
X129514836Y-89284205D01*
X129558444Y-89418414D01*
X129654951Y-89607820D01*
X129779890Y-89779786D01*
X129930213Y-89930109D01*
X130102182Y-90055050D01*
X130110946Y-90059516D01*
X130161742Y-90107491D01*
X130178536Y-90175312D01*
X130155998Y-90241447D01*
X130110946Y-90280484D01*
X130102182Y-90284949D01*
X129930213Y-90409890D01*
X129779890Y-90560213D01*
X129654951Y-90732179D01*
X129558444Y-90921585D01*
X129492753Y-91123760D01*
X129459500Y-91333713D01*
X129459500Y-91546286D01*
X129492002Y-91751499D01*
X129492754Y-91756243D01*
X129503013Y-91787818D01*
X129558444Y-91958414D01*
X129654951Y-92147820D01*
X129779890Y-92319786D01*
X129930213Y-92470109D01*
X130102182Y-92595050D01*
X130110946Y-92599516D01*
X130161742Y-92647491D01*
X130178536Y-92715312D01*
X130155998Y-92781447D01*
X130110946Y-92820484D01*
X130102182Y-92824949D01*
X129930213Y-92949890D01*
X129779890Y-93100213D01*
X129654951Y-93272179D01*
X129558444Y-93461585D01*
X129492753Y-93663760D01*
X129464528Y-93841968D01*
X129459500Y-93873713D01*
X129459500Y-94086287D01*
X129460979Y-94095622D01*
X129491923Y-94291000D01*
X129492754Y-94296243D01*
X129557462Y-94495394D01*
X129558444Y-94498414D01*
X129654951Y-94687820D01*
X129779890Y-94859786D01*
X129930213Y-95010109D01*
X130102182Y-95135050D01*
X130110946Y-95139516D01*
X130161742Y-95187491D01*
X130178536Y-95255312D01*
X130155998Y-95321447D01*
X130110946Y-95360484D01*
X130102182Y-95364949D01*
X129930213Y-95489890D01*
X129779890Y-95640213D01*
X129654951Y-95812179D01*
X129558444Y-96001585D01*
X129492753Y-96203760D01*
X129463611Y-96387756D01*
X129459500Y-96413713D01*
X129459500Y-96626287D01*
X129469534Y-96689644D01*
X129492753Y-96836239D01*
X129558444Y-97038414D01*
X129654951Y-97227820D01*
X129779890Y-97399786D01*
X129930213Y-97550109D01*
X130102182Y-97675050D01*
X130110946Y-97679516D01*
X130161742Y-97727491D01*
X130178536Y-97795312D01*
X130155998Y-97861447D01*
X130110946Y-97900484D01*
X130102182Y-97904949D01*
X129930213Y-98029890D01*
X129779890Y-98180213D01*
X129654951Y-98352179D01*
X129558444Y-98541585D01*
X129492753Y-98743760D01*
X129459500Y-98953713D01*
X129459500Y-99166286D01*
X129481863Y-99307484D01*
X129492754Y-99376243D01*
X129522171Y-99466780D01*
X129558444Y-99578414D01*
X129654951Y-99767820D01*
X129779890Y-99939786D01*
X129930213Y-100090109D01*
X130102182Y-100215050D01*
X130110946Y-100219516D01*
X130161742Y-100267491D01*
X130178536Y-100335312D01*
X130155998Y-100401447D01*
X130110946Y-100440484D01*
X130102182Y-100444949D01*
X129930213Y-100569890D01*
X129779890Y-100720213D01*
X129654951Y-100892179D01*
X129558444Y-101081585D01*
X129492753Y-101283760D01*
X129463611Y-101467756D01*
X129459500Y-101493713D01*
X129459500Y-101706287D01*
X129469534Y-101769644D01*
X129492753Y-101916239D01*
X129492753Y-101916241D01*
X129492754Y-101916243D01*
X129510837Y-101971898D01*
X129558444Y-102118414D01*
X129654951Y-102307820D01*
X129779890Y-102479786D01*
X129930213Y-102630109D01*
X130102182Y-102755050D01*
X130110946Y-102759516D01*
X130161742Y-102807491D01*
X130178536Y-102875312D01*
X130155998Y-102941447D01*
X130110946Y-102980484D01*
X130102182Y-102984949D01*
X129930213Y-103109890D01*
X129779890Y-103260213D01*
X129654951Y-103432179D01*
X129558444Y-103621585D01*
X129492753Y-103823760D01*
X129459500Y-104033713D01*
X129459500Y-104246286D01*
X129489185Y-104433713D01*
X129492754Y-104456243D01*
X129554503Y-104646287D01*
X129558444Y-104658414D01*
X129654951Y-104847820D01*
X129779890Y-105019786D01*
X129930213Y-105170109D01*
X130102182Y-105295050D01*
X130110946Y-105299516D01*
X130161742Y-105347491D01*
X130178536Y-105415312D01*
X130155998Y-105481447D01*
X130110946Y-105520484D01*
X130102182Y-105524949D01*
X129930213Y-105649890D01*
X129779890Y-105800213D01*
X129654951Y-105972179D01*
X129558444Y-106161585D01*
X129492753Y-106363760D01*
X129485292Y-106410867D01*
X129459500Y-106573713D01*
X129459500Y-106786287D01*
X129469534Y-106849644D01*
X129492753Y-106996239D01*
X129492753Y-106996241D01*
X129492754Y-106996243D01*
X129554503Y-107186287D01*
X129558444Y-107198414D01*
X129654951Y-107387820D01*
X129779890Y-107559786D01*
X129930213Y-107710109D01*
X130102182Y-107835050D01*
X130110946Y-107839516D01*
X130161742Y-107887491D01*
X130178536Y-107955312D01*
X130155998Y-108021447D01*
X130110946Y-108060484D01*
X130102182Y-108064949D01*
X129930213Y-108189890D01*
X129779890Y-108340213D01*
X129654951Y-108512179D01*
X129558444Y-108701585D01*
X129492753Y-108903760D01*
X129459500Y-109113713D01*
X129459500Y-109326286D01*
X129489185Y-109513713D01*
X129492754Y-109536243D01*
X129554503Y-109726287D01*
X129558444Y-109738414D01*
X129654951Y-109927820D01*
X129779890Y-110099786D01*
X129930213Y-110250109D01*
X130102182Y-110375050D01*
X130110946Y-110379516D01*
X130161742Y-110427491D01*
X130178536Y-110495312D01*
X130155998Y-110561447D01*
X130110946Y-110600484D01*
X130102182Y-110604949D01*
X129930213Y-110729890D01*
X129779890Y-110880213D01*
X129654951Y-111052179D01*
X129558444Y-111241585D01*
X129558443Y-111241587D01*
X129558443Y-111241588D01*
X129546501Y-111278342D01*
X129492753Y-111443760D01*
X129459500Y-111653713D01*
X129459500Y-111866286D01*
X129492385Y-112073918D01*
X129492754Y-112076243D01*
X129554503Y-112266287D01*
X129558444Y-112278414D01*
X129654951Y-112467820D01*
X129779890Y-112639786D01*
X129930213Y-112790109D01*
X130102182Y-112915050D01*
X130110946Y-112919516D01*
X130161742Y-112967491D01*
X130178536Y-113035312D01*
X130155998Y-113101447D01*
X130110946Y-113140484D01*
X130102182Y-113144949D01*
X129930213Y-113269890D01*
X129779890Y-113420213D01*
X129654951Y-113592179D01*
X129558444Y-113781585D01*
X129492753Y-113983760D01*
X129459500Y-114193713D01*
X129459500Y-114406286D01*
X129492735Y-114616127D01*
X129492754Y-114616243D01*
X129554503Y-114806287D01*
X129558444Y-114818414D01*
X129654951Y-115007820D01*
X129779890Y-115179786D01*
X129930213Y-115330109D01*
X130102179Y-115455048D01*
X130102181Y-115455049D01*
X130102184Y-115455051D01*
X130291588Y-115551557D01*
X130493757Y-115617246D01*
X130703713Y-115650500D01*
X130703714Y-115650500D01*
X130708525Y-115651262D01*
X130708357Y-115652321D01*
X130768829Y-115675362D01*
X130781503Y-115686423D01*
X139463181Y-124368101D01*
X139496666Y-124429424D01*
X139499500Y-124455782D01*
X139499500Y-126464867D01*
X139481040Y-126529961D01*
X139465187Y-126555663D01*
X139465186Y-126555665D01*
X139441661Y-126626659D01*
X139410001Y-126722203D01*
X139410001Y-126722204D01*
X139410000Y-126722204D01*
X139399500Y-126824983D01*
X139399500Y-128175001D01*
X139399501Y-128175018D01*
X139410000Y-128277796D01*
X139410001Y-128277799D01*
X139465185Y-128444331D01*
X139465186Y-128444334D01*
X139557288Y-128593656D01*
X139681344Y-128717712D01*
X139830666Y-128809814D01*
X139997203Y-128864999D01*
X140099991Y-128875500D01*
X140900008Y-128875499D01*
X140900016Y-128875498D01*
X140900019Y-128875498D01*
X140956302Y-128869748D01*
X141002797Y-128864999D01*
X141169334Y-128809814D01*
X141318656Y-128717712D01*
X141442712Y-128593656D01*
X141482581Y-128529016D01*
X141534525Y-128482294D01*
X141603488Y-128471071D01*
X141667570Y-128498914D01*
X141675799Y-128506434D01*
X141783397Y-128614032D01*
X141923475Y-128715804D01*
X142077744Y-128794408D01*
X142242415Y-128847914D01*
X142242414Y-128847914D01*
X142249999Y-128849115D01*
X142250000Y-128849114D01*
X142250000Y-127780330D01*
X142269745Y-127800075D01*
X142355255Y-127849444D01*
X142450630Y-127875000D01*
X142549370Y-127875000D01*
X142644745Y-127849444D01*
X142730255Y-127800075D01*
X142750000Y-127780330D01*
X142750000Y-128849115D01*
X142757584Y-128847914D01*
X142922255Y-128794408D01*
X143076524Y-128715804D01*
X143216602Y-128614032D01*
X143339032Y-128491602D01*
X143440804Y-128351524D01*
X143519408Y-128197257D01*
X143572914Y-128032584D01*
X143600000Y-127861571D01*
X143600000Y-127750000D01*
X142780330Y-127750000D01*
X142800075Y-127730255D01*
X142849444Y-127644745D01*
X142875000Y-127549370D01*
X142875000Y-127450630D01*
X142849444Y-127355255D01*
X142800075Y-127269745D01*
X142780330Y-127250000D01*
X143600000Y-127250000D01*
X143600000Y-127138428D01*
X143572914Y-126967415D01*
X143519408Y-126802742D01*
X143440804Y-126648475D01*
X143339032Y-126508397D01*
X143216602Y-126385967D01*
X143076524Y-126284195D01*
X142922257Y-126205591D01*
X142757589Y-126152087D01*
X142757581Y-126152085D01*
X142750000Y-126150884D01*
X142750000Y-127219670D01*
X142730255Y-127199925D01*
X142644745Y-127150556D01*
X142549370Y-127125000D01*
X142450630Y-127125000D01*
X142355255Y-127150556D01*
X142269745Y-127199925D01*
X142250000Y-127219670D01*
X142250000Y-126150884D01*
X142249999Y-126150884D01*
X142242418Y-126152085D01*
X142242410Y-126152087D01*
X142077742Y-126205591D01*
X141923475Y-126284195D01*
X141783397Y-126385967D01*
X141712181Y-126457184D01*
X141650858Y-126490669D01*
X141581166Y-126485685D01*
X141525233Y-126443813D01*
X141500816Y-126378349D01*
X141500500Y-126369503D01*
X141500500Y-123891456D01*
X141485994Y-123818533D01*
X141492221Y-123748941D01*
X141535083Y-123693764D01*
X141600973Y-123670519D01*
X141668970Y-123686586D01*
X141695292Y-123706660D01*
X144476586Y-126487954D01*
X144480650Y-126490669D01*
X144550270Y-126537186D01*
X144599505Y-126570084D01*
X144599506Y-126570084D01*
X144599507Y-126570085D01*
X144599509Y-126570086D01*
X144736082Y-126626656D01*
X144736087Y-126626658D01*
X144736091Y-126626658D01*
X144736092Y-126626659D01*
X144881079Y-126655500D01*
X144881082Y-126655500D01*
X165488920Y-126655500D01*
X165586462Y-126636096D01*
X165633913Y-126626658D01*
X165770495Y-126570084D01*
X165819729Y-126537186D01*
X165819734Y-126537183D01*
X165844071Y-126520921D01*
X165893416Y-126487952D01*
X168691193Y-123690172D01*
X168752514Y-123656689D01*
X168798265Y-123655382D01*
X168893713Y-123670500D01*
X168893715Y-123670500D01*
X169106286Y-123670500D01*
X169106287Y-123670500D01*
X169316243Y-123637246D01*
X169518412Y-123571557D01*
X169707816Y-123475051D01*
X169729789Y-123459086D01*
X169879786Y-123350109D01*
X169879788Y-123350106D01*
X169879792Y-123350104D01*
X170030104Y-123199792D01*
X170030106Y-123199788D01*
X170030109Y-123199786D01*
X170155048Y-123027820D01*
X170155047Y-123027820D01*
X170155051Y-123027816D01*
X170251557Y-122838412D01*
X170317246Y-122636243D01*
X170350500Y-122426287D01*
X170350500Y-122213713D01*
X170317246Y-122003757D01*
X170251557Y-121801588D01*
X170155051Y-121612184D01*
X170155049Y-121612181D01*
X170155048Y-121612179D01*
X170030109Y-121440213D01*
X169879786Y-121289890D01*
X169707820Y-121164951D01*
X169707115Y-121164591D01*
X169699054Y-121160485D01*
X169648259Y-121112512D01*
X169631463Y-121044692D01*
X169653999Y-120978556D01*
X169699054Y-120939515D01*
X169707816Y-120935051D01*
X169729789Y-120919086D01*
X169879786Y-120810109D01*
X169879788Y-120810106D01*
X169879792Y-120810104D01*
X170030104Y-120659792D01*
X170030106Y-120659788D01*
X170030109Y-120659786D01*
X170155048Y-120487820D01*
X170155047Y-120487820D01*
X170155051Y-120487816D01*
X170251557Y-120298412D01*
X170317246Y-120096243D01*
X170350500Y-119886287D01*
X170350500Y-119673713D01*
X170317246Y-119463757D01*
X170251557Y-119261588D01*
X170155051Y-119072184D01*
X170155049Y-119072181D01*
X170155048Y-119072179D01*
X170030109Y-118900213D01*
X169879786Y-118749890D01*
X169707820Y-118624951D01*
X169707115Y-118624591D01*
X169699054Y-118620485D01*
X169648259Y-118572512D01*
X169631463Y-118504692D01*
X169653999Y-118438556D01*
X169699054Y-118399515D01*
X169707816Y-118395051D01*
X169729789Y-118379086D01*
X169879786Y-118270109D01*
X169879788Y-118270106D01*
X169879792Y-118270104D01*
X170030104Y-118119792D01*
X170030106Y-118119788D01*
X170030109Y-118119786D01*
X170155048Y-117947820D01*
X170155047Y-117947820D01*
X170155051Y-117947816D01*
X170251557Y-117758412D01*
X170317246Y-117556243D01*
X170350500Y-117346287D01*
X170350500Y-117133713D01*
X170317246Y-116923757D01*
X170251557Y-116721588D01*
X170155051Y-116532184D01*
X170155049Y-116532181D01*
X170155048Y-116532179D01*
X170030109Y-116360213D01*
X169879786Y-116209890D01*
X169707820Y-116084951D01*
X169707115Y-116084591D01*
X169699054Y-116080485D01*
X169648259Y-116032512D01*
X169631463Y-115964692D01*
X169653999Y-115898556D01*
X169699054Y-115859515D01*
X169707816Y-115855051D01*
X169729789Y-115839086D01*
X169879786Y-115730109D01*
X169879788Y-115730106D01*
X169879792Y-115730104D01*
X170030104Y-115579792D01*
X170030106Y-115579788D01*
X170030109Y-115579786D01*
X170155048Y-115407820D01*
X170155047Y-115407820D01*
X170155051Y-115407816D01*
X170251557Y-115218412D01*
X170317246Y-115016243D01*
X170350500Y-114806287D01*
X170350500Y-114593713D01*
X170317246Y-114383757D01*
X170251557Y-114181588D01*
X170155051Y-113992184D01*
X170155049Y-113992181D01*
X170155048Y-113992179D01*
X170030109Y-113820213D01*
X169879786Y-113669890D01*
X169707820Y-113544951D01*
X169707115Y-113544591D01*
X169699054Y-113540485D01*
X169648259Y-113492512D01*
X169631463Y-113424692D01*
X169653999Y-113358556D01*
X169699054Y-113319515D01*
X169707816Y-113315051D01*
X169769975Y-113269890D01*
X169879786Y-113190109D01*
X169879788Y-113190106D01*
X169879792Y-113190104D01*
X170030104Y-113039792D01*
X170030106Y-113039788D01*
X170030109Y-113039786D01*
X170155048Y-112867820D01*
X170155047Y-112867820D01*
X170155051Y-112867816D01*
X170251557Y-112678412D01*
X170317246Y-112476243D01*
X170350500Y-112266287D01*
X170350500Y-112053713D01*
X170317246Y-111843757D01*
X170251557Y-111641588D01*
X170155051Y-111452184D01*
X170155049Y-111452181D01*
X170155048Y-111452179D01*
X170030109Y-111280213D01*
X169879786Y-111129890D01*
X169707820Y-111004951D01*
X169707115Y-111004591D01*
X169699054Y-111000485D01*
X169648259Y-110952512D01*
X169631463Y-110884692D01*
X169653999Y-110818556D01*
X169699054Y-110779515D01*
X169707816Y-110775051D01*
X169769975Y-110729890D01*
X169879786Y-110650109D01*
X169879788Y-110650106D01*
X169879792Y-110650104D01*
X170030104Y-110499792D01*
X170030106Y-110499788D01*
X170030109Y-110499786D01*
X170155048Y-110327820D01*
X170155047Y-110327820D01*
X170155051Y-110327816D01*
X170251557Y-110138412D01*
X170317246Y-109936243D01*
X170350500Y-109726287D01*
X170350500Y-109513713D01*
X170317246Y-109303757D01*
X170251557Y-109101588D01*
X170155051Y-108912184D01*
X170155049Y-108912181D01*
X170155048Y-108912179D01*
X170030109Y-108740213D01*
X169879786Y-108589890D01*
X169707820Y-108464951D01*
X169707115Y-108464591D01*
X169699054Y-108460485D01*
X169648259Y-108412512D01*
X169631463Y-108344692D01*
X169653999Y-108278556D01*
X169699054Y-108239515D01*
X169707816Y-108235051D01*
X169769975Y-108189890D01*
X169879786Y-108110109D01*
X169879788Y-108110106D01*
X169879792Y-108110104D01*
X170030104Y-107959792D01*
X170030106Y-107959788D01*
X170030109Y-107959786D01*
X170155048Y-107787820D01*
X170155047Y-107787820D01*
X170155051Y-107787816D01*
X170251557Y-107598412D01*
X170317246Y-107396243D01*
X170350500Y-107186287D01*
X170350500Y-106973713D01*
X170317246Y-106763757D01*
X170251557Y-106561588D01*
X170155051Y-106372184D01*
X170155049Y-106372181D01*
X170155048Y-106372179D01*
X170030109Y-106200213D01*
X169879786Y-106049890D01*
X169707817Y-105924949D01*
X169698504Y-105920204D01*
X169647707Y-105872230D01*
X169630912Y-105804409D01*
X169653449Y-105738274D01*
X169698507Y-105699232D01*
X169707555Y-105694622D01*
X169761716Y-105655270D01*
X169761717Y-105655270D01*
X169129409Y-105022962D01*
X169192993Y-105005925D01*
X169307007Y-104940099D01*
X169400099Y-104847007D01*
X169465925Y-104732993D01*
X169482962Y-104669408D01*
X170115270Y-105301717D01*
X170115270Y-105301716D01*
X170154622Y-105247554D01*
X170251095Y-105058217D01*
X170316757Y-104856130D01*
X170316757Y-104856127D01*
X170350000Y-104646246D01*
X170350000Y-104433753D01*
X170316757Y-104223872D01*
X170316757Y-104223869D01*
X170251095Y-104021782D01*
X170154624Y-103832449D01*
X170115270Y-103778282D01*
X170115269Y-103778282D01*
X169482962Y-104410590D01*
X169465925Y-104347007D01*
X169400099Y-104232993D01*
X169307007Y-104139901D01*
X169192993Y-104074075D01*
X169129407Y-104057036D01*
X169799627Y-103386818D01*
X169860950Y-103353333D01*
X169887308Y-103350499D01*
X169897871Y-103350499D01*
X169897872Y-103350499D01*
X169957483Y-103344091D01*
X170092331Y-103293796D01*
X170207546Y-103207546D01*
X170293796Y-103092331D01*
X170344091Y-102957483D01*
X170350500Y-102897873D01*
X170350499Y-102621780D01*
X170370183Y-102554742D01*
X170386813Y-102534105D01*
X171818783Y-101102135D01*
X193049500Y-101102135D01*
X193049500Y-102897870D01*
X193049501Y-102897876D01*
X193055908Y-102957483D01*
X193106202Y-103092328D01*
X193106206Y-103092335D01*
X193192452Y-103207544D01*
X193192455Y-103207547D01*
X193307664Y-103293793D01*
X193307671Y-103293797D01*
X193439082Y-103342810D01*
X193495016Y-103384681D01*
X193519433Y-103450145D01*
X193504582Y-103518418D01*
X193483431Y-103546673D01*
X193369889Y-103660215D01*
X193244951Y-103832179D01*
X193148444Y-104021585D01*
X193082753Y-104223760D01*
X193075883Y-104267139D01*
X193049500Y-104433713D01*
X193049500Y-104646287D01*
X193051421Y-104658414D01*
X193082753Y-104856239D01*
X193148444Y-105058414D01*
X193244951Y-105247820D01*
X193369890Y-105419786D01*
X193520213Y-105570109D01*
X193692182Y-105695050D01*
X193700946Y-105699516D01*
X193751742Y-105747491D01*
X193768536Y-105815312D01*
X193745998Y-105881447D01*
X193700946Y-105920484D01*
X193692182Y-105924949D01*
X193520213Y-106049890D01*
X193369890Y-106200213D01*
X193244951Y-106372179D01*
X193148444Y-106561585D01*
X193082753Y-106763760D01*
X193073167Y-106824286D01*
X193049500Y-106973713D01*
X193049500Y-107186287D01*
X193082754Y-107396243D01*
X193143419Y-107582951D01*
X193148444Y-107598414D01*
X193244951Y-107787820D01*
X193369890Y-107959786D01*
X193520213Y-108110109D01*
X193692182Y-108235050D01*
X193700946Y-108239516D01*
X193751742Y-108287491D01*
X193768536Y-108355312D01*
X193745998Y-108421447D01*
X193700946Y-108460484D01*
X193692182Y-108464949D01*
X193520213Y-108589890D01*
X193369890Y-108740213D01*
X193244951Y-108912179D01*
X193148444Y-109101585D01*
X193082753Y-109303760D01*
X193049500Y-109513713D01*
X193049500Y-109726287D01*
X193082754Y-109936243D01*
X193135893Y-110099788D01*
X193148444Y-110138414D01*
X193244951Y-110327820D01*
X193369890Y-110499786D01*
X193520213Y-110650109D01*
X193692182Y-110775050D01*
X193700946Y-110779516D01*
X193751742Y-110827491D01*
X193768536Y-110895312D01*
X193745998Y-110961447D01*
X193700946Y-111000484D01*
X193692182Y-111004949D01*
X193520213Y-111129890D01*
X193369890Y-111280213D01*
X193244951Y-111452179D01*
X193148444Y-111641585D01*
X193148443Y-111641587D01*
X193148443Y-111641588D01*
X193147495Y-111644505D01*
X193082753Y-111843760D01*
X193071864Y-111912514D01*
X193049500Y-112053713D01*
X193049500Y-112266287D01*
X193082754Y-112476243D01*
X193144113Y-112665087D01*
X193148444Y-112678414D01*
X193244951Y-112867820D01*
X193369890Y-113039786D01*
X193520213Y-113190109D01*
X193692179Y-113315048D01*
X193692181Y-113315049D01*
X193692184Y-113315051D01*
X193881588Y-113411557D01*
X194083757Y-113477246D01*
X194293713Y-113510500D01*
X194293714Y-113510500D01*
X194506286Y-113510500D01*
X194506287Y-113510500D01*
X194716243Y-113477246D01*
X194918412Y-113411557D01*
X195107816Y-113315051D01*
X195169975Y-113269890D01*
X195279786Y-113190109D01*
X195279788Y-113190106D01*
X195279792Y-113190104D01*
X195430104Y-113039792D01*
X195430106Y-113039788D01*
X195430109Y-113039786D01*
X195555048Y-112867820D01*
X195555047Y-112867820D01*
X195555051Y-112867816D01*
X195651557Y-112678412D01*
X195717246Y-112476243D01*
X195750500Y-112266287D01*
X195750500Y-112053713D01*
X195717246Y-111843757D01*
X195651557Y-111641588D01*
X195555051Y-111452184D01*
X195555049Y-111452181D01*
X195555048Y-111452179D01*
X195430109Y-111280213D01*
X195279786Y-111129890D01*
X195107820Y-111004951D01*
X195107115Y-111004591D01*
X195099054Y-111000485D01*
X195048259Y-110952512D01*
X195031463Y-110884692D01*
X195053999Y-110818556D01*
X195099054Y-110779515D01*
X195107816Y-110775051D01*
X195169975Y-110729890D01*
X195279786Y-110650109D01*
X195279788Y-110650106D01*
X195279792Y-110650104D01*
X195430104Y-110499792D01*
X195430106Y-110499788D01*
X195430109Y-110499786D01*
X195555048Y-110327820D01*
X195555047Y-110327820D01*
X195555051Y-110327816D01*
X195651557Y-110138412D01*
X195717246Y-109936243D01*
X195750500Y-109726287D01*
X195750500Y-109513713D01*
X195717246Y-109303757D01*
X195651557Y-109101588D01*
X195555051Y-108912184D01*
X195555049Y-108912181D01*
X195555048Y-108912179D01*
X195430109Y-108740213D01*
X195279786Y-108589890D01*
X195107820Y-108464951D01*
X195107115Y-108464591D01*
X195099054Y-108460485D01*
X195048259Y-108412512D01*
X195031463Y-108344692D01*
X195053999Y-108278556D01*
X195099054Y-108239515D01*
X195107816Y-108235051D01*
X195169975Y-108189890D01*
X195279786Y-108110109D01*
X195279788Y-108110106D01*
X195279792Y-108110104D01*
X195430104Y-107959792D01*
X195430106Y-107959788D01*
X195430109Y-107959786D01*
X195555048Y-107787820D01*
X195555047Y-107787820D01*
X195555051Y-107787816D01*
X195651557Y-107598412D01*
X195717246Y-107396243D01*
X195750500Y-107186287D01*
X195750500Y-106973713D01*
X195717246Y-106763757D01*
X195651557Y-106561588D01*
X195555051Y-106372184D01*
X195555049Y-106372181D01*
X195555048Y-106372179D01*
X195430109Y-106200213D01*
X195279786Y-106049890D01*
X195107820Y-105924951D01*
X195107115Y-105924591D01*
X195099054Y-105920485D01*
X195048259Y-105872512D01*
X195031463Y-105804692D01*
X195053999Y-105738556D01*
X195099054Y-105699515D01*
X195107816Y-105695051D01*
X195169975Y-105649890D01*
X195279786Y-105570109D01*
X195279788Y-105570106D01*
X195279792Y-105570104D01*
X195430104Y-105419792D01*
X195430106Y-105419788D01*
X195430109Y-105419786D01*
X195555048Y-105247820D01*
X195555047Y-105247820D01*
X195555051Y-105247816D01*
X195651557Y-105058412D01*
X195717246Y-104856243D01*
X195750500Y-104646287D01*
X195750500Y-104433713D01*
X195717246Y-104223757D01*
X195651557Y-104021588D01*
X195555051Y-103832184D01*
X195555049Y-103832181D01*
X195555048Y-103832179D01*
X195430109Y-103660213D01*
X195316569Y-103546673D01*
X195283084Y-103485350D01*
X195288068Y-103415658D01*
X195329940Y-103359725D01*
X195360915Y-103342810D01*
X195492331Y-103293796D01*
X195607546Y-103207546D01*
X195693796Y-103092331D01*
X195744091Y-102957483D01*
X195750500Y-102897873D01*
X195750499Y-101102128D01*
X195744091Y-101042517D01*
X195723460Y-100987203D01*
X195693797Y-100907671D01*
X195693793Y-100907664D01*
X195607547Y-100792455D01*
X195607544Y-100792452D01*
X195492335Y-100706206D01*
X195492328Y-100706202D01*
X195357482Y-100655908D01*
X195357483Y-100655908D01*
X195297883Y-100649501D01*
X195297881Y-100649500D01*
X195297873Y-100649500D01*
X195297864Y-100649500D01*
X193502129Y-100649500D01*
X193502123Y-100649501D01*
X193442516Y-100655908D01*
X193307671Y-100706202D01*
X193307664Y-100706206D01*
X193192455Y-100792452D01*
X193192452Y-100792455D01*
X193106206Y-100907664D01*
X193106202Y-100907671D01*
X193055908Y-101042517D01*
X193050804Y-101089998D01*
X193049501Y-101102123D01*
X193049500Y-101102135D01*
X171818783Y-101102135D01*
X177253204Y-95667715D01*
X177314525Y-95634232D01*
X177321475Y-95632926D01*
X177469534Y-95609477D01*
X177664219Y-95546220D01*
X177846610Y-95453287D01*
X177967877Y-95365181D01*
X178033683Y-95341702D01*
X178040762Y-95341500D01*
X180257542Y-95341500D01*
X180288566Y-95335328D01*
X180354188Y-95322275D01*
X180450836Y-95303051D01*
X180504165Y-95280961D01*
X180632914Y-95227632D01*
X180796782Y-95118139D01*
X180936139Y-94978782D01*
X180936139Y-94978780D01*
X180946347Y-94968573D01*
X180946348Y-94968570D01*
X186637778Y-89277142D01*
X186637782Y-89277140D01*
X186777140Y-89137782D01*
X186886632Y-88973915D01*
X186962052Y-88791836D01*
X187000501Y-88598541D01*
X187000501Y-88401460D01*
X187000501Y-88401457D01*
X187000500Y-88401455D01*
X186962053Y-88208172D01*
X186962052Y-88208165D01*
X186950938Y-88181333D01*
X186941500Y-88133882D01*
X186941500Y-85276141D01*
X186961185Y-85209102D01*
X187013989Y-85163347D01*
X187022149Y-85159966D01*
X187033331Y-85155796D01*
X187148546Y-85069546D01*
X187234796Y-84954331D01*
X187285091Y-84819483D01*
X187291500Y-84759873D01*
X187291499Y-82964128D01*
X187285091Y-82904517D01*
X187276133Y-82880500D01*
X187234797Y-82769671D01*
X187234793Y-82769664D01*
X187148547Y-82654455D01*
X187148544Y-82654452D01*
X187033335Y-82568206D01*
X187033328Y-82568202D01*
X186898482Y-82517908D01*
X186898483Y-82517908D01*
X186838883Y-82511501D01*
X186838881Y-82511500D01*
X186838873Y-82511500D01*
X186838865Y-82511500D01*
X186828309Y-82511500D01*
X186761270Y-82491815D01*
X186740628Y-82475181D01*
X186070408Y-81804962D01*
X186133993Y-81787925D01*
X186248007Y-81722099D01*
X186341099Y-81629007D01*
X186406925Y-81514993D01*
X186423962Y-81451408D01*
X187056270Y-82083717D01*
X187056270Y-82083716D01*
X187095622Y-82029554D01*
X187192095Y-81840217D01*
X187257757Y-81638130D01*
X187257757Y-81638127D01*
X187291000Y-81428246D01*
X187291000Y-81215753D01*
X187257757Y-81005872D01*
X187257757Y-81005869D01*
X187192095Y-80803782D01*
X187095624Y-80614449D01*
X187056270Y-80560282D01*
X187056269Y-80560282D01*
X186423962Y-81192590D01*
X186406925Y-81129007D01*
X186341099Y-81014993D01*
X186248007Y-80921901D01*
X186133993Y-80856075D01*
X186070409Y-80839037D01*
X186702716Y-80206728D01*
X186648547Y-80167373D01*
X186648547Y-80167372D01*
X186639500Y-80162763D01*
X186588706Y-80114788D01*
X186571912Y-80046966D01*
X186594451Y-79980832D01*
X186639508Y-79941793D01*
X186648816Y-79937051D01*
X186728007Y-79879515D01*
X186820786Y-79812109D01*
X186820788Y-79812106D01*
X186820792Y-79812104D01*
X186971104Y-79661792D01*
X186971106Y-79661788D01*
X186971109Y-79661786D01*
X187096048Y-79489820D01*
X187096047Y-79489820D01*
X187096051Y-79489816D01*
X187192557Y-79300412D01*
X187258246Y-79098243D01*
X187291500Y-78888287D01*
X187291500Y-78675713D01*
X187258246Y-78465757D01*
X187192557Y-78263588D01*
X187096051Y-78074184D01*
X187096049Y-78074181D01*
X187096048Y-78074179D01*
X186971109Y-77902213D01*
X186820794Y-77751898D01*
X186820788Y-77751893D01*
X186742615Y-77695097D01*
X186699949Y-77639767D01*
X186691500Y-77594779D01*
X186691500Y-74453079D01*
X186662659Y-74308092D01*
X186662658Y-74308091D01*
X186662658Y-74308087D01*
X186627505Y-74223219D01*
X186606086Y-74171508D01*
X186541912Y-74075464D01*
X186541912Y-74075463D01*
X186541909Y-74075460D01*
X186523955Y-74048587D01*
X174854079Y-62378711D01*
X191649500Y-62378711D01*
X191649500Y-62621288D01*
X191681161Y-62861785D01*
X191743947Y-63096104D01*
X191807486Y-63249500D01*
X191836776Y-63320212D01*
X191958064Y-63530289D01*
X191958066Y-63530292D01*
X191958067Y-63530293D01*
X192105733Y-63722736D01*
X192105739Y-63722743D01*
X192277256Y-63894260D01*
X192277262Y-63894265D01*
X192469711Y-64041936D01*
X192679788Y-64163224D01*
X192903900Y-64256054D01*
X193138211Y-64318838D01*
X193318586Y-64342584D01*
X193378711Y-64350500D01*
X193378712Y-64350500D01*
X193621289Y-64350500D01*
X193669388Y-64344167D01*
X193861789Y-64318838D01*
X194096100Y-64256054D01*
X194320212Y-64163224D01*
X194530289Y-64041936D01*
X194722738Y-63894265D01*
X194894265Y-63722738D01*
X195041936Y-63530289D01*
X195163224Y-63320212D01*
X195256054Y-63096100D01*
X195318838Y-62861789D01*
X195350500Y-62621288D01*
X195350500Y-62378712D01*
X195318838Y-62138211D01*
X195256054Y-61903900D01*
X195163224Y-61679788D01*
X195041936Y-61469711D01*
X194894265Y-61277262D01*
X194894260Y-61277256D01*
X194722743Y-61105739D01*
X194722736Y-61105733D01*
X194530293Y-60958067D01*
X194530292Y-60958066D01*
X194530289Y-60958064D01*
X194358661Y-60858974D01*
X194320214Y-60836777D01*
X194320205Y-60836773D01*
X194096104Y-60743947D01*
X193861785Y-60681161D01*
X193621289Y-60649500D01*
X193621288Y-60649500D01*
X193378712Y-60649500D01*
X193378711Y-60649500D01*
X193138214Y-60681161D01*
X192903895Y-60743947D01*
X192679794Y-60836773D01*
X192679785Y-60836777D01*
X192469706Y-60958067D01*
X192277263Y-61105733D01*
X192277256Y-61105739D01*
X192105739Y-61277256D01*
X192105733Y-61277263D01*
X191958067Y-61469706D01*
X191836777Y-61679785D01*
X191836773Y-61679794D01*
X191743947Y-61903895D01*
X191681161Y-62138214D01*
X191649500Y-62378711D01*
X174854079Y-62378711D01*
X173065473Y-60590105D01*
X173031988Y-60528782D01*
X173030681Y-60483027D01*
X173039500Y-60427352D01*
X173039500Y-60237648D01*
X175199500Y-60237648D01*
X175199500Y-60442351D01*
X175231522Y-60644534D01*
X175294781Y-60839223D01*
X175343128Y-60934108D01*
X175387585Y-61021359D01*
X175387715Y-61021613D01*
X175508028Y-61187213D01*
X175652786Y-61331971D01*
X175773226Y-61419474D01*
X175818390Y-61452287D01*
X175934607Y-61511503D01*
X176000776Y-61545218D01*
X176000778Y-61545218D01*
X176000781Y-61545220D01*
X176105137Y-61579127D01*
X176195465Y-61608477D01*
X176247263Y-61616681D01*
X176397648Y-61640500D01*
X176397649Y-61640500D01*
X176602351Y-61640500D01*
X176602352Y-61640500D01*
X176804534Y-61608477D01*
X176999219Y-61545220D01*
X177181610Y-61452287D01*
X177274590Y-61384732D01*
X177347213Y-61331971D01*
X177347215Y-61331968D01*
X177347219Y-61331966D01*
X177491966Y-61187219D01*
X177491968Y-61187215D01*
X177491971Y-61187213D01*
X177551167Y-61105735D01*
X177612287Y-61021610D01*
X177705220Y-60839219D01*
X177768477Y-60644534D01*
X177800500Y-60442352D01*
X177800500Y-60237648D01*
X177779779Y-60106823D01*
X177768477Y-60035465D01*
X177706678Y-59845269D01*
X177705220Y-59840781D01*
X177705218Y-59840778D01*
X177705218Y-59840776D01*
X177612419Y-59658650D01*
X177612287Y-59658390D01*
X177580092Y-59614077D01*
X177491971Y-59492786D01*
X177347213Y-59348028D01*
X177181613Y-59227715D01*
X177181612Y-59227714D01*
X177181610Y-59227713D01*
X177123713Y-59198213D01*
X176999223Y-59134781D01*
X176804534Y-59071522D01*
X176629995Y-59043878D01*
X176602352Y-59039500D01*
X176397648Y-59039500D01*
X176373329Y-59043351D01*
X176195465Y-59071522D01*
X176000776Y-59134781D01*
X175818386Y-59227715D01*
X175652786Y-59348028D01*
X175508028Y-59492786D01*
X175387715Y-59658386D01*
X175294781Y-59840776D01*
X175231522Y-60035465D01*
X175199500Y-60237648D01*
X173039500Y-60237648D01*
X173039500Y-60222648D01*
X173007477Y-60020466D01*
X172944220Y-59825781D01*
X172944218Y-59825778D01*
X172944218Y-59825776D01*
X172859062Y-59658650D01*
X172851287Y-59643390D01*
X172829989Y-59614076D01*
X172730971Y-59477786D01*
X172586213Y-59333028D01*
X172420613Y-59212715D01*
X172420612Y-59212714D01*
X172420610Y-59212713D01*
X172363653Y-59183691D01*
X172238223Y-59119781D01*
X172043534Y-59056522D01*
X171868995Y-59028878D01*
X171841352Y-59024500D01*
X171636648Y-59024500D01*
X171612329Y-59028351D01*
X171434465Y-59056522D01*
X171239776Y-59119781D01*
X171057386Y-59212715D01*
X170891786Y-59333028D01*
X170747028Y-59477786D01*
X170626715Y-59643386D01*
X170533781Y-59825776D01*
X170470522Y-60020465D01*
X170438500Y-60222648D01*
X170438500Y-60427351D01*
X170470522Y-60629534D01*
X170533781Y-60824223D01*
X170626715Y-61006613D01*
X170747028Y-61172213D01*
X170891786Y-61316971D01*
X171032872Y-61419474D01*
X171057390Y-61437287D01*
X171121026Y-61469711D01*
X171239776Y-61530218D01*
X171239778Y-61530218D01*
X171239781Y-61530220D01*
X171344137Y-61564127D01*
X171434465Y-61593477D01*
X171518564Y-61606797D01*
X171636648Y-61625500D01*
X171636649Y-61625500D01*
X171841350Y-61625500D01*
X171841352Y-61625500D01*
X171897026Y-61616681D01*
X171966318Y-61625635D01*
X172004105Y-61651473D01*
X185154181Y-74801549D01*
X185187666Y-74862872D01*
X185190500Y-74889230D01*
X185190500Y-77594779D01*
X185170815Y-77661818D01*
X185139385Y-77695097D01*
X185061211Y-77751893D01*
X185061205Y-77751898D01*
X184910890Y-77902213D01*
X184785951Y-78074179D01*
X184689444Y-78263585D01*
X184623753Y-78465760D01*
X184597152Y-78633713D01*
X184590500Y-78675713D01*
X184590500Y-78888287D01*
X184623754Y-79098243D01*
X184675796Y-79258412D01*
X184689444Y-79300414D01*
X184785951Y-79489820D01*
X184910890Y-79661786D01*
X185061213Y-79812109D01*
X185233179Y-79937048D01*
X185233181Y-79937049D01*
X185233184Y-79937051D01*
X185242493Y-79941794D01*
X185293290Y-79989766D01*
X185310087Y-80057587D01*
X185287552Y-80123722D01*
X185242505Y-80162760D01*
X185233446Y-80167376D01*
X185233440Y-80167380D01*
X185179282Y-80206727D01*
X185179282Y-80206728D01*
X185811591Y-80839037D01*
X185748007Y-80856075D01*
X185633993Y-80921901D01*
X185540901Y-81014993D01*
X185475075Y-81129007D01*
X185458037Y-81192591D01*
X184825728Y-80560282D01*
X184825727Y-80560282D01*
X184786380Y-80614439D01*
X184689905Y-80803781D01*
X184656251Y-80907357D01*
X184616813Y-80965032D01*
X184552454Y-80992230D01*
X184483608Y-80980315D01*
X184450639Y-80956719D01*
X183856479Y-80362559D01*
X183856459Y-80362537D01*
X183712785Y-80218863D01*
X183712781Y-80218860D01*
X183548920Y-80109371D01*
X183548911Y-80109366D01*
X183459936Y-80072512D01*
X183420165Y-80056038D01*
X183366836Y-80033949D01*
X183366832Y-80033948D01*
X183366828Y-80033946D01*
X183270188Y-80014724D01*
X183173544Y-79995500D01*
X183173541Y-79995500D01*
X178263782Y-79995500D01*
X178196743Y-79975815D01*
X178150988Y-79923011D01*
X178141044Y-79853853D01*
X178170069Y-79790297D01*
X178176101Y-79783819D01*
X178701508Y-79258412D01*
X180387778Y-77572141D01*
X180387782Y-77572139D01*
X180527139Y-77432782D01*
X180636632Y-77268914D01*
X180712051Y-77086835D01*
X180712092Y-77086632D01*
X180750500Y-76893540D01*
X180750500Y-76696460D01*
X180750500Y-73651459D01*
X180750500Y-73651456D01*
X180731057Y-73553714D01*
X180731057Y-73553713D01*
X180712051Y-73458164D01*
X180664662Y-73343757D01*
X180636632Y-73276086D01*
X180636631Y-73276084D01*
X180636630Y-73276082D01*
X180527139Y-73112218D01*
X180527136Y-73112214D01*
X180384686Y-72969764D01*
X180384655Y-72969735D01*
X177826717Y-70411797D01*
X177793232Y-70350474D01*
X177791925Y-70343513D01*
X177768477Y-70195466D01*
X177768477Y-70195465D01*
X177732855Y-70085833D01*
X177705220Y-70000781D01*
X177705218Y-70000778D01*
X177705218Y-70000776D01*
X177664797Y-69921447D01*
X177612287Y-69818390D01*
X177595134Y-69794781D01*
X177491971Y-69652786D01*
X177347213Y-69508028D01*
X177181613Y-69387715D01*
X177181612Y-69387714D01*
X177181610Y-69387713D01*
X176999219Y-69294780D01*
X176804534Y-69231523D01*
X176804531Y-69231522D01*
X176804532Y-69231522D01*
X176656484Y-69208073D01*
X176593350Y-69178143D01*
X176588202Y-69173281D01*
X171034209Y-63619289D01*
X171034206Y-63619285D01*
X171034206Y-63619286D01*
X171027139Y-63612219D01*
X171027139Y-63612218D01*
X170887782Y-63472861D01*
X170887781Y-63472860D01*
X170887780Y-63472859D01*
X170723920Y-63363371D01*
X170723911Y-63363366D01*
X170651315Y-63333296D01*
X170595165Y-63310038D01*
X170541836Y-63287949D01*
X170541832Y-63287948D01*
X170541828Y-63287946D01*
X170445188Y-63268724D01*
X170348544Y-63249500D01*
X170348541Y-63249500D01*
X132501459Y-63249500D01*
X132501455Y-63249500D01*
X132404812Y-63268724D01*
X132308167Y-63287947D01*
X132308161Y-63287949D01*
X132254834Y-63310037D01*
X132254834Y-63310038D01*
X132209315Y-63328892D01*
X132126089Y-63363366D01*
X132126079Y-63363371D01*
X131962218Y-63472860D01*
X131962214Y-63472863D01*
X130781897Y-64653181D01*
X130720574Y-64686666D01*
X130694216Y-64689500D01*
X129912129Y-64689500D01*
X129912123Y-64689501D01*
X129852516Y-64695908D01*
X129717671Y-64746202D01*
X129717664Y-64746206D01*
X129602455Y-64832452D01*
X129602452Y-64832455D01*
X129516206Y-64947664D01*
X129516202Y-64947671D01*
X129465908Y-65082517D01*
X129459501Y-65142116D01*
X129459500Y-65142135D01*
X102000500Y-65142135D01*
X102000500Y-62378711D01*
X104649500Y-62378711D01*
X104649500Y-62621288D01*
X104681161Y-62861785D01*
X104743947Y-63096104D01*
X104807486Y-63249500D01*
X104836776Y-63320212D01*
X104958064Y-63530289D01*
X104958066Y-63530292D01*
X104958067Y-63530293D01*
X105105733Y-63722736D01*
X105105739Y-63722743D01*
X105277256Y-63894260D01*
X105277262Y-63894265D01*
X105469711Y-64041936D01*
X105679788Y-64163224D01*
X105903900Y-64256054D01*
X106138211Y-64318838D01*
X106318586Y-64342584D01*
X106378711Y-64350500D01*
X106378712Y-64350500D01*
X106621289Y-64350500D01*
X106669388Y-64344167D01*
X106861789Y-64318838D01*
X107096100Y-64256054D01*
X107320212Y-64163224D01*
X107530289Y-64041936D01*
X107722738Y-63894265D01*
X107894265Y-63722738D01*
X108041936Y-63530289D01*
X108163224Y-63320212D01*
X108256054Y-63096100D01*
X108318838Y-62861789D01*
X108350500Y-62621288D01*
X108350500Y-62378712D01*
X108318838Y-62138211D01*
X108256054Y-61903900D01*
X108163224Y-61679788D01*
X108041936Y-61469711D01*
X108041933Y-61469708D01*
X108041932Y-61469705D01*
X108025048Y-61447702D01*
X108025047Y-61447701D01*
X107894266Y-61277263D01*
X107894260Y-61277256D01*
X107722743Y-61105739D01*
X107722736Y-61105733D01*
X107530293Y-60958067D01*
X107530292Y-60958066D01*
X107530289Y-60958064D01*
X107358661Y-60858974D01*
X107320214Y-60836777D01*
X107320205Y-60836773D01*
X107096104Y-60743947D01*
X106861785Y-60681161D01*
X106621289Y-60649500D01*
X106621288Y-60649500D01*
X106378712Y-60649500D01*
X106378711Y-60649500D01*
X106138214Y-60681161D01*
X105903895Y-60743947D01*
X105679794Y-60836773D01*
X105679785Y-60836777D01*
X105469706Y-60958067D01*
X105277263Y-61105733D01*
X105277256Y-61105739D01*
X105105739Y-61277256D01*
X105105733Y-61277263D01*
X104958067Y-61469706D01*
X104836777Y-61679785D01*
X104836773Y-61679794D01*
X104743947Y-61903895D01*
X104681161Y-62138214D01*
X104649500Y-62378711D01*
X102000500Y-62378711D01*
X102000500Y-61003750D01*
X102000726Y-60996263D01*
X102018271Y-60706205D01*
X102020076Y-60691340D01*
X102021942Y-60681161D01*
X102071780Y-60409198D01*
X102075364Y-60394664D01*
X102075988Y-60392661D01*
X102124281Y-60237682D01*
X165705000Y-60237682D01*
X165705000Y-60442317D01*
X165737009Y-60644417D01*
X165800244Y-60839031D01*
X165893141Y-61021350D01*
X165893147Y-61021359D01*
X165925523Y-61065921D01*
X165925524Y-61065922D01*
X166605000Y-60386446D01*
X166605000Y-60392661D01*
X166632259Y-60494394D01*
X166684920Y-60585606D01*
X166759394Y-60660080D01*
X166850606Y-60712741D01*
X166952339Y-60740000D01*
X166958553Y-60740000D01*
X166279076Y-61419474D01*
X166323650Y-61451859D01*
X166505968Y-61544755D01*
X166700582Y-61607990D01*
X166902683Y-61640000D01*
X167107317Y-61640000D01*
X167309417Y-61607990D01*
X167504031Y-61544755D01*
X167686349Y-61451859D01*
X167730921Y-61419474D01*
X167051447Y-60740000D01*
X167057661Y-60740000D01*
X167159394Y-60712741D01*
X167250606Y-60660080D01*
X167325080Y-60585606D01*
X167377741Y-60494394D01*
X167405000Y-60392661D01*
X167405000Y-60386447D01*
X168084474Y-61065921D01*
X168116859Y-61021349D01*
X168209755Y-60839031D01*
X168272990Y-60644417D01*
X168305000Y-60442317D01*
X168305000Y-60237688D01*
X168304920Y-60237184D01*
X168304920Y-60237179D01*
X168304919Y-60237174D01*
X168272990Y-60035582D01*
X168209755Y-59840968D01*
X168116859Y-59658650D01*
X168084474Y-59614077D01*
X168084474Y-59614076D01*
X167405000Y-60293551D01*
X167405000Y-60287339D01*
X167377741Y-60185606D01*
X167325080Y-60094394D01*
X167250606Y-60019920D01*
X167159394Y-59967259D01*
X167057661Y-59940000D01*
X167051446Y-59940000D01*
X167730922Y-59260524D01*
X167730921Y-59260523D01*
X167686359Y-59228147D01*
X167686350Y-59228141D01*
X167504031Y-59135244D01*
X167309417Y-59072009D01*
X167107317Y-59040000D01*
X166902683Y-59040000D01*
X166700582Y-59072009D01*
X166505968Y-59135244D01*
X166323644Y-59228143D01*
X166279077Y-59260523D01*
X166279077Y-59260524D01*
X166958554Y-59940000D01*
X166952339Y-59940000D01*
X166850606Y-59967259D01*
X166759394Y-60019920D01*
X166684920Y-60094394D01*
X166632259Y-60185606D01*
X166605000Y-60287339D01*
X166605000Y-60293553D01*
X165925524Y-59614077D01*
X165925523Y-59614077D01*
X165893143Y-59658644D01*
X165800244Y-59840968D01*
X165737009Y-60035582D01*
X165705000Y-60237682D01*
X102124281Y-60237682D01*
X102160704Y-60120797D01*
X102165997Y-60106842D01*
X102283727Y-59845258D01*
X102290680Y-59832012D01*
X102395484Y-59658644D01*
X102439075Y-59586534D01*
X102447567Y-59574230D01*
X102624481Y-59348417D01*
X102634396Y-59337226D01*
X102837226Y-59134396D01*
X102848417Y-59124481D01*
X103074230Y-58947567D01*
X103086534Y-58939075D01*
X103332012Y-58790680D01*
X103345258Y-58783727D01*
X103606842Y-58665997D01*
X103620812Y-58660699D01*
X103894668Y-58575362D01*
X103909198Y-58571780D01*
X104191344Y-58520075D01*
X104206201Y-58518271D01*
X104496264Y-58500726D01*
X104503751Y-58500500D01*
X104565892Y-58500500D01*
X195434108Y-58500500D01*
X195496249Y-58500500D01*
X195503736Y-58500726D01*
G37*
%TD.AperFunction*%
%TD*%
M02*
