%TF.GenerationSoftware,KiCad,Pcbnew,10.0.0*%
%TF.CreationDate,2026-04-08T19:58:48-07:00*%
%TF.ProjectId,tinyScrubCam_pcb,74696e79-5363-4727-9562-43616d5f7063,rev?*%
%TF.SameCoordinates,Original*%
%TF.FileFunction,Legend,Top*%
%TF.FilePolarity,Positive*%
%FSLAX46Y46*%
G04 Gerber Fmt 4.6, Leading zero omitted, Abs format (unit mm)*
G04 Created by KiCad (PCBNEW 10.0.0) date 2026-04-08 19:58:48*
%MOMM*%
%LPD*%
G01*
G04 APERTURE LIST*
%ADD10C,0.100000*%
%ADD11C,0.300000*%
%ADD12C,0.150000*%
%ADD13C,0.120000*%
%ADD14C,0.000000*%
G04 APERTURE END LIST*
D10*
X165810000Y-99076000D02*
X197010000Y-99076000D01*
X197010000Y-125476000D01*
X165810000Y-125476000D01*
X165810000Y-99076000D01*
X127339000Y-63161000D02*
X159439000Y-63161000D01*
X159439000Y-117761000D01*
X127339000Y-117761000D01*
X127339000Y-63161000D01*
X113161027Y-125966752D02*
X113541979Y-125966752D01*
X113303884Y-125633419D02*
X113303884Y-126490561D01*
X113303884Y-126490561D02*
X113351503Y-126585800D01*
X113351503Y-126585800D02*
X113446741Y-126633419D01*
X113446741Y-126633419D02*
X113541979Y-126633419D01*
X113875313Y-126633419D02*
X113875313Y-125966752D01*
X113875313Y-125633419D02*
X113827694Y-125681038D01*
X113827694Y-125681038D02*
X113875313Y-125728657D01*
X113875313Y-125728657D02*
X113922932Y-125681038D01*
X113922932Y-125681038D02*
X113875313Y-125633419D01*
X113875313Y-125633419D02*
X113875313Y-125728657D01*
X114351503Y-125966752D02*
X114351503Y-126633419D01*
X114351503Y-126061990D02*
X114399122Y-126014371D01*
X114399122Y-126014371D02*
X114494360Y-125966752D01*
X114494360Y-125966752D02*
X114637217Y-125966752D01*
X114637217Y-125966752D02*
X114732455Y-126014371D01*
X114732455Y-126014371D02*
X114780074Y-126109609D01*
X114780074Y-126109609D02*
X114780074Y-126633419D01*
X115161027Y-125966752D02*
X115399122Y-126633419D01*
X115637217Y-125966752D02*
X115399122Y-126633419D01*
X115399122Y-126633419D02*
X115303884Y-126871514D01*
X115303884Y-126871514D02*
X115256265Y-126919133D01*
X115256265Y-126919133D02*
X115161027Y-126966752D01*
X115970551Y-126585800D02*
X116113408Y-126633419D01*
X116113408Y-126633419D02*
X116351503Y-126633419D01*
X116351503Y-126633419D02*
X116446741Y-126585800D01*
X116446741Y-126585800D02*
X116494360Y-126538180D01*
X116494360Y-126538180D02*
X116541979Y-126442942D01*
X116541979Y-126442942D02*
X116541979Y-126347704D01*
X116541979Y-126347704D02*
X116494360Y-126252466D01*
X116494360Y-126252466D02*
X116446741Y-126204847D01*
X116446741Y-126204847D02*
X116351503Y-126157228D01*
X116351503Y-126157228D02*
X116161027Y-126109609D01*
X116161027Y-126109609D02*
X116065789Y-126061990D01*
X116065789Y-126061990D02*
X116018170Y-126014371D01*
X116018170Y-126014371D02*
X115970551Y-125919133D01*
X115970551Y-125919133D02*
X115970551Y-125823895D01*
X115970551Y-125823895D02*
X116018170Y-125728657D01*
X116018170Y-125728657D02*
X116065789Y-125681038D01*
X116065789Y-125681038D02*
X116161027Y-125633419D01*
X116161027Y-125633419D02*
X116399122Y-125633419D01*
X116399122Y-125633419D02*
X116541979Y-125681038D01*
X117399122Y-126585800D02*
X117303884Y-126633419D01*
X117303884Y-126633419D02*
X117113408Y-126633419D01*
X117113408Y-126633419D02*
X117018170Y-126585800D01*
X117018170Y-126585800D02*
X116970551Y-126538180D01*
X116970551Y-126538180D02*
X116922932Y-126442942D01*
X116922932Y-126442942D02*
X116922932Y-126157228D01*
X116922932Y-126157228D02*
X116970551Y-126061990D01*
X116970551Y-126061990D02*
X117018170Y-126014371D01*
X117018170Y-126014371D02*
X117113408Y-125966752D01*
X117113408Y-125966752D02*
X117303884Y-125966752D01*
X117303884Y-125966752D02*
X117399122Y-126014371D01*
X117827694Y-126633419D02*
X117827694Y-125966752D01*
X117827694Y-126157228D02*
X117875313Y-126061990D01*
X117875313Y-126061990D02*
X117922932Y-126014371D01*
X117922932Y-126014371D02*
X118018170Y-125966752D01*
X118018170Y-125966752D02*
X118113408Y-125966752D01*
X118875313Y-125966752D02*
X118875313Y-126633419D01*
X118446742Y-125966752D02*
X118446742Y-126490561D01*
X118446742Y-126490561D02*
X118494361Y-126585800D01*
X118494361Y-126585800D02*
X118589599Y-126633419D01*
X118589599Y-126633419D02*
X118732456Y-126633419D01*
X118732456Y-126633419D02*
X118827694Y-126585800D01*
X118827694Y-126585800D02*
X118875313Y-126538180D01*
X119351504Y-126633419D02*
X119351504Y-125633419D01*
X119351504Y-126014371D02*
X119446742Y-125966752D01*
X119446742Y-125966752D02*
X119637218Y-125966752D01*
X119637218Y-125966752D02*
X119732456Y-126014371D01*
X119732456Y-126014371D02*
X119780075Y-126061990D01*
X119780075Y-126061990D02*
X119827694Y-126157228D01*
X119827694Y-126157228D02*
X119827694Y-126442942D01*
X119827694Y-126442942D02*
X119780075Y-126538180D01*
X119780075Y-126538180D02*
X119732456Y-126585800D01*
X119732456Y-126585800D02*
X119637218Y-126633419D01*
X119637218Y-126633419D02*
X119446742Y-126633419D01*
X119446742Y-126633419D02*
X119351504Y-126585800D01*
X120827694Y-126538180D02*
X120780075Y-126585800D01*
X120780075Y-126585800D02*
X120637218Y-126633419D01*
X120637218Y-126633419D02*
X120541980Y-126633419D01*
X120541980Y-126633419D02*
X120399123Y-126585800D01*
X120399123Y-126585800D02*
X120303885Y-126490561D01*
X120303885Y-126490561D02*
X120256266Y-126395323D01*
X120256266Y-126395323D02*
X120208647Y-126204847D01*
X120208647Y-126204847D02*
X120208647Y-126061990D01*
X120208647Y-126061990D02*
X120256266Y-125871514D01*
X120256266Y-125871514D02*
X120303885Y-125776276D01*
X120303885Y-125776276D02*
X120399123Y-125681038D01*
X120399123Y-125681038D02*
X120541980Y-125633419D01*
X120541980Y-125633419D02*
X120637218Y-125633419D01*
X120637218Y-125633419D02*
X120780075Y-125681038D01*
X120780075Y-125681038D02*
X120827694Y-125728657D01*
X121684837Y-126633419D02*
X121684837Y-126109609D01*
X121684837Y-126109609D02*
X121637218Y-126014371D01*
X121637218Y-126014371D02*
X121541980Y-125966752D01*
X121541980Y-125966752D02*
X121351504Y-125966752D01*
X121351504Y-125966752D02*
X121256266Y-126014371D01*
X121684837Y-126585800D02*
X121589599Y-126633419D01*
X121589599Y-126633419D02*
X121351504Y-126633419D01*
X121351504Y-126633419D02*
X121256266Y-126585800D01*
X121256266Y-126585800D02*
X121208647Y-126490561D01*
X121208647Y-126490561D02*
X121208647Y-126395323D01*
X121208647Y-126395323D02*
X121256266Y-126300085D01*
X121256266Y-126300085D02*
X121351504Y-126252466D01*
X121351504Y-126252466D02*
X121589599Y-126252466D01*
X121589599Y-126252466D02*
X121684837Y-126204847D01*
X122161028Y-126633419D02*
X122161028Y-125966752D01*
X122161028Y-126061990D02*
X122208647Y-126014371D01*
X122208647Y-126014371D02*
X122303885Y-125966752D01*
X122303885Y-125966752D02*
X122446742Y-125966752D01*
X122446742Y-125966752D02*
X122541980Y-126014371D01*
X122541980Y-126014371D02*
X122589599Y-126109609D01*
X122589599Y-126109609D02*
X122589599Y-126633419D01*
X122589599Y-126109609D02*
X122637218Y-126014371D01*
X122637218Y-126014371D02*
X122732456Y-125966752D01*
X122732456Y-125966752D02*
X122875313Y-125966752D01*
X122875313Y-125966752D02*
X122970552Y-126014371D01*
X122970552Y-126014371D02*
X123018171Y-126109609D01*
X123018171Y-126109609D02*
X123018171Y-126633419D01*
X124161028Y-125966752D02*
X124399123Y-126633419D01*
X124399123Y-126633419D02*
X124637218Y-125966752D01*
X125541980Y-126633419D02*
X124970552Y-126633419D01*
X125256266Y-126633419D02*
X125256266Y-125633419D01*
X125256266Y-125633419D02*
X125161028Y-125776276D01*
X125161028Y-125776276D02*
X125065790Y-125871514D01*
X125065790Y-125871514D02*
X124970552Y-125919133D01*
X125970552Y-126538180D02*
X126018171Y-126585800D01*
X126018171Y-126585800D02*
X125970552Y-126633419D01*
X125970552Y-126633419D02*
X125922933Y-126585800D01*
X125922933Y-126585800D02*
X125970552Y-126538180D01*
X125970552Y-126538180D02*
X125970552Y-126633419D01*
X126970551Y-126633419D02*
X126399123Y-126633419D01*
X126684837Y-126633419D02*
X126684837Y-125633419D01*
X126684837Y-125633419D02*
X126589599Y-125776276D01*
X126589599Y-125776276D02*
X126494361Y-125871514D01*
X126494361Y-125871514D02*
X126399123Y-125919133D01*
X167790074Y-98048419D02*
X167313884Y-98048419D01*
X167313884Y-98048419D02*
X167313884Y-97048419D01*
X168266265Y-98048419D02*
X168171027Y-98000800D01*
X168171027Y-98000800D02*
X168123408Y-97953180D01*
X168123408Y-97953180D02*
X168075789Y-97857942D01*
X168075789Y-97857942D02*
X168075789Y-97572228D01*
X168075789Y-97572228D02*
X168123408Y-97476990D01*
X168123408Y-97476990D02*
X168171027Y-97429371D01*
X168171027Y-97429371D02*
X168266265Y-97381752D01*
X168266265Y-97381752D02*
X168409122Y-97381752D01*
X168409122Y-97381752D02*
X168504360Y-97429371D01*
X168504360Y-97429371D02*
X168551979Y-97476990D01*
X168551979Y-97476990D02*
X168599598Y-97572228D01*
X168599598Y-97572228D02*
X168599598Y-97857942D01*
X168599598Y-97857942D02*
X168551979Y-97953180D01*
X168551979Y-97953180D02*
X168504360Y-98000800D01*
X168504360Y-98000800D02*
X168409122Y-98048419D01*
X168409122Y-98048419D02*
X168266265Y-98048419D01*
X169599598Y-98048419D02*
X169266265Y-97572228D01*
X169028170Y-98048419D02*
X169028170Y-97048419D01*
X169028170Y-97048419D02*
X169409122Y-97048419D01*
X169409122Y-97048419D02*
X169504360Y-97096038D01*
X169504360Y-97096038D02*
X169551979Y-97143657D01*
X169551979Y-97143657D02*
X169599598Y-97238895D01*
X169599598Y-97238895D02*
X169599598Y-97381752D01*
X169599598Y-97381752D02*
X169551979Y-97476990D01*
X169551979Y-97476990D02*
X169504360Y-97524609D01*
X169504360Y-97524609D02*
X169409122Y-97572228D01*
X169409122Y-97572228D02*
X169028170Y-97572228D01*
X170456741Y-98048419D02*
X170456741Y-97524609D01*
X170456741Y-97524609D02*
X170409122Y-97429371D01*
X170409122Y-97429371D02*
X170313884Y-97381752D01*
X170313884Y-97381752D02*
X170123408Y-97381752D01*
X170123408Y-97381752D02*
X170028170Y-97429371D01*
X170456741Y-98000800D02*
X170361503Y-98048419D01*
X170361503Y-98048419D02*
X170123408Y-98048419D01*
X170123408Y-98048419D02*
X170028170Y-98000800D01*
X170028170Y-98000800D02*
X169980551Y-97905561D01*
X169980551Y-97905561D02*
X169980551Y-97810323D01*
X169980551Y-97810323D02*
X170028170Y-97715085D01*
X170028170Y-97715085D02*
X170123408Y-97667466D01*
X170123408Y-97667466D02*
X170361503Y-97667466D01*
X170361503Y-97667466D02*
X170456741Y-97619847D01*
X170837694Y-97048419D02*
X171075789Y-98048419D01*
X171075789Y-98048419D02*
X171266265Y-97334133D01*
X171266265Y-97334133D02*
X171456741Y-98048419D01*
X171456741Y-98048419D02*
X171694837Y-97048419D01*
X172028170Y-97762704D02*
X172504360Y-97762704D01*
X171932932Y-98048419D02*
X172266265Y-97048419D01*
X172266265Y-97048419D02*
X172599598Y-98048419D01*
X172932932Y-98048419D02*
X172932932Y-97048419D01*
X172932932Y-97048419D02*
X173504360Y-98048419D01*
X173504360Y-98048419D02*
X173504360Y-97048419D01*
X174790075Y-98048419D02*
X174980551Y-98048419D01*
X174980551Y-98048419D02*
X175075789Y-98000800D01*
X175075789Y-98000800D02*
X175123408Y-97953180D01*
X175123408Y-97953180D02*
X175218646Y-97810323D01*
X175218646Y-97810323D02*
X175266265Y-97619847D01*
X175266265Y-97619847D02*
X175266265Y-97238895D01*
X175266265Y-97238895D02*
X175218646Y-97143657D01*
X175218646Y-97143657D02*
X175171027Y-97096038D01*
X175171027Y-97096038D02*
X175075789Y-97048419D01*
X175075789Y-97048419D02*
X174885313Y-97048419D01*
X174885313Y-97048419D02*
X174790075Y-97096038D01*
X174790075Y-97096038D02*
X174742456Y-97143657D01*
X174742456Y-97143657D02*
X174694837Y-97238895D01*
X174694837Y-97238895D02*
X174694837Y-97476990D01*
X174694837Y-97476990D02*
X174742456Y-97572228D01*
X174742456Y-97572228D02*
X174790075Y-97619847D01*
X174790075Y-97619847D02*
X174885313Y-97667466D01*
X174885313Y-97667466D02*
X175075789Y-97667466D01*
X175075789Y-97667466D02*
X175171027Y-97619847D01*
X175171027Y-97619847D02*
X175218646Y-97572228D01*
X175218646Y-97572228D02*
X175266265Y-97476990D01*
X176218646Y-98048419D02*
X175647218Y-98048419D01*
X175932932Y-98048419D02*
X175932932Y-97048419D01*
X175932932Y-97048419D02*
X175837694Y-97191276D01*
X175837694Y-97191276D02*
X175742456Y-97286514D01*
X175742456Y-97286514D02*
X175647218Y-97334133D01*
X177123408Y-97048419D02*
X176647218Y-97048419D01*
X176647218Y-97048419D02*
X176599599Y-97524609D01*
X176599599Y-97524609D02*
X176647218Y-97476990D01*
X176647218Y-97476990D02*
X176742456Y-97429371D01*
X176742456Y-97429371D02*
X176980551Y-97429371D01*
X176980551Y-97429371D02*
X177075789Y-97476990D01*
X177075789Y-97476990D02*
X177123408Y-97524609D01*
X177123408Y-97524609D02*
X177171027Y-97619847D01*
X177171027Y-97619847D02*
X177171027Y-97857942D01*
X177171027Y-97857942D02*
X177123408Y-97953180D01*
X177123408Y-97953180D02*
X177075789Y-98000800D01*
X177075789Y-98000800D02*
X176980551Y-98048419D01*
X176980551Y-98048419D02*
X176742456Y-98048419D01*
X176742456Y-98048419D02*
X176647218Y-98000800D01*
X176647218Y-98000800D02*
X176599599Y-97953180D01*
X177599599Y-98048419D02*
X177599599Y-97048419D01*
X177599599Y-97048419D02*
X177932932Y-97762704D01*
X177932932Y-97762704D02*
X178266265Y-97048419D01*
X178266265Y-97048419D02*
X178266265Y-98048419D01*
X178742456Y-98048419D02*
X178742456Y-97048419D01*
X178742456Y-97524609D02*
X179313884Y-97524609D01*
X179313884Y-98048419D02*
X179313884Y-97048419D01*
X179694837Y-97381752D02*
X180218646Y-97381752D01*
X180218646Y-97381752D02*
X179694837Y-98048419D01*
X179694837Y-98048419D02*
X180218646Y-98048419D01*
D11*
X119111653Y-119961828D02*
X119468796Y-121461828D01*
X119468796Y-121461828D02*
X119754510Y-120390400D01*
X119754510Y-120390400D02*
X120040225Y-121461828D01*
X120040225Y-121461828D02*
X120397368Y-119961828D01*
X120968796Y-121461828D02*
X120968796Y-120461828D01*
X120968796Y-119961828D02*
X120897368Y-120033257D01*
X120897368Y-120033257D02*
X120968796Y-120104685D01*
X120968796Y-120104685D02*
X121040225Y-120033257D01*
X121040225Y-120033257D02*
X120968796Y-119961828D01*
X120968796Y-119961828D02*
X120968796Y-120104685D01*
X121897368Y-121461828D02*
X121754511Y-121390400D01*
X121754511Y-121390400D02*
X121683082Y-121247542D01*
X121683082Y-121247542D02*
X121683082Y-119961828D01*
X123111654Y-121461828D02*
X123111654Y-119961828D01*
X123111654Y-121390400D02*
X122968796Y-121461828D01*
X122968796Y-121461828D02*
X122683082Y-121461828D01*
X122683082Y-121461828D02*
X122540225Y-121390400D01*
X122540225Y-121390400D02*
X122468796Y-121318971D01*
X122468796Y-121318971D02*
X122397368Y-121176114D01*
X122397368Y-121176114D02*
X122397368Y-120747542D01*
X122397368Y-120747542D02*
X122468796Y-120604685D01*
X122468796Y-120604685D02*
X122540225Y-120533257D01*
X122540225Y-120533257D02*
X122683082Y-120461828D01*
X122683082Y-120461828D02*
X122968796Y-120461828D01*
X122968796Y-120461828D02*
X123111654Y-120533257D01*
X123754511Y-121390400D02*
X123897368Y-121461828D01*
X123897368Y-121461828D02*
X124183082Y-121461828D01*
X124183082Y-121461828D02*
X124325939Y-121390400D01*
X124325939Y-121390400D02*
X124397368Y-121247542D01*
X124397368Y-121247542D02*
X124397368Y-121176114D01*
X124397368Y-121176114D02*
X124325939Y-121033257D01*
X124325939Y-121033257D02*
X124183082Y-120961828D01*
X124183082Y-120961828D02*
X123968797Y-120961828D01*
X123968797Y-120961828D02*
X123825939Y-120890400D01*
X123825939Y-120890400D02*
X123754511Y-120747542D01*
X123754511Y-120747542D02*
X123754511Y-120676114D01*
X123754511Y-120676114D02*
X123825939Y-120533257D01*
X123825939Y-120533257D02*
X123968797Y-120461828D01*
X123968797Y-120461828D02*
X124183082Y-120461828D01*
X124183082Y-120461828D02*
X124325939Y-120533257D01*
X125040225Y-121461828D02*
X125040225Y-120461828D01*
X125040225Y-119961828D02*
X124968797Y-120033257D01*
X124968797Y-120033257D02*
X125040225Y-120104685D01*
X125040225Y-120104685D02*
X125111654Y-120033257D01*
X125111654Y-120033257D02*
X125040225Y-119961828D01*
X125040225Y-119961828D02*
X125040225Y-120104685D01*
X126397369Y-120461828D02*
X126397369Y-121676114D01*
X126397369Y-121676114D02*
X126325940Y-121818971D01*
X126325940Y-121818971D02*
X126254511Y-121890400D01*
X126254511Y-121890400D02*
X126111654Y-121961828D01*
X126111654Y-121961828D02*
X125897369Y-121961828D01*
X125897369Y-121961828D02*
X125754511Y-121890400D01*
X126397369Y-121390400D02*
X126254511Y-121461828D01*
X126254511Y-121461828D02*
X125968797Y-121461828D01*
X125968797Y-121461828D02*
X125825940Y-121390400D01*
X125825940Y-121390400D02*
X125754511Y-121318971D01*
X125754511Y-121318971D02*
X125683083Y-121176114D01*
X125683083Y-121176114D02*
X125683083Y-120747542D01*
X125683083Y-120747542D02*
X125754511Y-120604685D01*
X125754511Y-120604685D02*
X125825940Y-120533257D01*
X125825940Y-120533257D02*
X125968797Y-120461828D01*
X125968797Y-120461828D02*
X126254511Y-120461828D01*
X126254511Y-120461828D02*
X126397369Y-120533257D01*
X127111654Y-121461828D02*
X127111654Y-119961828D01*
X127754512Y-121461828D02*
X127754512Y-120676114D01*
X127754512Y-120676114D02*
X127683083Y-120533257D01*
X127683083Y-120533257D02*
X127540226Y-120461828D01*
X127540226Y-120461828D02*
X127325940Y-120461828D01*
X127325940Y-120461828D02*
X127183083Y-120533257D01*
X127183083Y-120533257D02*
X127111654Y-120604685D01*
X128254512Y-120461828D02*
X128825940Y-120461828D01*
X128468797Y-119961828D02*
X128468797Y-121247542D01*
X128468797Y-121247542D02*
X128540226Y-121390400D01*
X128540226Y-121390400D02*
X128683083Y-121461828D01*
X128683083Y-121461828D02*
X128825940Y-121461828D01*
X120840225Y-117561828D02*
X121697368Y-117561828D01*
X121268796Y-119061828D02*
X121268796Y-117561828D01*
X122768796Y-118990400D02*
X122625939Y-119061828D01*
X122625939Y-119061828D02*
X122340225Y-119061828D01*
X122340225Y-119061828D02*
X122197367Y-118990400D01*
X122197367Y-118990400D02*
X122125939Y-118847542D01*
X122125939Y-118847542D02*
X122125939Y-118276114D01*
X122125939Y-118276114D02*
X122197367Y-118133257D01*
X122197367Y-118133257D02*
X122340225Y-118061828D01*
X122340225Y-118061828D02*
X122625939Y-118061828D01*
X122625939Y-118061828D02*
X122768796Y-118133257D01*
X122768796Y-118133257D02*
X122840225Y-118276114D01*
X122840225Y-118276114D02*
X122840225Y-118418971D01*
X122840225Y-118418971D02*
X122125939Y-118561828D01*
X124125939Y-119061828D02*
X124125939Y-118276114D01*
X124125939Y-118276114D02*
X124054510Y-118133257D01*
X124054510Y-118133257D02*
X123911653Y-118061828D01*
X123911653Y-118061828D02*
X123625939Y-118061828D01*
X123625939Y-118061828D02*
X123483081Y-118133257D01*
X124125939Y-118990400D02*
X123983081Y-119061828D01*
X123983081Y-119061828D02*
X123625939Y-119061828D01*
X123625939Y-119061828D02*
X123483081Y-118990400D01*
X123483081Y-118990400D02*
X123411653Y-118847542D01*
X123411653Y-118847542D02*
X123411653Y-118704685D01*
X123411653Y-118704685D02*
X123483081Y-118561828D01*
X123483081Y-118561828D02*
X123625939Y-118490400D01*
X123625939Y-118490400D02*
X123983081Y-118490400D01*
X123983081Y-118490400D02*
X124125939Y-118418971D01*
X124840224Y-119061828D02*
X124840224Y-118061828D01*
X124840224Y-118204685D02*
X124911653Y-118133257D01*
X124911653Y-118133257D02*
X125054510Y-118061828D01*
X125054510Y-118061828D02*
X125268796Y-118061828D01*
X125268796Y-118061828D02*
X125411653Y-118133257D01*
X125411653Y-118133257D02*
X125483082Y-118276114D01*
X125483082Y-118276114D02*
X125483082Y-119061828D01*
X125483082Y-118276114D02*
X125554510Y-118133257D01*
X125554510Y-118133257D02*
X125697367Y-118061828D01*
X125697367Y-118061828D02*
X125911653Y-118061828D01*
X125911653Y-118061828D02*
X126054510Y-118133257D01*
X126054510Y-118133257D02*
X126125939Y-118276114D01*
X126125939Y-118276114D02*
X126125939Y-119061828D01*
D12*
X114833333Y-75954819D02*
X114500000Y-75478628D01*
X114261905Y-75954819D02*
X114261905Y-74954819D01*
X114261905Y-74954819D02*
X114642857Y-74954819D01*
X114642857Y-74954819D02*
X114738095Y-75002438D01*
X114738095Y-75002438D02*
X114785714Y-75050057D01*
X114785714Y-75050057D02*
X114833333Y-75145295D01*
X114833333Y-75145295D02*
X114833333Y-75288152D01*
X114833333Y-75288152D02*
X114785714Y-75383390D01*
X114785714Y-75383390D02*
X114738095Y-75431009D01*
X114738095Y-75431009D02*
X114642857Y-75478628D01*
X114642857Y-75478628D02*
X114261905Y-75478628D01*
X115261905Y-75954819D02*
X115261905Y-74954819D01*
X115261905Y-74954819D02*
X115642857Y-74954819D01*
X115642857Y-74954819D02*
X115738095Y-75002438D01*
X115738095Y-75002438D02*
X115785714Y-75050057D01*
X115785714Y-75050057D02*
X115833333Y-75145295D01*
X115833333Y-75145295D02*
X115833333Y-75288152D01*
X115833333Y-75288152D02*
X115785714Y-75383390D01*
X115785714Y-75383390D02*
X115738095Y-75431009D01*
X115738095Y-75431009D02*
X115642857Y-75478628D01*
X115642857Y-75478628D02*
X115261905Y-75478628D01*
X116261905Y-75954819D02*
X116261905Y-74954819D01*
X116261905Y-74954819D02*
X116500000Y-74954819D01*
X116500000Y-74954819D02*
X116642857Y-75002438D01*
X116642857Y-75002438D02*
X116738095Y-75097676D01*
X116738095Y-75097676D02*
X116785714Y-75192914D01*
X116785714Y-75192914D02*
X116833333Y-75383390D01*
X116833333Y-75383390D02*
X116833333Y-75526247D01*
X116833333Y-75526247D02*
X116785714Y-75716723D01*
X116785714Y-75716723D02*
X116738095Y-75811961D01*
X116738095Y-75811961D02*
X116642857Y-75907200D01*
X116642857Y-75907200D02*
X116500000Y-75954819D01*
X116500000Y-75954819D02*
X116261905Y-75954819D01*
X117785714Y-75954819D02*
X117214286Y-75954819D01*
X117500000Y-75954819D02*
X117500000Y-74954819D01*
X117500000Y-74954819D02*
X117404762Y-75097676D01*
X117404762Y-75097676D02*
X117309524Y-75192914D01*
X117309524Y-75192914D02*
X117214286Y-75240533D01*
X113595237Y-71454819D02*
X113261904Y-70978628D01*
X113023809Y-71454819D02*
X113023809Y-70454819D01*
X113023809Y-70454819D02*
X113404761Y-70454819D01*
X113404761Y-70454819D02*
X113499999Y-70502438D01*
X113499999Y-70502438D02*
X113547618Y-70550057D01*
X113547618Y-70550057D02*
X113595237Y-70645295D01*
X113595237Y-70645295D02*
X113595237Y-70788152D01*
X113595237Y-70788152D02*
X113547618Y-70883390D01*
X113547618Y-70883390D02*
X113499999Y-70931009D01*
X113499999Y-70931009D02*
X113404761Y-70978628D01*
X113404761Y-70978628D02*
X113023809Y-70978628D01*
X113785714Y-71550057D02*
X114547618Y-71550057D01*
X115119047Y-70931009D02*
X115261904Y-70978628D01*
X115261904Y-70978628D02*
X115309523Y-71026247D01*
X115309523Y-71026247D02*
X115357142Y-71121485D01*
X115357142Y-71121485D02*
X115357142Y-71264342D01*
X115357142Y-71264342D02*
X115309523Y-71359580D01*
X115309523Y-71359580D02*
X115261904Y-71407200D01*
X115261904Y-71407200D02*
X115166666Y-71454819D01*
X115166666Y-71454819D02*
X114785714Y-71454819D01*
X114785714Y-71454819D02*
X114785714Y-70454819D01*
X114785714Y-70454819D02*
X115119047Y-70454819D01*
X115119047Y-70454819D02*
X115214285Y-70502438D01*
X115214285Y-70502438D02*
X115261904Y-70550057D01*
X115261904Y-70550057D02*
X115309523Y-70645295D01*
X115309523Y-70645295D02*
X115309523Y-70740533D01*
X115309523Y-70740533D02*
X115261904Y-70835771D01*
X115261904Y-70835771D02*
X115214285Y-70883390D01*
X115214285Y-70883390D02*
X115119047Y-70931009D01*
X115119047Y-70931009D02*
X114785714Y-70931009D01*
X115738095Y-71169104D02*
X116214285Y-71169104D01*
X115642857Y-71454819D02*
X115976190Y-70454819D01*
X115976190Y-70454819D02*
X116309523Y-71454819D01*
X116595238Y-71407200D02*
X116738095Y-71454819D01*
X116738095Y-71454819D02*
X116976190Y-71454819D01*
X116976190Y-71454819D02*
X117071428Y-71407200D01*
X117071428Y-71407200D02*
X117119047Y-71359580D01*
X117119047Y-71359580D02*
X117166666Y-71264342D01*
X117166666Y-71264342D02*
X117166666Y-71169104D01*
X117166666Y-71169104D02*
X117119047Y-71073866D01*
X117119047Y-71073866D02*
X117071428Y-71026247D01*
X117071428Y-71026247D02*
X116976190Y-70978628D01*
X116976190Y-70978628D02*
X116785714Y-70931009D01*
X116785714Y-70931009D02*
X116690476Y-70883390D01*
X116690476Y-70883390D02*
X116642857Y-70835771D01*
X116642857Y-70835771D02*
X116595238Y-70740533D01*
X116595238Y-70740533D02*
X116595238Y-70645295D01*
X116595238Y-70645295D02*
X116642857Y-70550057D01*
X116642857Y-70550057D02*
X116690476Y-70502438D01*
X116690476Y-70502438D02*
X116785714Y-70454819D01*
X116785714Y-70454819D02*
X117023809Y-70454819D01*
X117023809Y-70454819D02*
X117166666Y-70502438D01*
X117595238Y-70931009D02*
X117928571Y-70931009D01*
X118071428Y-71454819D02*
X117595238Y-71454819D01*
X117595238Y-71454819D02*
X117595238Y-70454819D01*
X117595238Y-70454819D02*
X118071428Y-70454819D01*
X119023809Y-71454819D02*
X118452381Y-71454819D01*
X118738095Y-71454819D02*
X118738095Y-70454819D01*
X118738095Y-70454819D02*
X118642857Y-70597676D01*
X118642857Y-70597676D02*
X118547619Y-70692914D01*
X118547619Y-70692914D02*
X118452381Y-70740533D01*
X177619819Y-90451476D02*
X177143628Y-90784809D01*
X177619819Y-91022904D02*
X176619819Y-91022904D01*
X176619819Y-91022904D02*
X176619819Y-90641952D01*
X176619819Y-90641952D02*
X176667438Y-90546714D01*
X176667438Y-90546714D02*
X176715057Y-90499095D01*
X176715057Y-90499095D02*
X176810295Y-90451476D01*
X176810295Y-90451476D02*
X176953152Y-90451476D01*
X176953152Y-90451476D02*
X177048390Y-90499095D01*
X177048390Y-90499095D02*
X177096009Y-90546714D01*
X177096009Y-90546714D02*
X177143628Y-90641952D01*
X177143628Y-90641952D02*
X177143628Y-91022904D01*
X177619819Y-90022904D02*
X176619819Y-90022904D01*
X176619819Y-90022904D02*
X176619819Y-89641952D01*
X176619819Y-89641952D02*
X176667438Y-89546714D01*
X176667438Y-89546714D02*
X176715057Y-89499095D01*
X176715057Y-89499095D02*
X176810295Y-89451476D01*
X176810295Y-89451476D02*
X176953152Y-89451476D01*
X176953152Y-89451476D02*
X177048390Y-89499095D01*
X177048390Y-89499095D02*
X177096009Y-89546714D01*
X177096009Y-89546714D02*
X177143628Y-89641952D01*
X177143628Y-89641952D02*
X177143628Y-90022904D01*
X176619819Y-89022904D02*
X177429342Y-89022904D01*
X177429342Y-89022904D02*
X177524580Y-88975285D01*
X177524580Y-88975285D02*
X177572200Y-88927666D01*
X177572200Y-88927666D02*
X177619819Y-88832428D01*
X177619819Y-88832428D02*
X177619819Y-88641952D01*
X177619819Y-88641952D02*
X177572200Y-88546714D01*
X177572200Y-88546714D02*
X177524580Y-88499095D01*
X177524580Y-88499095D02*
X177429342Y-88451476D01*
X177429342Y-88451476D02*
X176619819Y-88451476D01*
X177619819Y-87451476D02*
X177619819Y-88022904D01*
X177619819Y-87737190D02*
X176619819Y-87737190D01*
X176619819Y-87737190D02*
X176762676Y-87832428D01*
X176762676Y-87832428D02*
X176857914Y-87927666D01*
X176857914Y-87927666D02*
X176905533Y-88022904D01*
X167459819Y-89427666D02*
X166983628Y-89760999D01*
X167459819Y-89999094D02*
X166459819Y-89999094D01*
X166459819Y-89999094D02*
X166459819Y-89618142D01*
X166459819Y-89618142D02*
X166507438Y-89522904D01*
X166507438Y-89522904D02*
X166555057Y-89475285D01*
X166555057Y-89475285D02*
X166650295Y-89427666D01*
X166650295Y-89427666D02*
X166793152Y-89427666D01*
X166793152Y-89427666D02*
X166888390Y-89475285D01*
X166888390Y-89475285D02*
X166936009Y-89522904D01*
X166936009Y-89522904D02*
X166983628Y-89618142D01*
X166983628Y-89618142D02*
X166983628Y-89999094D01*
X166555057Y-89046713D02*
X166507438Y-88999094D01*
X166507438Y-88999094D02*
X166459819Y-88903856D01*
X166459819Y-88903856D02*
X166459819Y-88665761D01*
X166459819Y-88665761D02*
X166507438Y-88570523D01*
X166507438Y-88570523D02*
X166555057Y-88522904D01*
X166555057Y-88522904D02*
X166650295Y-88475285D01*
X166650295Y-88475285D02*
X166745533Y-88475285D01*
X166745533Y-88475285D02*
X166888390Y-88522904D01*
X166888390Y-88522904D02*
X167459819Y-89094332D01*
X167459819Y-89094332D02*
X167459819Y-88475285D01*
X109144761Y-97474819D02*
X109144761Y-98189104D01*
X109144761Y-98189104D02*
X109097142Y-98331961D01*
X109097142Y-98331961D02*
X109001904Y-98427200D01*
X109001904Y-98427200D02*
X108859047Y-98474819D01*
X108859047Y-98474819D02*
X108763809Y-98474819D01*
X109382857Y-98570057D02*
X110144761Y-98570057D01*
X110382857Y-98474819D02*
X110382857Y-97474819D01*
X111430475Y-98474819D02*
X111097142Y-97998628D01*
X110859047Y-98474819D02*
X110859047Y-97474819D01*
X110859047Y-97474819D02*
X111239999Y-97474819D01*
X111239999Y-97474819D02*
X111335237Y-97522438D01*
X111335237Y-97522438D02*
X111382856Y-97570057D01*
X111382856Y-97570057D02*
X111430475Y-97665295D01*
X111430475Y-97665295D02*
X111430475Y-97808152D01*
X111430475Y-97808152D02*
X111382856Y-97903390D01*
X111382856Y-97903390D02*
X111335237Y-97951009D01*
X111335237Y-97951009D02*
X111239999Y-97998628D01*
X111239999Y-97998628D02*
X110859047Y-97998628D01*
X111620952Y-98570057D02*
X112382856Y-98570057D01*
X112954285Y-97951009D02*
X112620952Y-97951009D01*
X112620952Y-98474819D02*
X112620952Y-97474819D01*
X112620952Y-97474819D02*
X113097142Y-97474819D01*
X113954285Y-98474819D02*
X113478095Y-98474819D01*
X113478095Y-98474819D02*
X113478095Y-97474819D01*
X114240000Y-98189104D02*
X114716190Y-98189104D01*
X114144762Y-98474819D02*
X114478095Y-97474819D01*
X114478095Y-97474819D02*
X114811428Y-98474819D01*
X115097143Y-98427200D02*
X115240000Y-98474819D01*
X115240000Y-98474819D02*
X115478095Y-98474819D01*
X115478095Y-98474819D02*
X115573333Y-98427200D01*
X115573333Y-98427200D02*
X115620952Y-98379580D01*
X115620952Y-98379580D02*
X115668571Y-98284342D01*
X115668571Y-98284342D02*
X115668571Y-98189104D01*
X115668571Y-98189104D02*
X115620952Y-98093866D01*
X115620952Y-98093866D02*
X115573333Y-98046247D01*
X115573333Y-98046247D02*
X115478095Y-97998628D01*
X115478095Y-97998628D02*
X115287619Y-97951009D01*
X115287619Y-97951009D02*
X115192381Y-97903390D01*
X115192381Y-97903390D02*
X115144762Y-97855771D01*
X115144762Y-97855771D02*
X115097143Y-97760533D01*
X115097143Y-97760533D02*
X115097143Y-97665295D01*
X115097143Y-97665295D02*
X115144762Y-97570057D01*
X115144762Y-97570057D02*
X115192381Y-97522438D01*
X115192381Y-97522438D02*
X115287619Y-97474819D01*
X115287619Y-97474819D02*
X115525714Y-97474819D01*
X115525714Y-97474819D02*
X115668571Y-97522438D01*
X116097143Y-98474819D02*
X116097143Y-97474819D01*
X116097143Y-97951009D02*
X116668571Y-97951009D01*
X116668571Y-98474819D02*
X116668571Y-97474819D01*
X117668571Y-98474819D02*
X117097143Y-98474819D01*
X117382857Y-98474819D02*
X117382857Y-97474819D01*
X117382857Y-97474819D02*
X117287619Y-97617676D01*
X117287619Y-97617676D02*
X117192381Y-97712914D01*
X117192381Y-97712914D02*
X117097143Y-97760533D01*
X138071428Y-124054819D02*
X138071428Y-124769104D01*
X138071428Y-124769104D02*
X138023809Y-124911961D01*
X138023809Y-124911961D02*
X137928571Y-125007200D01*
X137928571Y-125007200D02*
X137785714Y-125054819D01*
X137785714Y-125054819D02*
X137690476Y-125054819D01*
X138309524Y-125150057D02*
X139071428Y-125150057D01*
X139309524Y-125054819D02*
X139309524Y-124054819D01*
X139309524Y-124054819D02*
X139690476Y-124054819D01*
X139690476Y-124054819D02*
X139785714Y-124102438D01*
X139785714Y-124102438D02*
X139833333Y-124150057D01*
X139833333Y-124150057D02*
X139880952Y-124245295D01*
X139880952Y-124245295D02*
X139880952Y-124388152D01*
X139880952Y-124388152D02*
X139833333Y-124483390D01*
X139833333Y-124483390D02*
X139785714Y-124531009D01*
X139785714Y-124531009D02*
X139690476Y-124578628D01*
X139690476Y-124578628D02*
X139309524Y-124578628D01*
X140214286Y-124054819D02*
X140452381Y-125054819D01*
X140452381Y-125054819D02*
X140642857Y-124340533D01*
X140642857Y-124340533D02*
X140833333Y-125054819D01*
X140833333Y-125054819D02*
X141071429Y-124054819D01*
X142023809Y-125054819D02*
X141690476Y-124578628D01*
X141452381Y-125054819D02*
X141452381Y-124054819D01*
X141452381Y-124054819D02*
X141833333Y-124054819D01*
X141833333Y-124054819D02*
X141928571Y-124102438D01*
X141928571Y-124102438D02*
X141976190Y-124150057D01*
X141976190Y-124150057D02*
X142023809Y-124245295D01*
X142023809Y-124245295D02*
X142023809Y-124388152D01*
X142023809Y-124388152D02*
X141976190Y-124483390D01*
X141976190Y-124483390D02*
X141928571Y-124531009D01*
X141928571Y-124531009D02*
X141833333Y-124578628D01*
X141833333Y-124578628D02*
X141452381Y-124578628D01*
X142214286Y-125150057D02*
X142976190Y-125150057D01*
X143214286Y-125054819D02*
X143214286Y-124054819D01*
X143690476Y-125054819D02*
X143690476Y-124054819D01*
X143690476Y-124054819D02*
X144261904Y-125054819D01*
X144261904Y-125054819D02*
X144261904Y-124054819D01*
X145261904Y-125054819D02*
X144690476Y-125054819D01*
X144976190Y-125054819D02*
X144976190Y-124054819D01*
X144976190Y-124054819D02*
X144880952Y-124197676D01*
X144880952Y-124197676D02*
X144785714Y-124292914D01*
X144785714Y-124292914D02*
X144690476Y-124340533D01*
X183988619Y-86086819D02*
X183988619Y-86801104D01*
X183988619Y-86801104D02*
X183941000Y-86943961D01*
X183941000Y-86943961D02*
X183845762Y-87039200D01*
X183845762Y-87039200D02*
X183702905Y-87086819D01*
X183702905Y-87086819D02*
X183607667Y-87086819D01*
X184226715Y-87182057D02*
X184988619Y-87182057D01*
X185226715Y-87086819D02*
X185226715Y-86086819D01*
X185226715Y-86086819D02*
X185607667Y-86086819D01*
X185607667Y-86086819D02*
X185702905Y-86134438D01*
X185702905Y-86134438D02*
X185750524Y-86182057D01*
X185750524Y-86182057D02*
X185798143Y-86277295D01*
X185798143Y-86277295D02*
X185798143Y-86420152D01*
X185798143Y-86420152D02*
X185750524Y-86515390D01*
X185750524Y-86515390D02*
X185702905Y-86563009D01*
X185702905Y-86563009D02*
X185607667Y-86610628D01*
X185607667Y-86610628D02*
X185226715Y-86610628D01*
X186226715Y-87086819D02*
X186226715Y-86086819D01*
X187274333Y-87086819D02*
X186941000Y-86610628D01*
X186702905Y-87086819D02*
X186702905Y-86086819D01*
X186702905Y-86086819D02*
X187083857Y-86086819D01*
X187083857Y-86086819D02*
X187179095Y-86134438D01*
X187179095Y-86134438D02*
X187226714Y-86182057D01*
X187226714Y-86182057D02*
X187274333Y-86277295D01*
X187274333Y-86277295D02*
X187274333Y-86420152D01*
X187274333Y-86420152D02*
X187226714Y-86515390D01*
X187226714Y-86515390D02*
X187179095Y-86563009D01*
X187179095Y-86563009D02*
X187083857Y-86610628D01*
X187083857Y-86610628D02*
X186702905Y-86610628D01*
X188226714Y-87086819D02*
X187655286Y-87086819D01*
X187941000Y-87086819D02*
X187941000Y-86086819D01*
X187941000Y-86086819D02*
X187845762Y-86229676D01*
X187845762Y-86229676D02*
X187750524Y-86324914D01*
X187750524Y-86324914D02*
X187655286Y-86372533D01*
X177333819Y-77947904D02*
X178143342Y-77947904D01*
X178143342Y-77947904D02*
X178238580Y-77900285D01*
X178238580Y-77900285D02*
X178286200Y-77852666D01*
X178286200Y-77852666D02*
X178333819Y-77757428D01*
X178333819Y-77757428D02*
X178333819Y-77566952D01*
X178333819Y-77566952D02*
X178286200Y-77471714D01*
X178286200Y-77471714D02*
X178238580Y-77424095D01*
X178238580Y-77424095D02*
X178143342Y-77376476D01*
X178143342Y-77376476D02*
X177333819Y-77376476D01*
X177429057Y-76947904D02*
X177381438Y-76900285D01*
X177381438Y-76900285D02*
X177333819Y-76805047D01*
X177333819Y-76805047D02*
X177333819Y-76566952D01*
X177333819Y-76566952D02*
X177381438Y-76471714D01*
X177381438Y-76471714D02*
X177429057Y-76424095D01*
X177429057Y-76424095D02*
X177524295Y-76376476D01*
X177524295Y-76376476D02*
X177619533Y-76376476D01*
X177619533Y-76376476D02*
X177762390Y-76424095D01*
X177762390Y-76424095D02*
X178333819Y-76995523D01*
X178333819Y-76995523D02*
X178333819Y-76376476D01*
X115943761Y-78550057D02*
X115848523Y-78502438D01*
X115848523Y-78502438D02*
X115753285Y-78407200D01*
X115753285Y-78407200D02*
X115610428Y-78264342D01*
X115610428Y-78264342D02*
X115515190Y-78216723D01*
X115515190Y-78216723D02*
X115419952Y-78216723D01*
X115467571Y-78454819D02*
X115372333Y-78407200D01*
X115372333Y-78407200D02*
X115277095Y-78311961D01*
X115277095Y-78311961D02*
X115229476Y-78121485D01*
X115229476Y-78121485D02*
X115229476Y-77788152D01*
X115229476Y-77788152D02*
X115277095Y-77597676D01*
X115277095Y-77597676D02*
X115372333Y-77502438D01*
X115372333Y-77502438D02*
X115467571Y-77454819D01*
X115467571Y-77454819D02*
X115658047Y-77454819D01*
X115658047Y-77454819D02*
X115753285Y-77502438D01*
X115753285Y-77502438D02*
X115848523Y-77597676D01*
X115848523Y-77597676D02*
X115896142Y-77788152D01*
X115896142Y-77788152D02*
X115896142Y-78121485D01*
X115896142Y-78121485D02*
X115848523Y-78311961D01*
X115848523Y-78311961D02*
X115753285Y-78407200D01*
X115753285Y-78407200D02*
X115658047Y-78454819D01*
X115658047Y-78454819D02*
X115467571Y-78454819D01*
X116848523Y-78454819D02*
X116277095Y-78454819D01*
X116562809Y-78454819D02*
X116562809Y-77454819D01*
X116562809Y-77454819D02*
X116467571Y-77597676D01*
X116467571Y-77597676D02*
X116372333Y-77692914D01*
X116372333Y-77692914D02*
X116277095Y-77740533D01*
X174584819Y-65586666D02*
X174108628Y-65919999D01*
X174584819Y-66158094D02*
X173584819Y-66158094D01*
X173584819Y-66158094D02*
X173584819Y-65777142D01*
X173584819Y-65777142D02*
X173632438Y-65681904D01*
X173632438Y-65681904D02*
X173680057Y-65634285D01*
X173680057Y-65634285D02*
X173775295Y-65586666D01*
X173775295Y-65586666D02*
X173918152Y-65586666D01*
X173918152Y-65586666D02*
X174013390Y-65634285D01*
X174013390Y-65634285D02*
X174061009Y-65681904D01*
X174061009Y-65681904D02*
X174108628Y-65777142D01*
X174108628Y-65777142D02*
X174108628Y-66158094D01*
X173584819Y-65253332D02*
X173584819Y-64634285D01*
X173584819Y-64634285D02*
X173965771Y-64967618D01*
X173965771Y-64967618D02*
X173965771Y-64824761D01*
X173965771Y-64824761D02*
X174013390Y-64729523D01*
X174013390Y-64729523D02*
X174061009Y-64681904D01*
X174061009Y-64681904D02*
X174156247Y-64634285D01*
X174156247Y-64634285D02*
X174394342Y-64634285D01*
X174394342Y-64634285D02*
X174489580Y-64681904D01*
X174489580Y-64681904D02*
X174537200Y-64729523D01*
X174537200Y-64729523D02*
X174584819Y-64824761D01*
X174584819Y-64824761D02*
X174584819Y-65110475D01*
X174584819Y-65110475D02*
X174537200Y-65205713D01*
X174537200Y-65205713D02*
X174489580Y-65253332D01*
X172539819Y-90856238D02*
X172063628Y-91189571D01*
X172539819Y-91427666D02*
X171539819Y-91427666D01*
X171539819Y-91427666D02*
X171539819Y-91046714D01*
X171539819Y-91046714D02*
X171587438Y-90951476D01*
X171587438Y-90951476D02*
X171635057Y-90903857D01*
X171635057Y-90903857D02*
X171730295Y-90856238D01*
X171730295Y-90856238D02*
X171873152Y-90856238D01*
X171873152Y-90856238D02*
X171968390Y-90903857D01*
X171968390Y-90903857D02*
X172016009Y-90951476D01*
X172016009Y-90951476D02*
X172063628Y-91046714D01*
X172063628Y-91046714D02*
X172063628Y-91427666D01*
X172539819Y-90427666D02*
X171539819Y-90427666D01*
X172016009Y-90427666D02*
X172016009Y-89856238D01*
X172539819Y-89856238D02*
X171539819Y-89856238D01*
X172063628Y-89189571D02*
X172539819Y-89189571D01*
X171539819Y-89522904D02*
X172063628Y-89189571D01*
X172063628Y-89189571D02*
X171539819Y-88856238D01*
X172492200Y-88570523D02*
X172539819Y-88427666D01*
X172539819Y-88427666D02*
X172539819Y-88189571D01*
X172539819Y-88189571D02*
X172492200Y-88094333D01*
X172492200Y-88094333D02*
X172444580Y-88046714D01*
X172444580Y-88046714D02*
X172349342Y-87999095D01*
X172349342Y-87999095D02*
X172254104Y-87999095D01*
X172254104Y-87999095D02*
X172158866Y-88046714D01*
X172158866Y-88046714D02*
X172111247Y-88094333D01*
X172111247Y-88094333D02*
X172063628Y-88189571D01*
X172063628Y-88189571D02*
X172016009Y-88380047D01*
X172016009Y-88380047D02*
X171968390Y-88475285D01*
X171968390Y-88475285D02*
X171920771Y-88522904D01*
X171920771Y-88522904D02*
X171825533Y-88570523D01*
X171825533Y-88570523D02*
X171730295Y-88570523D01*
X171730295Y-88570523D02*
X171635057Y-88522904D01*
X171635057Y-88522904D02*
X171587438Y-88475285D01*
X171587438Y-88475285D02*
X171539819Y-88380047D01*
X171539819Y-88380047D02*
X171539819Y-88141952D01*
X171539819Y-88141952D02*
X171587438Y-87999095D01*
X172539819Y-87046714D02*
X172539819Y-87618142D01*
X172539819Y-87332428D02*
X171539819Y-87332428D01*
X171539819Y-87332428D02*
X171682676Y-87427666D01*
X171682676Y-87427666D02*
X171777914Y-87522904D01*
X171777914Y-87522904D02*
X171825533Y-87618142D01*
X167459819Y-65586666D02*
X166983628Y-65919999D01*
X167459819Y-66158094D02*
X166459819Y-66158094D01*
X166459819Y-66158094D02*
X166459819Y-65777142D01*
X166459819Y-65777142D02*
X166507438Y-65681904D01*
X166507438Y-65681904D02*
X166555057Y-65634285D01*
X166555057Y-65634285D02*
X166650295Y-65586666D01*
X166650295Y-65586666D02*
X166793152Y-65586666D01*
X166793152Y-65586666D02*
X166888390Y-65634285D01*
X166888390Y-65634285D02*
X166936009Y-65681904D01*
X166936009Y-65681904D02*
X166983628Y-65777142D01*
X166983628Y-65777142D02*
X166983628Y-66158094D01*
X166793152Y-64729523D02*
X167459819Y-64729523D01*
X166412200Y-64967618D02*
X167126485Y-65205713D01*
X167126485Y-65205713D02*
X167126485Y-64586666D01*
X109834238Y-87475819D02*
X109834238Y-88190104D01*
X109834238Y-88190104D02*
X109786619Y-88332961D01*
X109786619Y-88332961D02*
X109691381Y-88428200D01*
X109691381Y-88428200D02*
X109548524Y-88475819D01*
X109548524Y-88475819D02*
X109453286Y-88475819D01*
X110072334Y-88571057D02*
X110834238Y-88571057D01*
X111072334Y-88475819D02*
X111072334Y-87475819D01*
X112119952Y-88475819D02*
X111786619Y-87999628D01*
X111548524Y-88475819D02*
X111548524Y-87475819D01*
X111548524Y-87475819D02*
X111929476Y-87475819D01*
X111929476Y-87475819D02*
X112024714Y-87523438D01*
X112024714Y-87523438D02*
X112072333Y-87571057D01*
X112072333Y-87571057D02*
X112119952Y-87666295D01*
X112119952Y-87666295D02*
X112119952Y-87809152D01*
X112119952Y-87809152D02*
X112072333Y-87904390D01*
X112072333Y-87904390D02*
X112024714Y-87952009D01*
X112024714Y-87952009D02*
X111929476Y-87999628D01*
X111929476Y-87999628D02*
X111548524Y-87999628D01*
X112310429Y-88571057D02*
X113072333Y-88571057D01*
X113310429Y-88475819D02*
X113310429Y-87475819D01*
X113310429Y-87475819D02*
X113691381Y-87475819D01*
X113691381Y-87475819D02*
X113786619Y-87523438D01*
X113786619Y-87523438D02*
X113834238Y-87571057D01*
X113834238Y-87571057D02*
X113881857Y-87666295D01*
X113881857Y-87666295D02*
X113881857Y-87809152D01*
X113881857Y-87809152D02*
X113834238Y-87904390D01*
X113834238Y-87904390D02*
X113786619Y-87952009D01*
X113786619Y-87952009D02*
X113691381Y-87999628D01*
X113691381Y-87999628D02*
X113310429Y-87999628D01*
X114215191Y-87475819D02*
X114453286Y-88475819D01*
X114453286Y-88475819D02*
X114643762Y-87761533D01*
X114643762Y-87761533D02*
X114834238Y-88475819D01*
X114834238Y-88475819D02*
X115072334Y-87475819D01*
X116024714Y-88475819D02*
X115691381Y-87999628D01*
X115453286Y-88475819D02*
X115453286Y-87475819D01*
X115453286Y-87475819D02*
X115834238Y-87475819D01*
X115834238Y-87475819D02*
X115929476Y-87523438D01*
X115929476Y-87523438D02*
X115977095Y-87571057D01*
X115977095Y-87571057D02*
X116024714Y-87666295D01*
X116024714Y-87666295D02*
X116024714Y-87809152D01*
X116024714Y-87809152D02*
X115977095Y-87904390D01*
X115977095Y-87904390D02*
X115929476Y-87952009D01*
X115929476Y-87952009D02*
X115834238Y-87999628D01*
X115834238Y-87999628D02*
X115453286Y-87999628D01*
X116977095Y-88475819D02*
X116405667Y-88475819D01*
X116691381Y-88475819D02*
X116691381Y-87475819D01*
X116691381Y-87475819D02*
X116596143Y-87618676D01*
X116596143Y-87618676D02*
X116500905Y-87713914D01*
X116500905Y-87713914D02*
X116405667Y-87761533D01*
X172193819Y-65571666D02*
X171717628Y-65904999D01*
X172193819Y-66143094D02*
X171193819Y-66143094D01*
X171193819Y-66143094D02*
X171193819Y-65762142D01*
X171193819Y-65762142D02*
X171241438Y-65666904D01*
X171241438Y-65666904D02*
X171289057Y-65619285D01*
X171289057Y-65619285D02*
X171384295Y-65571666D01*
X171384295Y-65571666D02*
X171527152Y-65571666D01*
X171527152Y-65571666D02*
X171622390Y-65619285D01*
X171622390Y-65619285D02*
X171670009Y-65666904D01*
X171670009Y-65666904D02*
X171717628Y-65762142D01*
X171717628Y-65762142D02*
X171717628Y-66143094D01*
X172193819Y-64619285D02*
X172193819Y-65190713D01*
X172193819Y-64904999D02*
X171193819Y-64904999D01*
X171193819Y-64904999D02*
X171336676Y-65000237D01*
X171336676Y-65000237D02*
X171431914Y-65095475D01*
X171431914Y-65095475D02*
X171479533Y-65190713D01*
%TO.C,J_LORA_MAIN1*%
D13*
X170380000Y-103270000D02*
X170380000Y-123700000D01*
X167620000Y-123700000D02*
X170380000Y-123700000D01*
X167620000Y-103270000D02*
X170380000Y-103270000D01*
X167620000Y-103270000D02*
X167620000Y-123700000D01*
X167620000Y-102000000D02*
X167620000Y-100620000D01*
X167620000Y-100620000D02*
X169000000Y-100620000D01*
%TO.C,RPD1*%
X111960000Y-75500000D02*
X112730000Y-75500000D01*
X120040000Y-75500000D02*
X119270000Y-75500000D01*
X112730000Y-74130000D02*
X119270000Y-74130000D01*
X119270000Y-76870000D01*
X112730000Y-76870000D01*
X112730000Y-74130000D01*
%TO.C,J_ESP32_L1*%
X129430000Y-64660000D02*
X130810000Y-64660000D01*
X129430000Y-66040000D02*
X129430000Y-64660000D01*
X129430000Y-67310000D02*
X129430000Y-115680000D01*
X129430000Y-67310000D02*
X132190000Y-67310000D01*
X129430000Y-115680000D02*
X132190000Y-115680000D01*
X132190000Y-67310000D02*
X132190000Y-115680000D01*
%TO.C,R_BASE1*%
X111960000Y-71000000D02*
X112730000Y-71000000D01*
X120040000Y-71000000D02*
X119270000Y-71000000D01*
X112730000Y-69630000D02*
X119270000Y-69630000D01*
X119270000Y-72370000D01*
X112730000Y-72370000D01*
X112730000Y-69630000D01*
%TO.C,RPU1*%
X177165000Y-85221000D02*
X177165000Y-85991000D01*
X177165000Y-93301000D02*
X177165000Y-92531000D01*
X175795000Y-85991000D02*
X178535000Y-85991000D01*
X178535000Y-92531000D01*
X175795000Y-92531000D01*
X175795000Y-85991000D01*
%TO.C,R2*%
X167005000Y-85221000D02*
X167005000Y-85991000D01*
X167005000Y-93301000D02*
X167005000Y-92531000D01*
X165635000Y-85991000D02*
X168375000Y-85991000D01*
X168375000Y-92531000D01*
X165635000Y-92531000D01*
X165635000Y-85991000D01*
D14*
%TO.C,G\u002A\u002A\u002A*%
G36*
X111567693Y-115570752D02*
G01*
X111597595Y-115593907D01*
X111613626Y-115609548D01*
X111653922Y-115664241D01*
X111665701Y-115721359D01*
X111649721Y-115784875D01*
X111647810Y-115789165D01*
X111613002Y-115833356D01*
X111561815Y-115860307D01*
X111502601Y-115868513D01*
X111443713Y-115856469D01*
X111404514Y-115833012D01*
X111364098Y-115781639D01*
X111350170Y-115720878D01*
X111362772Y-115659598D01*
X111390944Y-115610117D01*
X111429505Y-115581030D01*
X111486832Y-115566419D01*
X111496381Y-115565242D01*
X111538300Y-115562839D01*
X111567693Y-115570752D01*
G37*
G36*
X114840758Y-114606321D02*
G01*
X114937617Y-114640784D01*
X115025773Y-114697374D01*
X115101120Y-114775154D01*
X115158525Y-114870920D01*
X115183733Y-114956128D01*
X115190211Y-115052788D01*
X115178077Y-115149902D01*
X115154791Y-115221104D01*
X115112183Y-115291734D01*
X115051431Y-115360300D01*
X114981074Y-115418796D01*
X114909646Y-115459214D01*
X114895024Y-115464754D01*
X114814496Y-115482012D01*
X114722762Y-115485976D01*
X114633995Y-115476685D01*
X114585416Y-115463849D01*
X114520189Y-115429894D01*
X114452535Y-115376705D01*
X114390837Y-115312295D01*
X114343475Y-115244677D01*
X114331553Y-115221104D01*
X114301252Y-115118713D01*
X114297500Y-115012311D01*
X114319073Y-114907268D01*
X114364748Y-114808951D01*
X114433300Y-114722730D01*
X114448402Y-114708524D01*
X114539018Y-114645087D01*
X114637353Y-114607533D01*
X114739301Y-114594924D01*
X114840758Y-114606321D01*
G37*
G36*
X112245138Y-122071024D02*
G01*
X112490265Y-122073535D01*
X112746056Y-122078052D01*
X113008799Y-122084494D01*
X113274785Y-122092785D01*
X113540303Y-122102845D01*
X113801642Y-122114596D01*
X114055093Y-122127960D01*
X114296191Y-122142809D01*
X114557936Y-122162395D01*
X114828461Y-122186699D01*
X115103871Y-122215176D01*
X115380274Y-122247280D01*
X115653774Y-122282466D01*
X115920480Y-122320190D01*
X116176496Y-122359905D01*
X116417928Y-122401067D01*
X116640884Y-122443130D01*
X116841470Y-122485550D01*
X116980113Y-122518590D01*
X117084462Y-122544994D01*
X116921486Y-122674777D01*
X116821447Y-122751271D01*
X116703983Y-122835925D01*
X116576402Y-122923847D01*
X116446012Y-123010151D01*
X116320124Y-123089948D01*
X116206044Y-123158349D01*
X116157588Y-123185720D01*
X115822357Y-123353677D01*
X115472096Y-123497028D01*
X115108388Y-123615313D01*
X114732819Y-123708075D01*
X114346975Y-123774855D01*
X113988401Y-123812650D01*
X113891424Y-123818301D01*
X113780256Y-123822314D01*
X113662768Y-123824621D01*
X113546829Y-123825159D01*
X113440311Y-123823862D01*
X113351083Y-123820665D01*
X113314195Y-123818235D01*
X113070900Y-123795581D01*
X112850813Y-123768840D01*
X112648001Y-123737091D01*
X112456531Y-123699415D01*
X112286601Y-123659064D01*
X111932077Y-123555661D01*
X111590836Y-123430482D01*
X111260730Y-123282341D01*
X110939612Y-123110051D01*
X110916537Y-123095541D01*
X115056187Y-123095541D01*
X115064302Y-123101962D01*
X115094613Y-123119484D01*
X115143175Y-123145948D01*
X115206042Y-123179196D01*
X115263965Y-123209219D01*
X115340708Y-123249259D01*
X115411304Y-123287180D01*
X115470280Y-123319958D01*
X115512161Y-123344573D01*
X115527785Y-123354883D01*
X115562656Y-123379175D01*
X115577524Y-123386244D01*
X115570858Y-123376500D01*
X115542008Y-123351073D01*
X115516956Y-123334246D01*
X115472854Y-123308245D01*
X115414876Y-123275792D01*
X115348198Y-123239610D01*
X115277998Y-123202422D01*
X115209451Y-123166950D01*
X115147732Y-123135916D01*
X115098019Y-123112044D01*
X115065487Y-123098055D01*
X115056187Y-123095541D01*
X110916537Y-123095541D01*
X110625335Y-122912427D01*
X110315751Y-122688282D01*
X110008713Y-122436429D01*
X109900908Y-122341023D01*
X109896720Y-122337247D01*
X112225062Y-122337247D01*
X112243914Y-122342922D01*
X112284230Y-122350757D01*
X112324870Y-122357288D01*
X112810942Y-122438451D01*
X113271967Y-122531937D01*
X113707579Y-122637650D01*
X114117410Y-122755496D01*
X114501095Y-122885379D01*
X114787190Y-122997147D01*
X114888689Y-123038935D01*
X114963605Y-123068780D01*
X115011905Y-123086670D01*
X115033554Y-123092594D01*
X115028520Y-123086539D01*
X115004547Y-123072676D01*
X114968085Y-123055210D01*
X114909282Y-123029759D01*
X114833339Y-122998370D01*
X114745460Y-122963087D01*
X114650847Y-122925956D01*
X114554703Y-122889022D01*
X114462230Y-122854330D01*
X114378630Y-122823926D01*
X114318938Y-122803151D01*
X114236639Y-122776467D01*
X114132980Y-122744551D01*
X114015002Y-122709425D01*
X113889748Y-122673111D01*
X113764259Y-122637632D01*
X113645575Y-122605011D01*
X113540739Y-122577271D01*
X113476218Y-122561075D01*
X113381402Y-122539026D01*
X113272076Y-122515201D01*
X113152122Y-122490306D01*
X113025421Y-122465046D01*
X112895855Y-122440129D01*
X112767306Y-122416259D01*
X112643654Y-122394144D01*
X112528781Y-122374489D01*
X112426568Y-122357999D01*
X112340898Y-122345382D01*
X112275650Y-122337343D01*
X112234707Y-122334588D01*
X112231461Y-122334652D01*
X112225062Y-122337247D01*
X109896720Y-122337247D01*
X109831191Y-122278161D01*
X111677129Y-122278161D01*
X111698147Y-122282742D01*
X111741294Y-122289289D01*
X111803059Y-122297252D01*
X111855857Y-122303414D01*
X111961776Y-122314830D01*
X112048839Y-122323200D01*
X112114882Y-122328373D01*
X112157737Y-122330200D01*
X112175240Y-122328534D01*
X112170975Y-122325105D01*
X112148539Y-122320669D01*
X112103238Y-122314500D01*
X112041422Y-122307233D01*
X111969444Y-122299506D01*
X111893655Y-122291953D01*
X111820407Y-122285211D01*
X111756051Y-122279918D01*
X111706938Y-122276708D01*
X111681753Y-122276098D01*
X111677129Y-122278161D01*
X109831191Y-122278161D01*
X109770714Y-122223630D01*
X109809382Y-122215850D01*
X110082400Y-122215850D01*
X110096432Y-122219552D01*
X110136028Y-122222987D01*
X110197440Y-122226002D01*
X110276919Y-122228445D01*
X110370716Y-122230163D01*
X110452481Y-122230907D01*
X110577657Y-122232346D01*
X110715030Y-122235247D01*
X110854882Y-122239316D01*
X110987496Y-122244261D01*
X111103152Y-122249788D01*
X111130352Y-122251350D01*
X111229425Y-122257037D01*
X111325020Y-122262040D01*
X111410917Y-122266071D01*
X111480893Y-122268840D01*
X111528730Y-122270058D01*
X111533410Y-122270088D01*
X111628678Y-122270335D01*
X111511425Y-122259199D01*
X111433026Y-122252664D01*
X111337896Y-122246218D01*
X111229341Y-122239963D01*
X111110665Y-122233998D01*
X110985173Y-122228423D01*
X110856171Y-122223339D01*
X110726963Y-122218846D01*
X110600854Y-122215044D01*
X110481150Y-122212034D01*
X110371155Y-122209916D01*
X110274174Y-122208790D01*
X110193513Y-122208756D01*
X110132475Y-122209914D01*
X110094367Y-122212366D01*
X110082400Y-122215850D01*
X109809382Y-122215850D01*
X109820296Y-122213654D01*
X109861941Y-122207215D01*
X109929379Y-122199186D01*
X110019154Y-122189847D01*
X110127804Y-122179477D01*
X110251871Y-122168354D01*
X110387897Y-122156758D01*
X110532420Y-122144968D01*
X110681983Y-122133262D01*
X110833127Y-122121920D01*
X110982391Y-122111220D01*
X111126317Y-122101442D01*
X111261446Y-122092864D01*
X111384318Y-122085766D01*
X111445470Y-122082591D01*
X111610840Y-122076300D01*
X111801715Y-122072328D01*
X112014385Y-122070595D01*
X112245138Y-122071024D01*
G37*
G36*
X113457522Y-113610146D02*
G01*
X113521140Y-113644445D01*
X113569085Y-113695398D01*
X113599438Y-113757925D01*
X113610279Y-113826944D01*
X113599690Y-113897373D01*
X113565752Y-113964130D01*
X113532537Y-114001087D01*
X113508079Y-114024751D01*
X113493319Y-114046019D01*
X113485809Y-114073083D01*
X113483101Y-114114133D01*
X113482747Y-114167695D01*
X113482747Y-114288696D01*
X113520061Y-114244350D01*
X113587200Y-114186665D01*
X113677064Y-114144835D01*
X113787100Y-114119875D01*
X113847771Y-114114102D01*
X113977733Y-114106692D01*
X113985658Y-114047607D01*
X114008762Y-113974046D01*
X114057932Y-113910614D01*
X114089477Y-113884294D01*
X114100966Y-113876423D01*
X114114096Y-113870079D01*
X114131891Y-113865121D01*
X114157372Y-113861411D01*
X114193562Y-113858809D01*
X114243483Y-113857173D01*
X114310157Y-113856365D01*
X114396608Y-113856243D01*
X114505857Y-113856669D01*
X114640926Y-113857502D01*
X114664416Y-113857658D01*
X114812081Y-113858742D01*
X114933341Y-113860106D01*
X115031102Y-113862174D01*
X115108271Y-113865369D01*
X115167755Y-113870117D01*
X115212462Y-113876840D01*
X115245299Y-113885964D01*
X115269173Y-113897911D01*
X115286991Y-113913107D01*
X115301660Y-113931974D01*
X115314601Y-113952491D01*
X115336699Y-114000145D01*
X115351417Y-114051640D01*
X115351596Y-114052680D01*
X115360803Y-114107174D01*
X115597972Y-114113576D01*
X115710857Y-114118278D01*
X115799277Y-114126487D01*
X115868004Y-114139620D01*
X115921814Y-114159092D01*
X115965478Y-114186319D01*
X116003770Y-114222718D01*
X116016707Y-114237790D01*
X116033678Y-114259279D01*
X116047874Y-114280811D01*
X116059542Y-114305094D01*
X116068929Y-114334839D01*
X116076284Y-114372755D01*
X116081854Y-114421552D01*
X116085885Y-114483940D01*
X116088626Y-114562630D01*
X116090323Y-114660330D01*
X116091225Y-114779751D01*
X116091579Y-114923603D01*
X116091633Y-115058409D01*
X116091633Y-115717045D01*
X116053011Y-115794548D01*
X115997435Y-115874770D01*
X115921940Y-115937572D01*
X115844117Y-115973883D01*
X115812551Y-115979149D01*
X115753208Y-115983984D01*
X115667624Y-115988321D01*
X115557333Y-115992097D01*
X115423870Y-115995245D01*
X115288504Y-115997445D01*
X114785836Y-116004167D01*
X114790177Y-116534026D01*
X114794518Y-117063885D01*
X114900048Y-117345825D01*
X114966336Y-117520628D01*
X115024711Y-117669448D01*
X115076051Y-117794267D01*
X115121233Y-117897066D01*
X115161137Y-117979825D01*
X115196641Y-118044526D01*
X115228623Y-118093149D01*
X115235352Y-118101985D01*
X115268960Y-118142725D01*
X115296523Y-118172366D01*
X115312523Y-118185016D01*
X115313239Y-118185120D01*
X115325609Y-118172852D01*
X115344544Y-118141114D01*
X115360659Y-118108172D01*
X115371581Y-118082658D01*
X115380015Y-118057686D01*
X115386344Y-118029033D01*
X115390947Y-117992477D01*
X115394207Y-117943795D01*
X115396505Y-117878765D01*
X115398221Y-117793162D01*
X115399737Y-117682766D01*
X115399845Y-117674009D01*
X115404249Y-117316793D01*
X115300913Y-117210222D01*
X115197576Y-117103651D01*
X115197576Y-116865471D01*
X115197576Y-116627292D01*
X115145360Y-116581768D01*
X115097754Y-116523241D01*
X115075324Y-116456715D01*
X115077143Y-116387532D01*
X115102286Y-116321032D01*
X115149824Y-116262557D01*
X115207605Y-116222918D01*
X115270353Y-116206221D01*
X115337221Y-116215178D01*
X115402036Y-116247997D01*
X115451080Y-116293533D01*
X115488470Y-116358800D01*
X115500010Y-116430086D01*
X115486238Y-116500641D01*
X115447690Y-116563714D01*
X115428062Y-116583106D01*
X115380785Y-116624185D01*
X115385240Y-116825552D01*
X115389695Y-117026919D01*
X115458554Y-117101807D01*
X115527413Y-117176694D01*
X115655628Y-117037282D01*
X115783843Y-116897870D01*
X115783843Y-116676024D01*
X115784509Y-116583698D01*
X115786806Y-116515646D01*
X115791182Y-116466852D01*
X115798082Y-116432300D01*
X115807803Y-116407271D01*
X115823686Y-116385701D01*
X115857648Y-116346242D01*
X115907044Y-116291741D01*
X115969232Y-116225045D01*
X116041569Y-116148999D01*
X116121414Y-116066452D01*
X116174219Y-116012554D01*
X116516676Y-115664742D01*
X116516676Y-115512249D01*
X116516338Y-115443737D01*
X116514448Y-115398399D01*
X116509696Y-115370094D01*
X116500771Y-115352681D01*
X116486360Y-115340023D01*
X116478806Y-115334942D01*
X116445135Y-115300787D01*
X116414254Y-115249689D01*
X116392350Y-115193821D01*
X116385410Y-115151190D01*
X116396237Y-115095243D01*
X116424262Y-115034819D01*
X116462801Y-114982436D01*
X116486994Y-114960917D01*
X116557937Y-114925867D01*
X116629839Y-114917860D01*
X116698485Y-114935082D01*
X116759657Y-114975723D01*
X116809139Y-115037972D01*
X116840747Y-115112884D01*
X116845219Y-115178657D01*
X116824893Y-115246993D01*
X116782447Y-115310249D01*
X116765527Y-115327346D01*
X116709677Y-115378919D01*
X116704781Y-115572496D01*
X116699884Y-115766073D01*
X116337132Y-116129847D01*
X115974380Y-116493622D01*
X115974380Y-116748181D01*
X115974380Y-117002739D01*
X115791171Y-117187900D01*
X115607963Y-117373061D01*
X115607963Y-117628756D01*
X115607963Y-117884451D01*
X115995115Y-117497506D01*
X116382267Y-117110560D01*
X116387225Y-116808746D01*
X116389735Y-116694217D01*
X116393173Y-116606159D01*
X116397750Y-116541740D01*
X116403676Y-116498126D01*
X116411160Y-116472484D01*
X116412276Y-116470290D01*
X116427544Y-116450637D01*
X116460715Y-116413275D01*
X116508957Y-116361216D01*
X116569438Y-116297471D01*
X116639326Y-116225051D01*
X116715787Y-116146967D01*
X116729393Y-116133187D01*
X117026417Y-115832725D01*
X117033320Y-115754686D01*
X117053180Y-115673180D01*
X117094642Y-115606898D01*
X117153844Y-115559585D01*
X117226926Y-115534983D01*
X117262669Y-115532318D01*
X117342008Y-115545426D01*
X117407068Y-115582204D01*
X117454298Y-115639042D01*
X117480145Y-115712331D01*
X117483961Y-115757227D01*
X117472510Y-115844065D01*
X117438688Y-115912232D01*
X117383514Y-115960725D01*
X117308007Y-115988539D01*
X117242181Y-115995192D01*
X117154241Y-115996435D01*
X116872100Y-116281476D01*
X116589959Y-116566517D01*
X116589959Y-116811537D01*
X116589959Y-117056557D01*
X116769626Y-117056557D01*
X116949292Y-117056557D01*
X117275994Y-116729612D01*
X117366805Y-116638623D01*
X117438876Y-116565919D01*
X117494237Y-116509101D01*
X117534918Y-116465770D01*
X117562949Y-116433526D01*
X117580359Y-116409968D01*
X117589178Y-116392699D01*
X117591436Y-116379317D01*
X117589163Y-116367423D01*
X117587146Y-116361767D01*
X117579547Y-116303855D01*
X117594122Y-116240515D01*
X117627062Y-116179895D01*
X117674557Y-116130141D01*
X117704432Y-116110909D01*
X117764540Y-116092889D01*
X117835003Y-116090590D01*
X117902046Y-116103561D01*
X117934842Y-116118451D01*
X117994296Y-116168278D01*
X118028254Y-116230958D01*
X118038049Y-116309169D01*
X118037395Y-116324389D01*
X118026873Y-116391119D01*
X118006419Y-116440979D01*
X118003609Y-116445094D01*
X117960090Y-116486856D01*
X117901546Y-116520007D01*
X117839770Y-116539030D01*
X117799117Y-116540790D01*
X117780701Y-116539828D01*
X117762865Y-116543340D01*
X117742211Y-116553973D01*
X117715339Y-116574372D01*
X117678850Y-116607186D01*
X117629344Y-116655060D01*
X117563423Y-116720641D01*
X117546978Y-116737109D01*
X117345170Y-116939303D01*
X117613404Y-116939303D01*
X117881638Y-116939303D01*
X117917164Y-116897084D01*
X117978033Y-116844010D01*
X118046491Y-116815354D01*
X118117417Y-116809560D01*
X118185688Y-116825069D01*
X118246186Y-116860326D01*
X118293788Y-116913773D01*
X118323373Y-116983854D01*
X118329632Y-117022487D01*
X118323685Y-117103160D01*
X118293403Y-117171189D01*
X118242287Y-117222736D01*
X118173837Y-117253965D01*
X118111357Y-117261750D01*
X118030375Y-117251323D01*
X117964371Y-117218045D01*
X117919080Y-117174336D01*
X117881638Y-117129840D01*
X117520093Y-117129840D01*
X117158548Y-117129840D01*
X117085190Y-117195795D01*
X117011832Y-117261750D01*
X116826545Y-117264887D01*
X116749324Y-117266262D01*
X116676906Y-117267673D01*
X116617523Y-117268952D01*
X116579992Y-117269913D01*
X116554932Y-117272025D01*
X116531779Y-117278709D01*
X116506133Y-117293027D01*
X116473597Y-117318042D01*
X116429770Y-117356815D01*
X116370253Y-117412410D01*
X116356202Y-117425701D01*
X116193678Y-117579600D01*
X116702778Y-117590004D01*
X117211878Y-117600408D01*
X117262820Y-117539081D01*
X117328300Y-117478237D01*
X117399468Y-117445064D01*
X117474092Y-117440068D01*
X117549940Y-117463757D01*
X117563102Y-117470849D01*
X117623362Y-117518837D01*
X117659156Y-117580853D01*
X117671688Y-117659348D01*
X117670862Y-117690257D01*
X117656602Y-117765297D01*
X117622476Y-117821817D01*
X117564583Y-117865876D01*
X117554363Y-117871394D01*
X117492762Y-117890204D01*
X117423629Y-117890909D01*
X117356378Y-117875301D01*
X117300424Y-117845170D01*
X117274202Y-117818121D01*
X117268106Y-117810446D01*
X117259750Y-117804230D01*
X117246287Y-117799346D01*
X117224866Y-117795668D01*
X117192640Y-117793069D01*
X117146758Y-117791421D01*
X117084371Y-117790599D01*
X117002632Y-117790476D01*
X116898690Y-117790925D01*
X116769697Y-117791819D01*
X116695611Y-117792388D01*
X116138077Y-117796718D01*
X116074549Y-117841204D01*
X116022258Y-117885581D01*
X115960852Y-117949982D01*
X115894807Y-118028461D01*
X115828599Y-118115071D01*
X115766704Y-118203864D01*
X115713597Y-118288894D01*
X115673754Y-118364212D01*
X115663899Y-118386861D01*
X115651289Y-118420416D01*
X115642259Y-118452637D01*
X115636239Y-118489228D01*
X115632658Y-118535893D01*
X115630947Y-118598338D01*
X115630535Y-118682266D01*
X115630598Y-118720088D01*
X115631971Y-118826238D01*
X115635303Y-118948863D01*
X115640149Y-119075222D01*
X115646062Y-119192576D01*
X115648556Y-119233071D01*
X115666589Y-119544740D01*
X115680362Y-119861862D01*
X115689619Y-120175816D01*
X115694103Y-120477983D01*
X115693630Y-120753643D01*
X115692276Y-120880112D01*
X115691462Y-120980078D01*
X115691327Y-121056349D01*
X115692012Y-121111732D01*
X115693657Y-121149036D01*
X115696401Y-121171067D01*
X115700383Y-121180634D01*
X115705745Y-121180543D01*
X115712624Y-121173604D01*
X115714417Y-121171358D01*
X115743964Y-121125681D01*
X115776758Y-121062796D01*
X115807766Y-120993614D01*
X115831956Y-120929047D01*
X115841306Y-120896195D01*
X115845505Y-120863469D01*
X115849284Y-120806306D01*
X115852471Y-120729583D01*
X115854893Y-120638175D01*
X115856377Y-120536958D01*
X115856768Y-120459939D01*
X115857126Y-120089230D01*
X115920108Y-120020239D01*
X115961427Y-119974084D01*
X116001317Y-119928083D01*
X116022705Y-119902489D01*
X116062320Y-119853731D01*
X116062320Y-119523351D01*
X116062320Y-119192971D01*
X116018350Y-119142892D01*
X115982669Y-119082545D01*
X115972076Y-119017073D01*
X115984788Y-118953035D01*
X116019024Y-118896985D01*
X116073002Y-118855480D01*
X116099441Y-118844511D01*
X116165260Y-118836966D01*
X116227969Y-118855357D01*
X116281771Y-118896432D01*
X116320871Y-118956936D01*
X116326788Y-118972140D01*
X116334378Y-119027643D01*
X116324261Y-119086232D01*
X116299582Y-119136562D01*
X116274266Y-119161513D01*
X116261176Y-119170802D01*
X116251712Y-119181866D01*
X116245286Y-119199183D01*
X116241310Y-119227229D01*
X116239195Y-119270480D01*
X116238355Y-119333414D01*
X116238200Y-119420507D01*
X116238200Y-119436075D01*
X116238200Y-119687005D01*
X116429748Y-119496680D01*
X116492224Y-119433659D01*
X116548310Y-119375309D01*
X116594262Y-119325665D01*
X116626336Y-119288766D01*
X116640281Y-119269713D01*
X116649700Y-119235270D01*
X116656747Y-119174397D01*
X116661150Y-119089901D01*
X116662207Y-119044216D01*
X116665149Y-118855361D01*
X116616562Y-118805231D01*
X116587615Y-118771688D01*
X116573125Y-118740366D01*
X116568286Y-118698302D01*
X116567974Y-118674178D01*
X116569794Y-118625171D01*
X116578744Y-118592882D01*
X116600058Y-118564773D01*
X116622722Y-118543082D01*
X116663601Y-118510674D01*
X116701289Y-118495959D01*
X116741663Y-118492910D01*
X116810557Y-118506249D01*
X116867173Y-118543173D01*
X116907146Y-118599042D01*
X116926110Y-118669217D01*
X116927063Y-118690005D01*
X116919744Y-118733650D01*
X116894441Y-118776678D01*
X116875764Y-118798770D01*
X116824466Y-118855551D01*
X116824466Y-119096012D01*
X116823985Y-119189603D01*
X116822273Y-119258520D01*
X116818929Y-119307391D01*
X116813554Y-119340844D01*
X116805745Y-119363507D01*
X116800491Y-119372713D01*
X116784813Y-119391299D01*
X116750925Y-119427990D01*
X116701350Y-119480166D01*
X116638610Y-119545212D01*
X116565230Y-119620508D01*
X116483732Y-119703438D01*
X116405273Y-119782696D01*
X116034030Y-120156441D01*
X116029854Y-120401960D01*
X116029173Y-120483075D01*
X116029919Y-120552885D01*
X116031933Y-120606599D01*
X116035054Y-120639427D01*
X116038054Y-120647459D01*
X116050380Y-120637394D01*
X116081614Y-120608397D01*
X116129927Y-120562253D01*
X116193490Y-120500745D01*
X116270471Y-120425659D01*
X116359043Y-120338780D01*
X116457375Y-120241893D01*
X116563637Y-120136782D01*
X116675999Y-120025231D01*
X116679283Y-120021965D01*
X117308136Y-119396491D01*
X117308136Y-119265418D01*
X117307572Y-119202076D01*
X117304537Y-119159955D01*
X117297015Y-119130967D01*
X117282990Y-119107022D01*
X117262529Y-119082401D01*
X117234579Y-119046654D01*
X117222774Y-119015208D01*
X117222520Y-118973446D01*
X117223782Y-118959071D01*
X117242732Y-118887508D01*
X117280657Y-118834219D01*
X117332257Y-118801045D01*
X117392232Y-118789831D01*
X117455280Y-118802420D01*
X117516101Y-118840654D01*
X117528923Y-118852965D01*
X117560810Y-118890481D01*
X117575539Y-118925375D01*
X117579275Y-118972783D01*
X117579284Y-118976580D01*
X117575911Y-119025883D01*
X117561834Y-119061315D01*
X117531650Y-119097381D01*
X117508392Y-119122880D01*
X117494276Y-119145905D01*
X117487017Y-119174743D01*
X117484330Y-119217677D01*
X117483934Y-119270411D01*
X117483975Y-119320402D01*
X117482982Y-119362751D01*
X117479172Y-119400075D01*
X117470764Y-119434987D01*
X117455975Y-119470102D01*
X117433023Y-119508035D01*
X117400125Y-119551401D01*
X117355500Y-119602814D01*
X117297365Y-119664889D01*
X117223938Y-119740241D01*
X117133437Y-119831484D01*
X117032352Y-119932927D01*
X116612619Y-120354306D01*
X116850516Y-120354306D01*
X117088413Y-120354306D01*
X117214572Y-120231784D01*
X117268973Y-120177935D01*
X117304623Y-120139501D01*
X117324609Y-120112340D01*
X117332015Y-120092312D01*
X117330319Y-120076453D01*
X117329026Y-120038874D01*
X117341156Y-119988422D01*
X117344324Y-119979710D01*
X117380267Y-119918002D01*
X117428818Y-119878313D01*
X117484894Y-119859293D01*
X117543408Y-119859590D01*
X117599276Y-119877852D01*
X117647413Y-119912730D01*
X117682733Y-119962871D01*
X117700152Y-120026924D01*
X117699611Y-120074119D01*
X117679829Y-120142363D01*
X117639072Y-120190508D01*
X117578903Y-120217195D01*
X117528787Y-120222396D01*
X117495613Y-120223190D01*
X117470241Y-120228212D01*
X117446550Y-120241428D01*
X117418421Y-120266801D01*
X117379732Y-120308294D01*
X117356803Y-120333775D01*
X117306319Y-120386503D01*
X117254310Y-120435013D01*
X117208854Y-120471993D01*
X117190883Y-120484006D01*
X117168630Y-120496680D01*
X117147727Y-120506299D01*
X117123817Y-120513341D01*
X117092539Y-120518287D01*
X117049536Y-120521615D01*
X116990449Y-120523807D01*
X116910918Y-120525340D01*
X116806585Y-120526695D01*
X116802481Y-120526745D01*
X116706256Y-120528223D01*
X116618340Y-120530174D01*
X116543522Y-120532444D01*
X116486591Y-120534877D01*
X116452335Y-120537320D01*
X116446198Y-120538232D01*
X116422345Y-120551137D01*
X116383534Y-120580319D01*
X116335440Y-120621240D01*
X116291202Y-120662150D01*
X116235249Y-120714771D01*
X116179784Y-120765060D01*
X116132296Y-120806318D01*
X116107175Y-120826730D01*
X116044305Y-120874993D01*
X115994841Y-121116641D01*
X115978183Y-121201084D01*
X115963938Y-121279140D01*
X115953131Y-121344718D01*
X115946788Y-121391731D01*
X115945543Y-121409586D01*
X115960265Y-121488850D01*
X116003137Y-121566702D01*
X116072998Y-121641782D01*
X116168687Y-121712728D01*
X116239002Y-121753267D01*
X116287344Y-121776047D01*
X116345480Y-121798002D01*
X116416826Y-121820052D01*
X116504796Y-121843118D01*
X116612806Y-121868121D01*
X116744270Y-121895983D01*
X116839123Y-121915109D01*
X116929741Y-121933603D01*
X117036527Y-121956158D01*
X117147115Y-121980121D01*
X117249138Y-122002841D01*
X117264166Y-122006258D01*
X117345086Y-122024595D01*
X117418724Y-122041048D01*
X117479070Y-122054291D01*
X117520110Y-122062998D01*
X117532136Y-122065349D01*
X117572927Y-122072606D01*
X117495494Y-122154721D01*
X117439670Y-122212212D01*
X117377625Y-122273290D01*
X117313181Y-122334506D01*
X117250161Y-122392412D01*
X117192385Y-122443563D01*
X117143677Y-122484510D01*
X117107857Y-122511807D01*
X117088749Y-122522005D01*
X117088286Y-122522003D01*
X117066101Y-122518145D01*
X117021807Y-122508726D01*
X116961766Y-122495149D01*
X116892345Y-122478819D01*
X116890421Y-122478358D01*
X116638699Y-122422582D01*
X116360863Y-122369424D01*
X116060027Y-122319267D01*
X115739303Y-122272493D01*
X115401806Y-122229484D01*
X115050650Y-122190621D01*
X114688947Y-122156286D01*
X114319812Y-122126862D01*
X113946358Y-122102730D01*
X113739238Y-122091803D01*
X113379019Y-122075516D01*
X113043755Y-122062962D01*
X112729317Y-122054217D01*
X112431578Y-122049355D01*
X112146408Y-122048450D01*
X111869679Y-122051577D01*
X111597262Y-122058810D01*
X111325028Y-122070224D01*
X111048849Y-122085892D01*
X110764596Y-122105890D01*
X110468141Y-122130292D01*
X110191094Y-122155734D01*
X110063964Y-122167727D01*
X109962814Y-122176778D01*
X109884475Y-122183033D01*
X109825776Y-122186639D01*
X109783548Y-122187743D01*
X109754619Y-122186492D01*
X109735822Y-122183034D01*
X109723984Y-122177513D01*
X109723795Y-122177382D01*
X109704812Y-122169575D01*
X109670891Y-122163715D01*
X109618604Y-122159547D01*
X109544522Y-122156817D01*
X109445219Y-122155272D01*
X109423253Y-122155091D01*
X109313928Y-122153833D01*
X109193051Y-122151685D01*
X109072311Y-122148900D01*
X108963397Y-122145733D01*
X108917357Y-122144099D01*
X108828868Y-122140393D01*
X108765465Y-122136739D01*
X108722926Y-122132520D01*
X108697033Y-122127120D01*
X108683565Y-122119922D01*
X108678301Y-122110307D01*
X108678050Y-122109120D01*
X108683462Y-122090294D01*
X108708304Y-122070330D01*
X108754816Y-122048196D01*
X108825243Y-122022859D01*
X108921826Y-121993285D01*
X108942105Y-121987448D01*
X109084267Y-121946846D01*
X109095563Y-121865088D01*
X109100400Y-121815050D01*
X109104296Y-121746368D01*
X109106737Y-121669708D01*
X109107296Y-121622108D01*
X109107012Y-121573979D01*
X109507301Y-121573979D01*
X109622635Y-121690753D01*
X109737969Y-121807527D01*
X109803924Y-121798534D01*
X109856413Y-121791994D01*
X109920667Y-121784818D01*
X109961483Y-121780652D01*
X110014896Y-121773484D01*
X110043815Y-121763931D01*
X110053053Y-121750344D01*
X110053087Y-121749232D01*
X110047088Y-121704875D01*
X110030825Y-121641861D01*
X110006903Y-121567871D01*
X109977923Y-121490588D01*
X109946489Y-121417694D01*
X109928064Y-121380273D01*
X109892623Y-121312370D01*
X109855799Y-121241632D01*
X109824112Y-121180584D01*
X109816603Y-121166074D01*
X109770278Y-121076456D01*
X109845799Y-120848817D01*
X109872367Y-120766301D01*
X109896067Y-120688152D01*
X109915011Y-120620943D01*
X109927311Y-120571242D01*
X109930569Y-120553697D01*
X109937178Y-120513933D01*
X109943442Y-120489689D01*
X109945811Y-120486216D01*
X109959322Y-120494285D01*
X109991691Y-120516258D01*
X110038079Y-120548787D01*
X110093648Y-120588522D01*
X110094050Y-120588812D01*
X110167649Y-120638921D01*
X110250498Y-120690671D01*
X110330253Y-120736534D01*
X110372654Y-120758674D01*
X110428552Y-120787315D01*
X110472461Y-120811855D01*
X110499093Y-120829211D01*
X110504564Y-120835622D01*
X110496223Y-120852635D01*
X110478396Y-120888428D01*
X110454773Y-120935594D01*
X110452249Y-120940622D01*
X110403655Y-121066636D01*
X110383654Y-121193059D01*
X110392324Y-121318007D01*
X110429743Y-121439595D01*
X110431365Y-121443295D01*
X110454883Y-121485745D01*
X110490514Y-121537996D01*
X110532597Y-121592970D01*
X110575467Y-121643590D01*
X110613463Y-121682780D01*
X110638645Y-121702340D01*
X110668601Y-121709103D01*
X110722330Y-121709231D01*
X110802111Y-121702717D01*
X110811230Y-121701742D01*
X110871379Y-121696029D01*
X110953544Y-121689403D01*
X111050462Y-121682389D01*
X111154869Y-121675508D01*
X111259502Y-121669285D01*
X111269514Y-121668729D01*
X111583438Y-121651421D01*
X111596247Y-121592794D01*
X111600879Y-121551657D01*
X111602326Y-121491763D01*
X111600461Y-121423511D01*
X111598665Y-121394929D01*
X111597518Y-121377679D01*
X112094556Y-121377679D01*
X112110729Y-121496117D01*
X112138333Y-121574986D01*
X112175283Y-121655694D01*
X112305039Y-121647957D01*
X112362877Y-121644341D01*
X112407934Y-121641205D01*
X112433492Y-121639031D01*
X112436845Y-121638493D01*
X112435763Y-121622728D01*
X112426658Y-121585591D01*
X112411464Y-121533282D01*
X112392119Y-121471997D01*
X112370557Y-121407935D01*
X112348713Y-121347296D01*
X112334489Y-121310692D01*
X112316304Y-121257461D01*
X112779576Y-121257461D01*
X112780548Y-121327461D01*
X112786873Y-121380781D01*
X112800374Y-121423714D01*
X112822874Y-121462552D01*
X112856197Y-121503586D01*
X112891457Y-121541784D01*
X112987502Y-121643596D01*
X113356042Y-121647999D01*
X113559366Y-121649762D01*
X113735385Y-121649805D01*
X113886063Y-121648056D01*
X114013360Y-121644441D01*
X114119241Y-121638890D01*
X114205666Y-121631329D01*
X114274598Y-121621687D01*
X114317677Y-121612626D01*
X114441974Y-121568662D01*
X114558959Y-121503221D01*
X114663116Y-121420623D01*
X114748929Y-121325189D01*
X114807222Y-121229164D01*
X114838730Y-121153071D01*
X114872009Y-121056535D01*
X114904620Y-120948123D01*
X114934129Y-120836403D01*
X114958098Y-120729942D01*
X114972668Y-120647440D01*
X114985979Y-120567090D01*
X115001265Y-120504457D01*
X115022135Y-120447992D01*
X115052199Y-120386143D01*
X115057403Y-120376291D01*
X115125327Y-120238415D01*
X115174395Y-120112944D01*
X115206737Y-119991817D01*
X115224483Y-119866972D01*
X115229763Y-119730348D01*
X115229743Y-119724070D01*
X115225569Y-119605771D01*
X115213669Y-119507374D01*
X115200218Y-119445593D01*
X115171486Y-119335668D01*
X115169788Y-119474906D01*
X115156724Y-119682741D01*
X115122496Y-119871148D01*
X115066577Y-120041519D01*
X114988440Y-120195245D01*
X114887557Y-120333718D01*
X114815061Y-120410866D01*
X114722257Y-120501115D01*
X114721248Y-120629240D01*
X114719328Y-120697632D01*
X114713315Y-120748003D01*
X114700911Y-120791591D01*
X114679815Y-120839632D01*
X114677045Y-120845305D01*
X114625213Y-120931429D01*
X114563585Y-121002150D01*
X114497160Y-121052489D01*
X114447723Y-121073729D01*
X114405474Y-121081482D01*
X114343803Y-121087850D01*
X114272594Y-121091957D01*
X114230236Y-121092965D01*
X114138784Y-121090954D01*
X114066824Y-121080563D01*
X114005590Y-121058302D01*
X113946316Y-121020684D01*
X113880236Y-120964221D01*
X113860775Y-120945944D01*
X113810460Y-120902741D01*
X113752158Y-120862722D01*
X113678975Y-120821582D01*
X113596955Y-120781108D01*
X113478579Y-120721215D01*
X113382897Y-120663351D01*
X113303982Y-120603201D01*
X113235909Y-120536454D01*
X113196203Y-120489429D01*
X113144701Y-120415624D01*
X113090662Y-120323372D01*
X113039107Y-120222549D01*
X112995059Y-120123031D01*
X112969939Y-120052628D01*
X113763229Y-120052628D01*
X113776038Y-120094083D01*
X113785480Y-120107653D01*
X113818662Y-120127210D01*
X113862564Y-120134034D01*
X113903236Y-120127167D01*
X113919515Y-120116868D01*
X113934407Y-120084330D01*
X113935097Y-120040405D01*
X113922288Y-119998950D01*
X113912847Y-119985380D01*
X113879665Y-119965823D01*
X113835762Y-119958998D01*
X113795091Y-119965866D01*
X113778811Y-119976164D01*
X113763919Y-120008703D01*
X113763229Y-120052628D01*
X112969939Y-120052628D01*
X112963539Y-120034692D01*
X112961650Y-120028195D01*
X112946740Y-119979386D01*
X112934007Y-119944042D01*
X112926053Y-119929334D01*
X112925737Y-119929263D01*
X112921893Y-119942708D01*
X112921721Y-119978821D01*
X112924621Y-120031271D01*
X112929995Y-120093726D01*
X112937242Y-120159853D01*
X112945763Y-120223321D01*
X112954958Y-120277798D01*
X112961553Y-120307491D01*
X112985647Y-120399915D01*
X112950002Y-120442276D01*
X112932955Y-120469614D01*
X112914561Y-120514006D01*
X112893745Y-120578681D01*
X112869429Y-120666866D01*
X112851254Y-120738254D01*
X112825822Y-120843893D01*
X112807559Y-120929414D01*
X112795175Y-121002769D01*
X112787382Y-121071905D01*
X112782891Y-121144773D01*
X112782133Y-121164490D01*
X112779576Y-121257461D01*
X112316304Y-121257461D01*
X112297480Y-121202361D01*
X112281550Y-121110259D01*
X112286375Y-121030591D01*
X112305487Y-120972101D01*
X112321411Y-120939688D01*
X112348009Y-120887955D01*
X112381933Y-120823324D01*
X112419834Y-120752214D01*
X112430845Y-120731753D01*
X112480184Y-120636830D01*
X112522466Y-120548707D01*
X112555819Y-120471755D01*
X112578374Y-120410347D01*
X112588261Y-120368857D01*
X112588552Y-120363004D01*
X112582081Y-120365678D01*
X112565407Y-120388820D01*
X112546333Y-120420261D01*
X112522594Y-120458992D01*
X112486281Y-120515062D01*
X112441751Y-120581882D01*
X112393359Y-120652860D01*
X112376819Y-120676742D01*
X112325772Y-120752543D01*
X112275412Y-120831561D01*
X112230870Y-120905473D01*
X112197275Y-120965957D01*
X112191582Y-120977204D01*
X112135274Y-121114952D01*
X112102835Y-121249534D01*
X112094556Y-121377679D01*
X111597518Y-121377679D01*
X111593752Y-121321071D01*
X111590639Y-121251203D01*
X111589265Y-121178441D01*
X111589568Y-121095899D01*
X111591489Y-120996692D01*
X111594272Y-120896603D01*
X111599365Y-120728051D01*
X111509416Y-120563176D01*
X111468530Y-120487004D01*
X111435075Y-120421090D01*
X111404717Y-120356135D01*
X111373118Y-120282838D01*
X111335945Y-120191899D01*
X111333473Y-120185755D01*
X111325871Y-120174256D01*
X111320654Y-120187085D01*
X111316921Y-120223624D01*
X111320678Y-120316787D01*
X111342826Y-120425922D01*
X111381946Y-120545395D01*
X111421062Y-120637305D01*
X111447451Y-120697180D01*
X111465864Y-120745855D01*
X111474406Y-120777868D01*
X111473232Y-120787636D01*
X111444487Y-120796402D01*
X111392682Y-120803790D01*
X111324052Y-120809506D01*
X111244831Y-120813256D01*
X111161254Y-120814744D01*
X111079554Y-120813675D01*
X111005966Y-120809756D01*
X111005770Y-120809740D01*
X110815526Y-120786458D01*
X110642135Y-120747451D01*
X110479164Y-120690254D01*
X110320179Y-120612400D01*
X110158748Y-120511421D01*
X110078989Y-120454374D01*
X109980115Y-120381076D01*
X109989678Y-120160156D01*
X109992961Y-120071284D01*
X109993827Y-120008771D01*
X109992174Y-119969751D01*
X109987899Y-119951361D01*
X109982193Y-119949771D01*
X109968750Y-119971348D01*
X109965147Y-119994596D01*
X109961037Y-120028735D01*
X109949809Y-120084604D01*
X109933121Y-120155961D01*
X109912627Y-120236567D01*
X109889983Y-120320181D01*
X109866845Y-120400563D01*
X109844869Y-120471472D01*
X109825710Y-120526667D01*
X109820432Y-120540023D01*
X109799146Y-120588252D01*
X109767757Y-120655243D01*
X109729736Y-120733775D01*
X109688556Y-120816629D01*
X109666568Y-120859961D01*
X109609274Y-120977318D01*
X109567021Y-121078296D01*
X109537785Y-121170354D01*
X109519540Y-121260946D01*
X109510261Y-121357528D01*
X109507934Y-121444148D01*
X109507301Y-121573979D01*
X109107012Y-121573979D01*
X109106862Y-121548487D01*
X109103999Y-121494851D01*
X109097069Y-121451879D01*
X109084433Y-121410254D01*
X109064454Y-121360657D01*
X109059172Y-121348357D01*
X109035635Y-121292211D01*
X109023015Y-121255208D01*
X109019989Y-121229854D01*
X109025232Y-121208658D01*
X109031980Y-121194462D01*
X109045183Y-121163447D01*
X109064013Y-121112258D01*
X109085655Y-121048793D01*
X109101626Y-120999200D01*
X109134749Y-120873326D01*
X109149091Y-120760240D01*
X109144350Y-120651150D01*
X109120224Y-120537262D01*
X109081892Y-120423925D01*
X109063600Y-120379812D01*
X109048281Y-120349305D01*
X109040240Y-120339650D01*
X109032287Y-120352567D01*
X109023874Y-120384810D01*
X109021619Y-120397480D01*
X109005457Y-120454888D01*
X108975105Y-120526819D01*
X108935008Y-120605167D01*
X108889610Y-120681826D01*
X108843355Y-120748691D01*
X108803925Y-120794530D01*
X108742332Y-120849620D01*
X108692283Y-120880970D01*
X108650327Y-120890025D01*
X108613011Y-120878233D01*
X108609492Y-120876022D01*
X108582914Y-120849598D01*
X108572764Y-120823042D01*
X108582257Y-120799911D01*
X108607673Y-120762308D01*
X108644414Y-120716698D01*
X108664368Y-120694245D01*
X108751940Y-120584021D01*
X108814393Y-120469542D01*
X108855728Y-120343193D01*
X108860911Y-120320131D01*
X108870393Y-120269023D01*
X108875246Y-120221758D01*
X108875596Y-120169724D01*
X108871574Y-120104310D01*
X108865141Y-120035046D01*
X108855335Y-119898512D01*
X108856145Y-119781207D01*
X108868190Y-119674803D01*
X108892090Y-119570973D01*
X108902106Y-119537677D01*
X108954814Y-119407610D01*
X109030907Y-119271625D01*
X109126373Y-119134230D01*
X109237201Y-118999935D01*
X109359380Y-118873249D01*
X109488898Y-118758680D01*
X109621744Y-118660737D01*
X109747921Y-118586924D01*
X109810507Y-118556389D01*
X109867187Y-118531888D01*
X109922311Y-118512732D01*
X109980232Y-118498234D01*
X110045302Y-118487706D01*
X110121872Y-118480457D01*
X110214296Y-118475801D01*
X110326924Y-118473048D01*
X110464109Y-118471510D01*
X110478130Y-118471405D01*
X110602712Y-118470330D01*
X110702168Y-118468929D01*
X110780683Y-118466930D01*
X110842445Y-118464057D01*
X110891639Y-118460037D01*
X110932453Y-118454595D01*
X110969074Y-118447456D01*
X111005687Y-118438346D01*
X111013099Y-118436339D01*
X111121763Y-118400035D01*
X111238038Y-118349987D01*
X111351101Y-118291499D01*
X111450129Y-118229874D01*
X111482112Y-118206518D01*
X111607436Y-118115562D01*
X111722069Y-118045762D01*
X111832423Y-117994468D01*
X111944911Y-117959030D01*
X112065946Y-117936797D01*
X112156318Y-117927875D01*
X112285977Y-117928626D01*
X112427770Y-117946896D01*
X112571784Y-117980886D01*
X112704788Y-118027410D01*
X112805221Y-118076454D01*
X112915709Y-118142770D01*
X113027907Y-118220811D01*
X113133469Y-118305031D01*
X113166738Y-118334426D01*
X113216573Y-118383227D01*
X113269299Y-118440631D01*
X113320984Y-118501639D01*
X113367699Y-118561250D01*
X113405515Y-118614464D01*
X113430500Y-118656280D01*
X113438777Y-118680537D01*
X113448126Y-118681403D01*
X113474345Y-118662681D01*
X113514689Y-118626567D01*
X113552366Y-118589593D01*
X113625958Y-118518366D01*
X113690875Y-118461767D01*
X113744522Y-118421737D01*
X113784304Y-118400220D01*
X113807189Y-118398875D01*
X113814088Y-118417719D01*
X113817728Y-118459436D01*
X113818412Y-118517805D01*
X113816440Y-118586601D01*
X113812115Y-118659603D01*
X113805738Y-118730587D01*
X113797610Y-118793332D01*
X113788034Y-118841613D01*
X113785255Y-118851314D01*
X113773698Y-118893745D01*
X113768999Y-118923683D01*
X113770330Y-118931926D01*
X113788517Y-118936427D01*
X113825642Y-118938806D01*
X113848792Y-118938902D01*
X113921994Y-118925268D01*
X114005733Y-118887622D01*
X114096893Y-118827892D01*
X114192363Y-118748006D01*
X114252939Y-118688592D01*
X114300893Y-118640254D01*
X114342514Y-118600922D01*
X114373130Y-118574840D01*
X114387615Y-118566193D01*
X114403213Y-118579579D01*
X114413448Y-118615697D01*
X114418463Y-118668489D01*
X114418403Y-118731895D01*
X114413412Y-118799857D01*
X114403635Y-118866316D01*
X114389217Y-118925214D01*
X114378355Y-118954500D01*
X114336831Y-119024558D01*
X114277206Y-119095405D01*
X114208748Y-119157331D01*
X114145761Y-119198163D01*
X114106408Y-119217810D01*
X114079774Y-119230840D01*
X114073084Y-119233886D01*
X114075267Y-119247446D01*
X114083652Y-119283665D01*
X114096876Y-119336882D01*
X114112058Y-119395665D01*
X114134321Y-119473375D01*
X114159892Y-119551218D01*
X114186733Y-119624148D01*
X114212807Y-119687120D01*
X114236074Y-119735088D01*
X114254498Y-119763008D01*
X114262476Y-119768040D01*
X114297117Y-119757217D01*
X114345588Y-119724161D01*
X114409132Y-119667991D01*
X114424300Y-119653379D01*
X114472863Y-119609051D01*
X114506072Y-119588311D01*
X114526634Y-119592424D01*
X114537254Y-119622653D01*
X114540641Y-119680262D01*
X114540613Y-119707703D01*
X114532263Y-119803742D01*
X114506914Y-119891779D01*
X114503896Y-119899392D01*
X114468150Y-119987890D01*
X114514867Y-119987890D01*
X114584915Y-119974738D01*
X114660920Y-119937912D01*
X114739018Y-119881357D01*
X114815345Y-119809019D01*
X114886038Y-119724843D01*
X114947233Y-119632774D01*
X114995066Y-119536757D01*
X115016783Y-119475393D01*
X115033070Y-119381274D01*
X115034066Y-119266787D01*
X115020617Y-119136035D01*
X114993569Y-118993122D01*
X114953766Y-118842152D01*
X114902054Y-118687229D01*
X114839279Y-118532458D01*
X114809072Y-118466927D01*
X114687268Y-118239260D01*
X114546383Y-118026764D01*
X114383628Y-117825879D01*
X114196217Y-117633044D01*
X114061685Y-117511898D01*
X114011555Y-117469855D01*
X113945555Y-117416003D01*
X113866458Y-117352487D01*
X113777037Y-117281454D01*
X113680066Y-117205047D01*
X113578318Y-117125413D01*
X113474567Y-117044695D01*
X113371585Y-116965040D01*
X113272146Y-116888593D01*
X113179024Y-116817499D01*
X113094992Y-116753902D01*
X113022823Y-116699948D01*
X112965291Y-116657783D01*
X112925170Y-116629551D01*
X112905231Y-116617398D01*
X112905225Y-116617395D01*
X112879160Y-116613242D01*
X112825372Y-116609685D01*
X112745446Y-116606764D01*
X112640967Y-116604518D01*
X112513519Y-116602988D01*
X112364688Y-116602211D01*
X112290938Y-116602118D01*
X112120900Y-116601647D01*
X111975760Y-116600301D01*
X111856378Y-116598102D01*
X111763608Y-116595070D01*
X111698308Y-116591230D01*
X111661336Y-116586602D01*
X111658479Y-116585895D01*
X111610217Y-116563274D01*
X111550347Y-116518357D01*
X111496146Y-116468724D01*
X111391952Y-116367693D01*
X111084163Y-116367693D01*
X110776373Y-116367693D01*
X110740841Y-116405728D01*
X110676529Y-116457502D01*
X110603997Y-116482167D01*
X110565349Y-116484947D01*
X110485533Y-116472615D01*
X110418086Y-116438668D01*
X110366441Y-116387674D01*
X110334026Y-116324204D01*
X110324272Y-116252827D01*
X110338689Y-116182978D01*
X110370353Y-116125946D01*
X110416286Y-116073934D01*
X110467837Y-116035526D01*
X110501269Y-116021663D01*
X110580031Y-116016172D01*
X110656115Y-116036915D01*
X110722759Y-116081095D01*
X110763935Y-116130183D01*
X110793249Y-116176028D01*
X110996036Y-116176592D01*
X111198823Y-116177157D01*
X110940256Y-115909673D01*
X110681689Y-115642189D01*
X110605559Y-115646442D01*
X110524848Y-115638339D01*
X110458724Y-115606187D01*
X110410067Y-115552811D01*
X110381757Y-115481038D01*
X110375588Y-115420842D01*
X110388070Y-115345457D01*
X110422208Y-115282061D01*
X110472864Y-115233576D01*
X110534898Y-115202925D01*
X110603172Y-115193031D01*
X110672547Y-115206816D01*
X110713785Y-115228487D01*
X110779368Y-115285916D01*
X110817150Y-115351583D01*
X110827786Y-115426695D01*
X110827225Y-115436995D01*
X110821760Y-115510279D01*
X111265797Y-115949978D01*
X111709834Y-116389678D01*
X111988035Y-116389678D01*
X112074708Y-116389546D01*
X112150363Y-116389179D01*
X112210497Y-116388619D01*
X112250605Y-116387909D01*
X112266183Y-116387092D01*
X112266240Y-116387039D01*
X112256495Y-116376305D01*
X112229728Y-116348627D01*
X112189641Y-116307792D01*
X112139937Y-116257585D01*
X112120786Y-116238330D01*
X112057239Y-116173377D01*
X112011083Y-116120867D01*
X111979538Y-116073888D01*
X111959826Y-116025531D01*
X111949165Y-115968887D01*
X111944777Y-115897044D01*
X111943881Y-115803094D01*
X111943878Y-115798578D01*
X111943797Y-115617865D01*
X111637164Y-115307580D01*
X111330531Y-114997295D01*
X111245098Y-115002032D01*
X111189228Y-115002467D01*
X111149203Y-114994358D01*
X111112125Y-114974912D01*
X111108367Y-114972427D01*
X111053652Y-114919852D01*
X111019806Y-114853678D01*
X111007151Y-114780601D01*
X111016011Y-114707316D01*
X111046705Y-114640521D01*
X111090154Y-114593888D01*
X111147403Y-114562415D01*
X111216520Y-114543433D01*
X111282616Y-114540718D01*
X111293477Y-114542329D01*
X111355289Y-114567254D01*
X111410358Y-114613322D01*
X111453506Y-114673181D01*
X111479551Y-114739480D01*
X111483316Y-114804870D01*
X111482392Y-114810421D01*
X111480056Y-114825505D01*
X111480568Y-114839821D01*
X111486022Y-114855904D01*
X111498515Y-114876286D01*
X111520141Y-114903504D01*
X111552996Y-114940092D01*
X111599175Y-114988582D01*
X111660775Y-115051511D01*
X111739890Y-115131413D01*
X111787149Y-115179002D01*
X111867090Y-115260226D01*
X111941119Y-115336862D01*
X112006438Y-115405902D01*
X112060249Y-115464338D01*
X112099753Y-115509162D01*
X112122153Y-115537366D01*
X112125322Y-115542528D01*
X112135620Y-115570203D01*
X112142637Y-115608712D01*
X112146868Y-115663249D01*
X112148807Y-115739006D01*
X112149077Y-115791692D01*
X112149164Y-115993948D01*
X112332912Y-116187528D01*
X112516660Y-116381107D01*
X112787198Y-116385393D01*
X112872590Y-116386218D01*
X112946903Y-116385928D01*
X113005572Y-116384624D01*
X113044032Y-116382406D01*
X113057720Y-116379402D01*
X113048035Y-116365945D01*
X113021240Y-116335222D01*
X112980707Y-116290934D01*
X112929811Y-116236786D01*
X112888419Y-116193541D01*
X112818830Y-116120136D01*
X112767695Y-116062154D01*
X112732230Y-116014810D01*
X112709653Y-115973320D01*
X112697180Y-115932901D01*
X112692028Y-115888770D01*
X112691287Y-115854687D01*
X112691287Y-115788516D01*
X112353502Y-115451532D01*
X112270107Y-115367761D01*
X112192233Y-115288442D01*
X112122653Y-115216485D01*
X112064140Y-115154800D01*
X112019469Y-115106297D01*
X111991413Y-115073884D01*
X111984154Y-115064105D01*
X111970759Y-115039266D01*
X111961468Y-115011000D01*
X111955379Y-114973178D01*
X111951587Y-114919670D01*
X111949189Y-114844349D01*
X111948753Y-114823916D01*
X111944915Y-114634171D01*
X111902877Y-114608606D01*
X111857426Y-114565122D01*
X111825908Y-114502339D01*
X111812217Y-114428500D01*
X111811942Y-114416142D01*
X111824586Y-114342040D01*
X111858937Y-114281172D01*
X111909826Y-114235063D01*
X111972086Y-114205240D01*
X112040548Y-114193230D01*
X112110045Y-114200557D01*
X112175410Y-114228750D01*
X112231474Y-114279332D01*
X112239439Y-114289890D01*
X112260948Y-114328527D01*
X112271291Y-114373686D01*
X112273572Y-114425685D01*
X112264818Y-114504936D01*
X112237345Y-114563903D01*
X112189335Y-114606252D01*
X112181968Y-114610468D01*
X112167812Y-114619891D01*
X112158421Y-114633401D01*
X112152830Y-114656524D01*
X112150072Y-114694785D01*
X112149181Y-114753709D01*
X112149138Y-114798243D01*
X112149286Y-114967982D01*
X112420270Y-115239130D01*
X112691255Y-115510279D01*
X112691271Y-115117626D01*
X112691287Y-114724973D01*
X112633987Y-114670465D01*
X112585142Y-114606378D01*
X112561950Y-114535781D01*
X112563292Y-114464105D01*
X112588051Y-114396784D01*
X112635110Y-114339250D01*
X112703349Y-114296936D01*
X112711498Y-114293674D01*
X112786731Y-114279004D01*
X112858726Y-114290042D01*
X112922432Y-114323240D01*
X112972799Y-114375050D01*
X113004776Y-114441922D01*
X113013733Y-114506040D01*
X113001836Y-114588230D01*
X112967843Y-114657043D01*
X112927141Y-114698155D01*
X112881823Y-114731660D01*
X112882910Y-115260207D01*
X112883433Y-115384664D01*
X112884437Y-115502178D01*
X112885849Y-115608949D01*
X112887600Y-115701176D01*
X112889618Y-115775057D01*
X112891833Y-115826792D01*
X112893902Y-115851061D01*
X112896605Y-115863263D01*
X112901776Y-115876749D01*
X112910750Y-115892952D01*
X112924863Y-115913307D01*
X112945451Y-115939248D01*
X112973850Y-115972209D01*
X113011394Y-116013624D01*
X113059420Y-116064927D01*
X113119263Y-116127551D01*
X113192258Y-116202932D01*
X113279742Y-116292503D01*
X113383050Y-116397699D01*
X113503517Y-116519953D01*
X113642479Y-116660699D01*
X113737386Y-116756741D01*
X113866523Y-116887239D01*
X113989697Y-117011405D01*
X114105360Y-117127698D01*
X114211969Y-117234579D01*
X114307976Y-117330509D01*
X114391838Y-117413947D01*
X114462007Y-117483355D01*
X114516940Y-117537192D01*
X114555091Y-117573919D01*
X114574913Y-117591996D01*
X114577443Y-117593635D01*
X114578821Y-117574008D01*
X114569972Y-117532585D01*
X114552655Y-117474323D01*
X114528629Y-117404176D01*
X114499653Y-117327101D01*
X114467485Y-117248052D01*
X114433886Y-117171986D01*
X114410407Y-117123068D01*
X114396805Y-117097560D01*
X114380613Y-117071399D01*
X114359951Y-117042525D01*
X114332938Y-117008874D01*
X114297694Y-116968387D01*
X114252338Y-116919002D01*
X114194990Y-116858656D01*
X114123769Y-116785289D01*
X114036796Y-116696840D01*
X113932188Y-116591246D01*
X113848252Y-116506818D01*
X113724776Y-116382395D01*
X113620716Y-116276733D01*
X113534499Y-116188136D01*
X113464548Y-116114906D01*
X113409287Y-116055346D01*
X113367141Y-116007760D01*
X113336535Y-115970449D01*
X113315892Y-115941718D01*
X113303949Y-115920552D01*
X113295022Y-115901183D01*
X113548702Y-115901183D01*
X113555801Y-115910030D01*
X113581661Y-115937798D01*
X113624423Y-115982570D01*
X113682228Y-116042431D01*
X113753218Y-116115465D01*
X113835535Y-116199757D01*
X113927320Y-116293390D01*
X114026714Y-116394450D01*
X114061685Y-116429932D01*
X114163741Y-116533459D01*
X114259296Y-116630459D01*
X114346425Y-116718971D01*
X114423202Y-116797037D01*
X114487703Y-116862697D01*
X114538002Y-116913994D01*
X114572174Y-116948967D01*
X114588294Y-116965658D01*
X114589325Y-116966817D01*
X114589207Y-116953175D01*
X114588872Y-116913620D01*
X114588349Y-116851550D01*
X114587667Y-116770363D01*
X114586853Y-116673458D01*
X114585938Y-116564233D01*
X114585273Y-116484954D01*
X114581222Y-116001277D01*
X114217193Y-116001277D01*
X114082494Y-116000740D01*
X113973076Y-115998847D01*
X113884923Y-115995177D01*
X113814017Y-115989310D01*
X113756341Y-115980823D01*
X113707878Y-115969296D01*
X113664611Y-115954306D01*
X113631765Y-115939883D01*
X113589785Y-115920126D01*
X113558211Y-115905468D01*
X113548702Y-115901183D01*
X113295022Y-115901183D01*
X113270225Y-115847382D01*
X113267958Y-115063708D01*
X114072789Y-115063708D01*
X114089440Y-115190301D01*
X114129865Y-115308844D01*
X114191368Y-115416795D01*
X114271255Y-115511613D01*
X114366831Y-115590759D01*
X114475402Y-115651690D01*
X114594273Y-115691867D01*
X114720750Y-115708748D01*
X114852137Y-115699793D01*
X114889379Y-115692323D01*
X115015527Y-115648934D01*
X115131611Y-115581059D01*
X115232672Y-115492599D01*
X115313748Y-115387454D01*
X115342102Y-115336322D01*
X115391710Y-115204539D01*
X115412629Y-115070927D01*
X115405024Y-114938056D01*
X115369056Y-114808492D01*
X115304890Y-114684801D01*
X115300247Y-114677772D01*
X115213219Y-114570958D01*
X115202002Y-114561640D01*
X115575830Y-114561640D01*
X115586417Y-114615987D01*
X115614617Y-114659095D01*
X115655531Y-114687396D01*
X115704261Y-114697322D01*
X115755907Y-114685303D01*
X115799627Y-114653991D01*
X115834337Y-114605168D01*
X115842470Y-114564924D01*
X115830301Y-114518537D01*
X115799351Y-114475210D01*
X115757952Y-114443792D01*
X115718287Y-114433014D01*
X115672493Y-114441014D01*
X115627618Y-114461085D01*
X115595207Y-114487337D01*
X115587754Y-114499625D01*
X115575830Y-114561640D01*
X115202002Y-114561640D01*
X115113410Y-114488048D01*
X115003985Y-114428380D01*
X114888112Y-114391296D01*
X114768955Y-114376135D01*
X114649681Y-114382237D01*
X114533455Y-114408942D01*
X114423443Y-114455591D01*
X114322812Y-114521522D01*
X114234727Y-114606077D01*
X114162355Y-114708595D01*
X114108860Y-114828417D01*
X114082606Y-114931605D01*
X114072789Y-115063708D01*
X113267958Y-115063708D01*
X113267614Y-114944852D01*
X113265003Y-114042322D01*
X113213808Y-113991126D01*
X113168854Y-113928197D01*
X113148735Y-113859038D01*
X113151273Y-113788805D01*
X113174289Y-113722649D01*
X113215606Y-113665725D01*
X113273045Y-113623187D01*
X113344427Y-113600187D01*
X113380150Y-113597584D01*
X113457522Y-113610146D01*
G37*
%TO.C,J_IR_FLASH1*%
D13*
X111860000Y-99020000D02*
X113240000Y-99020000D01*
X111860000Y-100400000D02*
X111860000Y-99020000D01*
X111860000Y-101670000D02*
X111860000Y-104320000D01*
X111860000Y-101670000D02*
X114620000Y-101670000D01*
X111860000Y-104320000D02*
X114620000Y-104320000D01*
X114620000Y-101670000D02*
X114620000Y-104320000D01*
%TO.C,J_PWR_IN1*%
X138140000Y-125390000D02*
X138140000Y-126640000D01*
X138440000Y-127000000D02*
X139050000Y-127000000D01*
X138440000Y-128300000D02*
X139050000Y-128300000D01*
X139050000Y-126300000D02*
X139050000Y-129800000D01*
X139050000Y-129800000D02*
X143950000Y-129800000D01*
X139390000Y-125390000D02*
X138140000Y-125390000D01*
X139900000Y-125490000D02*
X139900000Y-125690000D01*
X140200000Y-125490000D02*
X139900000Y-125490000D01*
X140200000Y-125590000D02*
X139900000Y-125590000D01*
X140200000Y-125690000D02*
X140200000Y-125490000D01*
X141000000Y-125690000D02*
X141000000Y-126300000D01*
X141000000Y-126300000D02*
X139050000Y-126300000D01*
X141400000Y-129300000D02*
X141600000Y-129300000D01*
X141400000Y-129800000D02*
X141400000Y-129300000D01*
X141500000Y-129800000D02*
X141500000Y-129300000D01*
X141600000Y-129300000D02*
X141600000Y-129800000D01*
X142000000Y-126300000D02*
X142000000Y-125690000D01*
X143950000Y-126300000D02*
X142000000Y-126300000D01*
X143950000Y-129800000D02*
X143950000Y-126300000D01*
X144560000Y-127000000D02*
X143950000Y-127000000D01*
X144560000Y-128300000D02*
X143950000Y-128300000D01*
X138440000Y-125690000D02*
X144560000Y-125690000D01*
X144560000Y-130410000D01*
X138440000Y-130410000D01*
X138440000Y-125690000D01*
%TO.C,J_PIR1*%
X184611000Y-82592000D02*
X184611000Y-77452000D01*
X184611000Y-85192000D02*
X184611000Y-83862000D01*
X185941000Y-85192000D02*
X184611000Y-85192000D01*
X187271000Y-77452000D02*
X184611000Y-77452000D01*
X187271000Y-82592000D02*
X184611000Y-82592000D01*
X187271000Y-82592000D02*
X187271000Y-77452000D01*
%TO.C,U2*%
X166599000Y-74536000D02*
X166599000Y-79836000D01*
X166599000Y-79836000D02*
X176879000Y-79836000D01*
X176879000Y-74536000D02*
X166599000Y-74536000D01*
X176879000Y-76186000D02*
X176879000Y-74536000D01*
X176879000Y-79836000D02*
X176879000Y-78186000D01*
X176879000Y-78186000D02*
G75*
G02*
X176879000Y-76186000I0J1000000D01*
G01*
%TO.C,Q1*%
X110929000Y-78740000D02*
X121149000Y-78740000D01*
X110929000Y-80120000D02*
X121149000Y-80120000D01*
X110929000Y-83360000D02*
X110929000Y-78740000D01*
X114189000Y-78740000D02*
X114189000Y-80120000D01*
X117889000Y-78740000D02*
X117889000Y-80120000D01*
X121149000Y-78740000D02*
X121149000Y-83360000D01*
X121149000Y-83360000D02*
X110929000Y-83360000D01*
%TO.C,J_LORA_GPIO1*%
X193020000Y-100620000D02*
X194400000Y-100620000D01*
X193020000Y-102000000D02*
X193020000Y-100620000D01*
X193020000Y-103270000D02*
X193020000Y-113540000D01*
X193020000Y-103270000D02*
X195780000Y-103270000D01*
X193020000Y-113540000D02*
X195780000Y-113540000D01*
X195780000Y-103270000D02*
X195780000Y-113540000D01*
%TO.C,J_ESP32_R1*%
X154830000Y-64660000D02*
X156210000Y-64660000D01*
X154830000Y-66040000D02*
X154830000Y-64660000D01*
X154830000Y-67310000D02*
X154830000Y-115680000D01*
X154830000Y-67310000D02*
X157590000Y-67310000D01*
X154830000Y-115680000D02*
X157590000Y-115680000D01*
X157590000Y-67310000D02*
X157590000Y-115680000D01*
%TO.C,R3*%
X176500000Y-61380000D02*
X176500000Y-62150000D01*
X176500000Y-69460000D02*
X176500000Y-68690000D01*
X175130000Y-62150000D02*
X177870000Y-62150000D01*
X177870000Y-68690000D01*
X175130000Y-68690000D01*
X175130000Y-62150000D01*
%TO.C,RHYS1*%
X172085000Y-85221000D02*
X172085000Y-85991000D01*
X172085000Y-93301000D02*
X172085000Y-92531000D01*
X170715000Y-85991000D02*
X173455000Y-85991000D01*
X173455000Y-92531000D01*
X170715000Y-92531000D01*
X170715000Y-85991000D01*
%TO.C,R4*%
X167005000Y-61380000D02*
X167005000Y-62150000D01*
X167005000Y-69460000D02*
X167005000Y-68690000D01*
X165635000Y-62150000D02*
X168375000Y-62150000D01*
X168375000Y-68690000D01*
X165635000Y-68690000D01*
X165635000Y-62150000D01*
%TO.C,J_IR_PWR1*%
X111859000Y-89021000D02*
X113239000Y-89021000D01*
X111859000Y-90401000D02*
X111859000Y-89021000D01*
X111859000Y-91671000D02*
X111859000Y-94321000D01*
X111859000Y-91671000D02*
X114619000Y-91671000D01*
X111859000Y-94321000D02*
X114619000Y-94321000D01*
X114619000Y-91671000D02*
X114619000Y-94321000D01*
%TO.C,R1*%
X171739000Y-61365000D02*
X171739000Y-62135000D01*
X171739000Y-69445000D02*
X171739000Y-68675000D01*
X170369000Y-62135000D02*
X173109000Y-62135000D01*
X173109000Y-68675000D01*
X170369000Y-68675000D01*
X170369000Y-62135000D01*
%TD*%
M02*
