%TF.GenerationSoftware,KiCad,Pcbnew,10.0.0*%
%TF.CreationDate,2026-05-05T11:14:11-07:00*%
%TF.ProjectId,tinyScrubCam_pcb copy,74696e79-5363-4727-9562-43616d5f7063,rev?*%
%TF.SameCoordinates,Original*%
%TF.FileFunction,Other,User*%
%FSLAX46Y46*%
G04 Gerber Fmt 4.6, Leading zero omitted, Abs format (unit mm)*
G04 Created by KiCad (PCBNEW 10.0.0) date 2026-05-05 11:14:11*
%MOMM*%
%LPD*%
G01*
G04 APERTURE LIST*
%ADD10C,0.050000*%
G04 APERTURE END LIST*
%TO.C,RPD1*%
D10*
X109870000Y-74000000D02*
X122130000Y-74000000D01*
X122130000Y-77000000D01*
X109870000Y-77000000D01*
X109870000Y-74000000D01*
%TO.C,J_ESP32_L1*%
X129040000Y-64270000D02*
X132580000Y-64270000D01*
X129040000Y-116070000D02*
X129040000Y-64270000D01*
X132580000Y-64270000D02*
X132580000Y-116070000D01*
X132580000Y-116070000D02*
X129040000Y-116070000D01*
%TO.C,R_BASE1*%
X109870000Y-69500000D02*
X122130000Y-69500000D01*
X122130000Y-72500000D01*
X109870000Y-72500000D01*
X109870000Y-69500000D01*
%TO.C,REF\u002A\u002A*%
X196450000Y-130500000D02*
G75*
G02*
X189550000Y-130500000I-3450000J0D01*
G01*
X189550000Y-130500000D02*
G75*
G02*
X196450000Y-130500000I3450000J0D01*
G01*
%TO.C,RPU1*%
X175665000Y-83131000D02*
X178665000Y-83131000D01*
X178665000Y-95391000D01*
X175665000Y-95391000D01*
X175665000Y-83131000D01*
%TO.C,REF\u002A\u002A*%
X109950000Y-130500000D02*
G75*
G02*
X103050000Y-130500000I-3450000J0D01*
G01*
X103050000Y-130500000D02*
G75*
G02*
X109950000Y-130500000I3450000J0D01*
G01*
%TO.C,R2*%
X165505000Y-83131000D02*
X168505000Y-83131000D01*
X168505000Y-95391000D01*
X165505000Y-95391000D01*
X165505000Y-83131000D01*
%TO.C,J_IR_FLASH1*%
X111050000Y-99040000D02*
X116550000Y-99040000D01*
X116550000Y-105940000D01*
X111050000Y-105940000D01*
X111050000Y-99040000D01*
%TO.C,J_PWR_IN1*%
X138050000Y-125300000D02*
X144950000Y-125300000D01*
X144950000Y-130800000D01*
X138050000Y-130800000D01*
X138050000Y-125300000D01*
%TO.C,REF\u002A\u002A*%
X109950000Y-62500000D02*
G75*
G02*
X103050000Y-62500000I-3450000J0D01*
G01*
X103050000Y-62500000D02*
G75*
G02*
X109950000Y-62500000I3450000J0D01*
G01*
%TO.C,PIR*%
X184171000Y-77012000D02*
X187711000Y-77012000D01*
X187711000Y-85632000D01*
X184171000Y-85632000D01*
X184171000Y-77012000D01*
%TO.C,U2*%
X166409000Y-72316000D02*
X177069000Y-72316000D01*
X177069000Y-82046000D01*
X166409000Y-82046000D01*
X166409000Y-72316000D01*
%TO.C,REF\u002A\u002A*%
X196950000Y-62500000D02*
G75*
G02*
X190050000Y-62500000I-3450000J0D01*
G01*
X190050000Y-62500000D02*
G75*
G02*
X196950000Y-62500000I3450000J0D01*
G01*
%TO.C,Q1*%
X110789000Y-78600000D02*
X121289000Y-78600000D01*
X121289000Y-83500000D01*
X110789000Y-83500000D01*
X110789000Y-78600000D01*
%TO.C,J_LORA_GPIO1*%
X192630000Y-100230000D02*
X196170000Y-100230000D01*
X192630000Y-113930000D02*
X192630000Y-100230000D01*
X196170000Y-100230000D02*
X196170000Y-113930000D01*
X196170000Y-113930000D02*
X192630000Y-113930000D01*
%TO.C,J_ESP32_R1*%
X154440000Y-64270000D02*
X157980000Y-64270000D01*
X154440000Y-116070000D02*
X154440000Y-64270000D01*
X157980000Y-64270000D02*
X157980000Y-116070000D01*
X157980000Y-116070000D02*
X154440000Y-116070000D01*
%TO.C,R3*%
X175000000Y-59290000D02*
X178000000Y-59290000D01*
X178000000Y-71550000D01*
X175000000Y-71550000D01*
X175000000Y-59290000D01*
%TO.C,RHYS1*%
X170585000Y-83131000D02*
X173585000Y-83131000D01*
X173585000Y-95391000D01*
X170585000Y-95391000D01*
X170585000Y-83131000D01*
%TO.C,R4*%
X165505000Y-59290000D02*
X168505000Y-59290000D01*
X168505000Y-71550000D01*
X165505000Y-71550000D01*
X165505000Y-59290000D01*
%TO.C,J_LORA_MAIN1*%
X167230000Y-100230000D02*
X170770000Y-100230000D01*
X167230000Y-124090000D02*
X167230000Y-100230000D01*
X170770000Y-100230000D02*
X170770000Y-124090000D01*
X170770000Y-124090000D02*
X167230000Y-124090000D01*
%TO.C,J_IR_PWR1*%
X111469000Y-88631000D02*
X115009000Y-88631000D01*
X115009000Y-94721000D01*
X111469000Y-94721000D01*
X111469000Y-88631000D01*
%TO.C,R1*%
X170239000Y-59275000D02*
X173239000Y-59275000D01*
X173239000Y-71535000D01*
X170239000Y-71535000D01*
X170239000Y-59275000D01*
%TD*%
M02*
