M48
; DRILL file KiCad 10.0.0 date 2026-04-08T19:58:43
; FORMAT={-:-/ absolute / metric / decimal}
; #@! TF.CreationDate,2026-04-08T19:58:43-07:00
; #@! TF.GenerationSoftware,Kicad,Pcbnew,10.0.0
; #@! TF.FileFunction,Plated,1,2,PTH
FMAT,2
METRIC
; #@! TA.AperFunction,Plated,PTH,ViaDrill
T1C0.635
; #@! TA.AperFunction,Plated,PTH,ComponentDrill
T2C0.750
; #@! TA.AperFunction,Plated,PTH,ComponentDrill
T3C0.800
; #@! TA.AperFunction,Plated,PTH,ComponentDrill
T4C1.000
; #@! TA.AperFunction,Plated,PTH,ComponentDrill
T5C1.100
%
G90
G05
T1
X137.795Y-83.82
X137.795Y-101.6
X144.145Y-61.595
X144.145Y-73.66
X149.0Y-106.5
X156.21Y-118.821
X160.0Y-105.568
X160.0Y-114.5
X162.5Y-103.81
X162.5Y-112.0
X163.119Y-71.933
X169.0Y-129.0
T2
X140.5Y-127.5
X142.5Y-127.5
T3
X110.92Y-71.0
X110.92Y-75.5
X121.08Y-71.0
X121.08Y-75.5
X167.005Y-60.34
X167.005Y-70.5
X167.005Y-84.181
X167.005Y-94.341
X167.929Y-73.376
X167.929Y-80.996
X170.469Y-73.376
X170.469Y-80.996
X171.739Y-60.325
X171.739Y-70.485
X172.085Y-84.181
X172.085Y-94.341
X173.009Y-73.376
X173.009Y-80.996
X175.549Y-73.376
X175.549Y-80.996
X176.5Y-60.34
X176.5Y-70.5
X177.165Y-84.181
X177.165Y-94.341
T4
X113.239Y-90.401
X113.239Y-92.941
X113.24Y-100.4
X113.24Y-102.94
X130.81Y-66.04
X130.81Y-68.58
X130.81Y-71.12
X130.81Y-73.66
X130.81Y-76.2
X130.81Y-78.74
X130.81Y-81.28
X130.81Y-83.82
X130.81Y-86.36
X130.81Y-88.9
X130.81Y-91.44
X130.81Y-93.98
X130.81Y-96.52
X130.81Y-99.06
X130.81Y-101.6
X130.81Y-104.14
X130.81Y-106.68
X130.81Y-109.22
X130.81Y-111.76
X130.81Y-114.3
X156.21Y-66.04
X156.21Y-68.58
X156.21Y-71.12
X156.21Y-73.66
X156.21Y-76.2
X156.21Y-78.74
X156.21Y-81.28
X156.21Y-83.82
X156.21Y-86.36
X156.21Y-88.9
X156.21Y-91.44
X156.21Y-93.98
X156.21Y-96.52
X156.21Y-99.06
X156.21Y-101.6
X156.21Y-104.14
X156.21Y-106.68
X156.21Y-109.22
X156.21Y-111.76
X156.21Y-114.3
X169.0Y-102.0
X169.0Y-104.54
X169.0Y-107.08
X169.0Y-109.62
X169.0Y-112.16
X169.0Y-114.7
X169.0Y-117.24
X169.0Y-119.78
X169.0Y-122.32
X185.941Y-78.782
X185.941Y-81.322
X185.941Y-83.862
X194.4Y-102.0
X194.4Y-104.54
X194.4Y-107.08
X194.4Y-109.62
X194.4Y-112.16
T5
X113.499Y-82.0
X116.039Y-82.0
X118.579Y-82.0
M30
