%TF.GenerationSoftware,KiCad,Pcbnew,10.0.0*%
%TF.CreationDate,2026-05-05T11:59:37-07:00*%
%TF.ProjectId,tinyScrubCam_pir,74696e79-5363-4727-9562-43616d5f7069,rev?*%
%TF.SameCoordinates,Original*%
%TF.FileFunction,Copper,L2,Bot*%
%TF.FilePolarity,Positive*%
%FSLAX46Y46*%
G04 Gerber Fmt 4.6, Leading zero omitted, Abs format (unit mm)*
G04 Created by KiCad (PCBNEW 10.0.0) date 2026-05-05 11:59:37*
%MOMM*%
%LPD*%
G01*
G04 APERTURE LIST*
%TA.AperFunction,ComponentPad*%
%ADD10R,1.700000X1.700000*%
%TD*%
%TA.AperFunction,ComponentPad*%
%ADD11C,1.700000*%
%TD*%
%TA.AperFunction,ComponentPad*%
%ADD12C,1.800000*%
%TD*%
G04 APERTURE END LIST*
D10*
%TO.P,J1,1,Pin_1*%
%TO.N,+3V3*%
X134750000Y-95710000D03*
D11*
%TO.P,J1,2,Pin_2*%
%TO.N,GND*%
X132210000Y-95710000D03*
%TO.P,J1,3,Pin_3*%
%TO.N,/PIR_RAW*%
X129670000Y-95710000D03*
%TD*%
D12*
%TO.P,U1,3,ANALOG*%
%TO.N,GND*%
X132210000Y-90290000D03*
%TO.P,U1,2,GND*%
%TO.N,/PIR_RAW*%
X134750000Y-87750000D03*
%TO.P,U1,1,VDD*%
%TO.N,+3V3*%
X132210000Y-85210000D03*
%TD*%
%TA.AperFunction,Conductor*%
%TO.N,GND*%
G36*
X140714418Y-79710816D02*
G01*
X140914561Y-79725130D01*
X140932063Y-79727647D01*
X141123791Y-79769354D01*
X141180278Y-79800199D01*
X141316207Y-79840111D01*
X141340695Y-79850254D01*
X141457495Y-79914032D01*
X141512908Y-79944290D01*
X141527791Y-79953855D01*
X141684864Y-80071438D01*
X141698235Y-80083024D01*
X141836975Y-80221764D01*
X141848561Y-80235135D01*
X141966144Y-80392208D01*
X141975709Y-80407091D01*
X142069743Y-80579300D01*
X142077093Y-80595394D01*
X142145661Y-80779234D01*
X142150645Y-80796209D01*
X142192351Y-80987931D01*
X142194869Y-81005442D01*
X142209184Y-81205580D01*
X142209500Y-81214427D01*
X142209500Y-95205572D01*
X142209184Y-95214419D01*
X142194869Y-95414557D01*
X142192351Y-95432068D01*
X142150645Y-95623790D01*
X142145661Y-95640765D01*
X142077093Y-95824605D01*
X142069743Y-95840699D01*
X141975709Y-96012908D01*
X141966144Y-96027791D01*
X141848561Y-96184864D01*
X141836975Y-96198235D01*
X141698235Y-96336975D01*
X141684864Y-96348561D01*
X141527791Y-96466144D01*
X141512908Y-96475709D01*
X141340699Y-96569743D01*
X141324605Y-96577093D01*
X141140765Y-96645661D01*
X141123790Y-96650645D01*
X140932068Y-96692351D01*
X140914557Y-96694869D01*
X140733779Y-96707799D01*
X140714417Y-96709184D01*
X140705572Y-96709500D01*
X136224500Y-96709500D01*
X136157461Y-96689815D01*
X136111706Y-96637011D01*
X136100500Y-96585500D01*
X136100499Y-94812129D01*
X136100498Y-94812123D01*
X136100497Y-94812116D01*
X136094091Y-94752517D01*
X136043796Y-94617669D01*
X136043795Y-94617668D01*
X136043793Y-94617664D01*
X135957547Y-94502455D01*
X135957544Y-94502452D01*
X135842335Y-94416206D01*
X135842328Y-94416202D01*
X135707482Y-94365908D01*
X135707483Y-94365908D01*
X135647883Y-94359501D01*
X135647881Y-94359500D01*
X135647873Y-94359500D01*
X135647864Y-94359500D01*
X133852129Y-94359500D01*
X133852123Y-94359501D01*
X133792516Y-94365908D01*
X133657671Y-94416202D01*
X133657664Y-94416206D01*
X133542455Y-94502452D01*
X133542452Y-94502455D01*
X133456206Y-94617664D01*
X133456202Y-94617671D01*
X133405908Y-94752517D01*
X133399501Y-94812116D01*
X133399501Y-94812123D01*
X133399500Y-94812135D01*
X133399500Y-94822690D01*
X133379815Y-94889729D01*
X133363181Y-94910371D01*
X132692962Y-95580589D01*
X132675925Y-95517007D01*
X132610099Y-95402993D01*
X132517007Y-95309901D01*
X132402993Y-95244075D01*
X132339409Y-95227037D01*
X132971716Y-94594728D01*
X132917550Y-94555375D01*
X132728217Y-94458904D01*
X132526129Y-94393242D01*
X132316246Y-94360000D01*
X132103754Y-94360000D01*
X131893872Y-94393242D01*
X131893869Y-94393242D01*
X131691782Y-94458904D01*
X131502439Y-94555380D01*
X131448282Y-94594727D01*
X131448282Y-94594728D01*
X132080591Y-95227037D01*
X132017007Y-95244075D01*
X131902993Y-95309901D01*
X131809901Y-95402993D01*
X131744075Y-95517007D01*
X131727037Y-95580591D01*
X131094728Y-94948282D01*
X131094727Y-94948282D01*
X131055380Y-95002440D01*
X131055376Y-95002446D01*
X131050760Y-95011505D01*
X131002781Y-95062297D01*
X130934959Y-95079087D01*
X130868826Y-95056543D01*
X130829794Y-95011493D01*
X130825051Y-95002184D01*
X130825049Y-95002181D01*
X130825048Y-95002179D01*
X130700109Y-94830213D01*
X130549786Y-94679890D01*
X130377820Y-94554951D01*
X130188414Y-94458444D01*
X130188413Y-94458443D01*
X130188412Y-94458443D01*
X129986243Y-94392754D01*
X129986241Y-94392753D01*
X129986240Y-94392753D01*
X129824957Y-94367208D01*
X129776287Y-94359500D01*
X129563713Y-94359500D01*
X129515042Y-94367208D01*
X129353760Y-94392753D01*
X129151585Y-94458444D01*
X128962179Y-94554951D01*
X128790213Y-94679890D01*
X128639890Y-94830213D01*
X128514951Y-95002179D01*
X128418444Y-95191585D01*
X128352753Y-95393760D01*
X128346686Y-95432068D01*
X128319500Y-95603713D01*
X128319500Y-95816287D01*
X128321291Y-95827596D01*
X128351874Y-96020691D01*
X128352754Y-96026243D01*
X128406600Y-96191964D01*
X128418444Y-96228414D01*
X128514951Y-96417820D01*
X128583823Y-96512615D01*
X128607303Y-96578422D01*
X128591477Y-96646475D01*
X128541371Y-96695170D01*
X128483505Y-96709500D01*
X124714428Y-96709500D01*
X124705582Y-96709184D01*
X124683622Y-96707613D01*
X124505442Y-96694869D01*
X124487931Y-96692351D01*
X124296209Y-96650645D01*
X124279234Y-96645661D01*
X124095394Y-96577093D01*
X124079300Y-96569743D01*
X123907091Y-96475709D01*
X123892208Y-96466144D01*
X123735135Y-96348561D01*
X123721764Y-96336975D01*
X123583024Y-96198235D01*
X123571438Y-96184864D01*
X123453855Y-96027791D01*
X123444290Y-96012908D01*
X123412815Y-95955266D01*
X123350253Y-95840694D01*
X123342909Y-95824611D01*
X123274336Y-95640760D01*
X123269354Y-95623790D01*
X123227648Y-95432068D01*
X123225130Y-95414556D01*
X123223642Y-95393757D01*
X123210816Y-95214418D01*
X123210500Y-95205572D01*
X123210500Y-90179818D01*
X130810000Y-90179818D01*
X130810000Y-90400181D01*
X130844473Y-90617835D01*
X130912567Y-90827410D01*
X131012611Y-91023756D01*
X131058932Y-91087513D01*
X131810000Y-90336445D01*
X131810000Y-90342661D01*
X131837259Y-90444394D01*
X131889920Y-90535606D01*
X131964394Y-90610080D01*
X132055606Y-90662741D01*
X132157339Y-90690000D01*
X132163553Y-90690000D01*
X131412485Y-91441065D01*
X131412485Y-91441066D01*
X131476243Y-91487388D01*
X131672589Y-91587432D01*
X131882164Y-91655526D01*
X132099819Y-91690000D01*
X132320181Y-91690000D01*
X132537835Y-91655526D01*
X132747410Y-91587432D01*
X132943760Y-91487386D01*
X133007513Y-91441066D01*
X133007514Y-91441066D01*
X132256447Y-90690000D01*
X132262661Y-90690000D01*
X132364394Y-90662741D01*
X132455606Y-90610080D01*
X132530080Y-90535606D01*
X132582741Y-90444394D01*
X132610000Y-90342661D01*
X132610000Y-90336448D01*
X133361066Y-91087514D01*
X133361066Y-91087513D01*
X133407386Y-91023760D01*
X133507432Y-90827410D01*
X133575526Y-90617835D01*
X133610000Y-90400181D01*
X133610000Y-90179818D01*
X133575526Y-89962164D01*
X133507432Y-89752589D01*
X133407388Y-89556243D01*
X133361066Y-89492485D01*
X133361065Y-89492485D01*
X132610000Y-90243551D01*
X132610000Y-90237339D01*
X132582741Y-90135606D01*
X132530080Y-90044394D01*
X132455606Y-89969920D01*
X132364394Y-89917259D01*
X132262661Y-89890000D01*
X132256445Y-89890000D01*
X133007513Y-89138932D01*
X132943756Y-89092611D01*
X132747410Y-88992567D01*
X132537835Y-88924473D01*
X132320181Y-88890000D01*
X132099819Y-88890000D01*
X131882164Y-88924473D01*
X131672589Y-88992567D01*
X131476233Y-89092616D01*
X131412485Y-89138931D01*
X131412485Y-89138932D01*
X132163553Y-89890000D01*
X132157339Y-89890000D01*
X132055606Y-89917259D01*
X131964394Y-89969920D01*
X131889920Y-90044394D01*
X131837259Y-90135606D01*
X131810000Y-90237339D01*
X131810000Y-90243553D01*
X131058932Y-89492485D01*
X131058931Y-89492485D01*
X131012616Y-89556233D01*
X130912567Y-89752589D01*
X130844473Y-89962164D01*
X130810000Y-90179818D01*
X123210500Y-90179818D01*
X123210500Y-87639778D01*
X133349500Y-87639778D01*
X133349500Y-87860221D01*
X133383985Y-88077952D01*
X133452103Y-88287603D01*
X133452104Y-88287606D01*
X133552187Y-88484025D01*
X133681752Y-88662358D01*
X133681756Y-88662363D01*
X133837636Y-88818243D01*
X133837641Y-88818247D01*
X133936402Y-88890000D01*
X134015978Y-88947815D01*
X134103808Y-88992567D01*
X134212393Y-89047895D01*
X134212396Y-89047896D01*
X134317221Y-89081955D01*
X134422049Y-89116015D01*
X134639778Y-89150500D01*
X134639779Y-89150500D01*
X134860221Y-89150500D01*
X134860222Y-89150500D01*
X135077951Y-89116015D01*
X135287606Y-89047895D01*
X135484022Y-88947815D01*
X135662365Y-88818242D01*
X135818242Y-88662365D01*
X135947815Y-88484022D01*
X136047895Y-88287606D01*
X136116015Y-88077951D01*
X136150500Y-87860222D01*
X136150500Y-87639778D01*
X136116015Y-87422049D01*
X136047895Y-87212394D01*
X136047895Y-87212393D01*
X136013237Y-87144375D01*
X135947815Y-87015978D01*
X135931260Y-86993192D01*
X135818247Y-86837641D01*
X135818243Y-86837636D01*
X135662363Y-86681756D01*
X135662358Y-86681752D01*
X135484025Y-86552187D01*
X135484024Y-86552186D01*
X135484022Y-86552185D01*
X135397099Y-86507895D01*
X135287606Y-86452104D01*
X135287603Y-86452103D01*
X135077952Y-86383985D01*
X134969086Y-86366742D01*
X134860222Y-86349500D01*
X134639778Y-86349500D01*
X134567201Y-86360995D01*
X134422047Y-86383985D01*
X134212396Y-86452103D01*
X134212393Y-86452104D01*
X134015974Y-86552187D01*
X133837641Y-86681752D01*
X133837636Y-86681756D01*
X133681756Y-86837636D01*
X133681752Y-86837641D01*
X133552187Y-87015974D01*
X133452104Y-87212393D01*
X133452103Y-87212396D01*
X133383985Y-87422047D01*
X133349500Y-87639778D01*
X123210500Y-87639778D01*
X123210500Y-85099778D01*
X130809500Y-85099778D01*
X130809500Y-85320221D01*
X130843985Y-85537952D01*
X130912103Y-85747603D01*
X130912104Y-85747606D01*
X131012187Y-85944025D01*
X131141752Y-86122358D01*
X131141756Y-86122363D01*
X131297636Y-86278243D01*
X131297641Y-86278247D01*
X131443179Y-86383985D01*
X131475978Y-86407815D01*
X131604375Y-86473237D01*
X131672393Y-86507895D01*
X131672396Y-86507896D01*
X131777221Y-86541955D01*
X131882049Y-86576015D01*
X132099778Y-86610500D01*
X132099779Y-86610500D01*
X132320221Y-86610500D01*
X132320222Y-86610500D01*
X132537951Y-86576015D01*
X132747606Y-86507895D01*
X132944022Y-86407815D01*
X133122365Y-86278242D01*
X133278242Y-86122365D01*
X133407815Y-85944022D01*
X133507895Y-85747606D01*
X133576015Y-85537951D01*
X133610500Y-85320222D01*
X133610500Y-85099778D01*
X133576015Y-84882049D01*
X133507895Y-84672394D01*
X133507895Y-84672393D01*
X133473237Y-84604375D01*
X133407815Y-84475978D01*
X133391260Y-84453192D01*
X133278247Y-84297641D01*
X133278243Y-84297636D01*
X133122363Y-84141756D01*
X133122358Y-84141752D01*
X132944025Y-84012187D01*
X132944024Y-84012186D01*
X132944022Y-84012185D01*
X132881096Y-83980122D01*
X132747606Y-83912104D01*
X132747603Y-83912103D01*
X132537952Y-83843985D01*
X132429086Y-83826742D01*
X132320222Y-83809500D01*
X132099778Y-83809500D01*
X132027201Y-83820995D01*
X131882047Y-83843985D01*
X131672396Y-83912103D01*
X131672393Y-83912104D01*
X131475974Y-84012187D01*
X131297641Y-84141752D01*
X131297636Y-84141756D01*
X131141756Y-84297636D01*
X131141752Y-84297641D01*
X131012187Y-84475974D01*
X130912104Y-84672393D01*
X130912103Y-84672396D01*
X130843985Y-84882047D01*
X130809500Y-85099778D01*
X123210500Y-85099778D01*
X123210500Y-81214427D01*
X123210816Y-81205581D01*
X123225130Y-81005443D01*
X123225131Y-81005442D01*
X123225130Y-81005436D01*
X123227646Y-80987938D01*
X123269356Y-80796200D01*
X123274335Y-80779242D01*
X123342911Y-80595382D01*
X123350251Y-80579310D01*
X123444294Y-80407083D01*
X123453850Y-80392214D01*
X123571443Y-80235128D01*
X123583017Y-80221771D01*
X123721771Y-80083017D01*
X123735128Y-80071443D01*
X123892214Y-79953850D01*
X123907083Y-79944294D01*
X124079310Y-79850251D01*
X124095382Y-79842911D01*
X124279242Y-79774335D01*
X124296200Y-79769356D01*
X124487938Y-79727646D01*
X124505436Y-79725130D01*
X124705582Y-79710816D01*
X124714428Y-79710500D01*
X124775892Y-79710500D01*
X140644108Y-79710500D01*
X140705572Y-79710500D01*
X140714418Y-79710816D01*
G37*
%TD.AperFunction*%
%TD*%
M02*
