%TF.GenerationSoftware,KiCad,Pcbnew,10.0.0*%
%TF.CreationDate,2026-05-05T11:59:37-07:00*%
%TF.ProjectId,tinyScrubCam_pir,74696e79-5363-4727-9562-43616d5f7069,rev?*%
%TF.SameCoordinates,Original*%
%TF.FileFunction,Legend,Top*%
%TF.FilePolarity,Positive*%
%FSLAX46Y46*%
G04 Gerber Fmt 4.6, Leading zero omitted, Abs format (unit mm)*
G04 Created by KiCad (PCBNEW 10.0.0) date 2026-05-05 11:59:37*
%MOMM*%
%LPD*%
G01*
G04 APERTURE LIST*
%ADD10C,0.150000*%
%ADD11C,0.120000*%
G04 APERTURE END LIST*
D10*
X125854819Y-88511904D02*
X126664342Y-88511904D01*
X126664342Y-88511904D02*
X126759580Y-88464285D01*
X126759580Y-88464285D02*
X126807200Y-88416666D01*
X126807200Y-88416666D02*
X126854819Y-88321428D01*
X126854819Y-88321428D02*
X126854819Y-88130952D01*
X126854819Y-88130952D02*
X126807200Y-88035714D01*
X126807200Y-88035714D02*
X126759580Y-87988095D01*
X126759580Y-87988095D02*
X126664342Y-87940476D01*
X126664342Y-87940476D02*
X125854819Y-87940476D01*
X126854819Y-86940476D02*
X126854819Y-87511904D01*
X126854819Y-87226190D02*
X125854819Y-87226190D01*
X125854819Y-87226190D02*
X125997676Y-87321428D01*
X125997676Y-87321428D02*
X126092914Y-87416666D01*
X126092914Y-87416666D02*
X126140533Y-87511904D01*
%TO.C,J1*%
D11*
X136130000Y-94330000D02*
X136130000Y-95710000D01*
X134750000Y-94330000D02*
X136130000Y-94330000D01*
X133480000Y-94330000D02*
X128290000Y-94330000D01*
X133480000Y-94330000D02*
X133480000Y-97090000D01*
X128290000Y-94330000D02*
X128290000Y-97090000D01*
X133480000Y-97090000D02*
X128290000Y-97090000D01*
%TO.C,U1*%
X128448480Y-90747844D02*
G75*
G02*
X129212156Y-91511520I3761520J2997844D01*
G01*
X128448480Y-90747844D02*
X127635307Y-91561018D01*
X128398982Y-92324693D02*
X129212156Y-91511520D01*
X127635307Y-91561018D02*
X128398982Y-92324693D01*
%TD*%
M02*
